<svg width="208" height="206" viewBox="0 0 208 206" fill="none" xmlns="http://www.w3.org/2000/svg">
<path d="M206.445 150.957V44.1039C206.445 37.7323 201.281 32.5681 194.909 32.5681H13.7063C7.33459 32.5681 2.17044 37.7323 2.17044 44.1039V150.957H206.445Z" fill="white"/>
<path d="M2.17033 151.753H206.445C206.887 151.753 207.241 151.399 207.241 150.957V44.104C207.241 37.3021 201.711 31.7716 194.909 31.7716H13.7062C6.90426 31.7716 1.37386 37.3021 1.37386 44.104V150.957C1.37386 151.399 1.72838 151.753 2.17033 151.753ZM205.654 44.104V150.16H2.96095V44.104C2.96095 38.186 7.78224 33.3646 13.7062 33.3646H194.915C200.833 33.3646 205.654 38.1802 205.654 44.104Z" fill="#FF9500" stroke="#FF9500" stroke-width="0.326827"/>
<path d="M206.726 150.957H1.89484V168.495H206.726V150.957Z" fill="white"/>
<path d="M206.726 169.128H1.89486C1.54316 169.128 1.2618 168.847 1.2618 168.495V150.957C1.2618 150.605 1.54316 150.324 1.89486 150.324H206.726C207.078 150.324 207.359 150.605 207.359 150.957V168.495C207.359 168.847 207.078 169.128 206.726 169.128ZM2.52792 167.862H206.093V151.584H2.52792V167.862Z" fill="#FF9500" stroke="#FF9500" stroke-width="0.58617"/>
<path d="M199.205 40.0828H9.40949V143.436H199.205V40.0828Z" fill="white"/>
<path d="M151.862 128.811C151.53 128.811 151.261 128.542 151.261 128.21V122.742C151.261 122.411 151.53 122.141 151.862 122.141C152.193 122.141 152.463 122.411 152.463 122.742V128.21C152.463 128.542 152.193 128.811 151.862 128.811Z" fill="#FF9500" stroke="#FF9500" stroke-width="0.405559"/>
<path d="M151.862 115.134C151.53 115.134 151.261 114.38 151.261 113.451V71.0901C151.261 70.1609 151.53 69.4067 151.862 69.4067C152.193 69.4067 152.463 70.1609 152.463 71.0901V113.451C152.463 114.38 152.193 115.134 151.862 115.134Z" fill="#FF9500" stroke="#FF9500" stroke-width="0.405559"/>
<path d="M151.862 122.931C149.555 122.931 147.68 121.055 147.68 118.749C147.68 116.442 149.556 114.566 151.862 114.566C154.168 114.566 156.044 116.442 156.044 118.749C156.044 121.055 154.168 122.931 151.862 122.931ZM151.862 115.768C150.219 115.768 148.882 117.104 148.882 118.749C148.882 120.393 150.219 121.729 151.862 121.729C153.506 121.729 154.843 120.393 154.843 118.749C154.843 117.106 153.506 115.768 151.862 115.768Z" fill="#FF9500" stroke="#FF9500" stroke-width="0.405559"/>
<path d="M164.266 105.559C163.934 105.559 163.665 104.056 163.665 102.204V71.2406C163.665 69.3889 163.934 67.886 164.266 67.886C164.597 67.886 164.867 69.3889 164.867 71.2406V102.204C164.867 104.062 164.597 105.559 164.266 105.559Z" fill="#FF9500" stroke="#FF9500" stroke-width="0.405559"/>
<path d="M164.266 143.421C163.934 143.421 163.665 142.912 163.665 142.284V113.57C163.665 112.943 163.934 112.433 164.266 112.433C164.597 112.433 164.867 112.943 164.867 113.57V142.284C164.867 142.912 164.597 143.421 164.266 143.421Z" fill="#FF9500" stroke="#FF9500" stroke-width="0.405559"/>
<path d="M164.266 113.054C161.959 113.054 160.083 111.178 160.083 108.871C160.083 106.565 161.959 104.688 164.266 104.688C166.572 104.688 168.447 106.565 168.447 108.871C168.448 111.178 166.572 113.054 164.266 113.054ZM164.266 105.89C162.621 105.89 161.285 107.227 161.285 108.871C161.285 110.515 162.621 111.852 164.266 111.852C165.909 111.852 167.245 110.515 167.245 108.871C167.246 107.227 165.909 105.89 164.266 105.89Z" fill="#FF9500" stroke="#FF9500" stroke-width="0.405559"/>
<path d="M176.669 143.421C176.338 143.421 176.068 142.977 176.068 142.429V133.768C176.068 133.22 176.338 132.775 176.669 132.775C177.001 132.775 177.27 133.22 177.27 133.768V142.429C177.27 142.977 177.002 143.421 176.669 143.421Z" fill="#FF9500" stroke="#FF9500" stroke-width="0.405559"/>
<path d="M176.51 126.692C176.23 126.692 176.003 125.729 176.003 124.542V70.036C176.003 68.8492 176.23 67.886 176.51 67.886C176.79 67.886 177.017 68.8492 177.017 70.036V124.542C177.017 125.733 176.791 126.692 176.51 126.692Z" fill="#FF9500" stroke="#FF9500" stroke-width="0.405559"/>
<path d="M176.669 134.044C174.363 134.044 172.487 132.167 172.487 129.861C172.487 127.554 174.364 125.678 176.669 125.678C178.976 125.678 180.851 127.554 180.851 129.861C180.852 132.167 178.976 134.044 176.669 134.044ZM176.669 126.88C175.025 126.88 173.689 128.217 173.689 129.861C173.689 131.505 175.025 132.842 176.669 132.842C178.312 132.842 179.649 131.505 179.649 129.861C179.65 128.218 178.312 126.88 176.669 126.88Z" fill="#FF9500" stroke="#FF9500" stroke-width="0.405559"/>
<path d="M199.206 144.069H9.40965C9.05794 144.069 8.77658 143.788 8.77658 143.436V40.0828C8.77658 39.7311 9.05794 39.4497 9.40965 39.4497H199.206C199.557 39.4497 199.839 39.7311 199.839 40.0828V143.436C199.839 143.782 199.557 144.069 199.206 144.069ZM10.0427 142.803H198.573V40.71H10.0427V142.803Z" fill="#FF9500" stroke="#FF9500" stroke-width="0.58617"/>
<path d="M135.002 194.802H73.6187L77.376 168.495H131.245L135.002 194.802Z" fill="white"/>
<path d="M135.026 195.435C135.026 195.435 135.008 195.435 135.002 195.435H73.6185C73.4368 195.435 73.261 195.359 73.1437 195.218C73.0265 195.078 72.9679 194.896 72.9972 194.714L76.7545 168.407C76.8014 168.096 77.0652 167.862 77.3817 167.862H131.251C131.567 167.862 131.831 168.096 131.878 168.407L135.612 194.544C135.647 194.62 135.67 194.714 135.67 194.808C135.67 195.154 135.389 195.441 135.037 195.441L135.026 195.435ZM74.3454 194.169H134.275L130.7 169.128H77.9269L74.3513 194.169H74.3454Z" fill="#FF9500" stroke="#FF9500" stroke-width="0.58617"/>
<path d="M118.73 160.353H89.8965C89.5448 160.353 89.2634 160.072 89.2634 159.72C89.2634 159.368 89.5448 159.087 89.8965 159.087H118.73C119.082 159.087 119.363 159.368 119.363 159.72C119.363 160.072 119.082 160.353 118.73 160.353Z" fill="#FF9500"/>
<path d="M104.31 163.401C103.959 163.401 103.677 163.12 103.677 162.768V156.678C103.677 156.326 103.959 156.045 104.31 156.045C104.662 156.045 104.944 156.326 104.944 156.678V162.768C104.944 163.12 104.662 163.401 104.31 163.401Z" fill="#FF9500"/>
<path d="M154.387 204.228C154.387 204.099 154.405 203.976 154.405 203.853C154.405 198.859 150.354 194.808 145.354 194.808H63.2611C58.2669 194.808 54.2106 198.859 54.2106 203.853C54.2106 203.982 54.2282 204.105 54.2341 204.228H154.387Z" fill="white"/>
<path d="M154.387 204.861H54.2339C53.8998 204.861 53.6243 204.603 53.6009 204.269C53.5833 204.052 53.5774 203.952 53.5774 203.853C53.5774 198.519 57.9209 194.175 63.2609 194.175H145.354C150.694 194.175 155.032 198.519 155.032 203.853C155.032 203.947 155.032 204.034 155.02 204.128V204.257C155.002 204.597 154.721 204.867 154.381 204.867L154.387 204.861ZM54.8494 203.595H153.771C153.637 199.07 149.914 195.435 145.36 195.435H63.2668C58.7123 195.435 54.9842 199.075 54.8494 203.595Z" fill="#FF9500" stroke="#FF9500" stroke-width="0.58617"/>
<path d="M75.934 51.4487H20.0016V77.0937H75.934V51.4487Z" fill="white"/>
<path d="M186.773 51.4487H151.251V73.8463H186.773V51.4487Z" fill="white"/>
<path d="M75.934 86.6306H20.0016V94.4326H75.934V86.6306Z" fill="white"/>
<path d="M75.934 102.539H20.0016V110.341H75.934V102.539Z" fill="white"/>
<path d="M63.512 125.337H22.7386C22.4208 125.337 22.1787 125.079 22.1787 124.761V114.666C22.1787 114.349 22.436 114.091 22.7386 114.091H63.512C63.8299 114.091 64.072 114.349 64.072 114.666V124.761C64.072 125.079 63.8147 125.337 63.512 125.337ZM23.2986 124.201H62.9369V115.242H23.2986V124.201Z" fill="#FF9500" stroke="#FF9500" stroke-width="0.227023" stroke-miterlimit="10"/>
<path d="M61.7109 106.948H60.712C60.3942 106.948 60.1369 106.691 60.1369 106.373C60.1369 106.055 60.3942 105.798 60.712 105.798H61.7109C62.0287 105.798 62.2709 106.055 62.2709 106.373C62.2709 106.691 62.0136 106.948 61.7109 106.948Z" fill="#FF9500"/>
<path d="M59.0624 106.948H58.0635C57.7456 106.948 57.5035 106.691 57.5035 106.373C57.5035 106.055 57.7608 105.798 58.0635 105.798H59.0624C59.3802 105.798 59.6223 106.055 59.6223 106.373C59.6223 106.691 59.3651 106.948 59.0624 106.948Z" fill="#FF9500"/>
<path d="M56.429 106.948H55.4301C55.1123 106.948 54.8701 106.691 54.8701 106.373C54.8701 106.055 55.1274 105.798 55.4301 105.798H56.429C56.7468 105.798 56.989 106.055 56.989 106.373C56.989 106.691 56.7317 106.948 56.429 106.948Z" fill="#FF9500"/>
<path d="M53.7804 106.948H52.7663C52.4485 106.948 52.2063 106.691 52.2063 106.373C52.2063 106.055 52.4636 105.798 52.7663 105.798H53.7804C54.0982 105.798 54.3404 106.055 54.3404 106.373C54.3404 106.691 54.0831 106.948 53.7804 106.948Z" fill="#FF9500"/>
<path d="M50.4204 106.948H24.5397C24.2219 106.948 23.9798 106.691 23.9798 106.373C23.9798 106.055 24.237 105.798 24.5397 105.798H50.4204C50.7382 105.798 50.9804 106.055 50.9804 106.373C50.9804 106.691 50.7231 106.948 50.4204 106.948Z" fill="#FF9500"/>
<path d="M61.7109 106.948H60.712C60.3942 106.948 60.1369 106.691 60.1369 106.373C60.1369 106.055 60.3942 105.798 60.712 105.798H61.7109C62.0287 105.798 62.2709 106.055 62.2709 106.373C62.2709 106.691 62.0136 106.948 61.7109 106.948Z" stroke="#FF9500" stroke-width="0.227023" stroke-miterlimit="10"/>
<path d="M59.0624 106.948H58.0635C57.7456 106.948 57.5035 106.691 57.5035 106.373C57.5035 106.055 57.7608 105.798 58.0635 105.798H59.0624C59.3802 105.798 59.6223 106.055 59.6223 106.373C59.6223 106.691 59.3651 106.948 59.0624 106.948Z" stroke="#FF9500" stroke-width="0.227023" stroke-miterlimit="10"/>
<path d="M56.429 106.948H55.4301C55.1123 106.948 54.8701 106.691 54.8701 106.373C54.8701 106.055 55.1274 105.798 55.4301 105.798H56.429C56.7468 105.798 56.989 106.055 56.989 106.373C56.989 106.691 56.7317 106.948 56.429 106.948Z" stroke="#FF9500" stroke-width="0.227023" stroke-miterlimit="10"/>
<path d="M53.7804 106.948H52.7663C52.4485 106.948 52.2063 106.691 52.2063 106.373C52.2063 106.055 52.4636 105.798 52.7663 105.798H53.7804C54.0982 105.798 54.3404 106.055 54.3404 106.373C54.3404 106.691 54.0831 106.948 53.7804 106.948Z" stroke="#FF9500" stroke-width="0.227023" stroke-miterlimit="10"/>
<path d="M50.4204 106.948H24.5397C24.2219 106.948 23.9798 106.691 23.9798 106.373C23.9798 106.055 24.237 105.798 24.5397 105.798H50.4204C50.7382 105.798 50.9804 106.055 50.9804 106.373C50.9804 106.691 50.7231 106.948 50.4204 106.948Z" stroke="#FF9500" stroke-width="0.227023" stroke-miterlimit="10"/>
<path d="M24.5397 98.4505H25.5386C25.8564 98.4505 26.1137 98.1932 26.1137 97.8754C26.1137 97.5576 25.8564 97.3003 25.5386 97.3003H24.5397C24.2219 97.3003 23.9797 97.5576 23.9797 97.8754C23.9797 98.1932 24.237 98.4505 24.5397 98.4505Z" fill="#FF9500"/>
<path d="M27.1882 98.4505H28.1871C28.505 98.4505 28.7471 98.1932 28.7471 97.8754C28.7471 97.5576 28.4898 97.3003 28.1871 97.3003H27.1882C26.8704 97.3003 26.6283 97.5576 26.6283 97.8754C26.6283 98.1932 26.8855 98.4505 27.1882 98.4505Z" fill="#FF9500"/>
<path d="M29.8216 98.4505H30.8205C31.1383 98.4505 31.3805 98.1932 31.3805 97.8754C31.3805 97.5576 31.1232 97.3003 30.8205 97.3003H29.8216C29.5038 97.3003 29.2616 97.5576 29.2616 97.8754C29.2616 98.1932 29.5189 98.4505 29.8216 98.4505Z" fill="#FF9500"/>
<path d="M32.4702 98.4505H33.4843C33.8021 98.4505 34.0443 98.1932 34.0443 97.8754C34.0443 97.5576 33.787 97.3003 33.4843 97.3003H32.4702C32.1524 97.3003 31.9102 97.5576 31.9102 97.8754C31.9102 98.1932 32.1675 98.4505 32.4702 98.4505Z" fill="#FF9500"/>
<path d="M35.8302 98.4505H61.7109C62.0287 98.4505 62.2708 98.1932 62.2708 97.8754C62.2708 97.5576 62.0136 97.3003 61.7109 97.3003H35.8302C35.5124 97.3003 35.2702 97.5576 35.2702 97.8754C35.2702 98.1932 35.5275 98.4505 35.8302 98.4505Z" fill="#FF9500"/>
<path d="M24.5397 98.4505H25.5386C25.8564 98.4505 26.1137 98.1932 26.1137 97.8754C26.1137 97.5576 25.8564 97.3003 25.5386 97.3003H24.5397C24.2219 97.3003 23.9797 97.5576 23.9797 97.8754C23.9797 98.1932 24.237 98.4505 24.5397 98.4505Z" stroke="#FF9500" stroke-width="0.227023" stroke-miterlimit="10"/>
<path d="M27.1882 98.4505H28.1871C28.505 98.4505 28.7471 98.1932 28.7471 97.8754C28.7471 97.5576 28.4898 97.3003 28.1871 97.3003H27.1882C26.8704 97.3003 26.6283 97.5576 26.6283 97.8754C26.6283 98.1932 26.8855 98.4505 27.1882 98.4505Z" stroke="#FF9500" stroke-width="0.227023" stroke-miterlimit="10"/>
<path d="M29.8216 98.4505H30.8205C31.1383 98.4505 31.3805 98.1932 31.3805 97.8754C31.3805 97.5576 31.1232 97.3003 30.8205 97.3003H29.8216C29.5038 97.3003 29.2616 97.5576 29.2616 97.8754C29.2616 98.1932 29.5189 98.4505 29.8216 98.4505Z" stroke="#FF9500" stroke-width="0.227023" stroke-miterlimit="10"/>
<path d="M32.4702 98.4505H33.4843C33.8021 98.4505 34.0443 98.1932 34.0443 97.8754C34.0443 97.5576 33.787 97.3003 33.4843 97.3003H32.4702C32.1524 97.3003 31.9102 97.5576 31.9102 97.8754C31.9102 98.1932 32.1675 98.4505 32.4702 98.4505Z" stroke="#FF9500" stroke-width="0.227023" stroke-miterlimit="10"/>
<path d="M35.8302 98.4505H61.7109C62.0287 98.4505 62.2708 98.1932 62.2708 97.8754C62.2708 97.5576 62.0136 97.3003 61.7109 97.3003H35.8302C35.5124 97.3003 35.2702 97.5576 35.2702 97.8754C35.2702 98.1932 35.5275 98.4505 35.8302 98.4505Z" stroke="#FF9500" stroke-width="0.227023" stroke-miterlimit="10"/>
<path d="M61.7109 89.953H60.712C60.3942 89.953 60.1369 89.6957 60.1369 89.3779C60.1369 89.06 60.3942 88.8027 60.712 88.8027H61.7109C62.0287 88.8027 62.2709 89.06 62.2709 89.3779C62.2709 89.6957 62.0136 89.953 61.7109 89.953Z" fill="#FF9500"/>
<path d="M59.0624 89.953H58.0635C57.7456 89.953 57.5035 89.6957 57.5035 89.3779C57.5035 89.06 57.7608 88.8027 58.0635 88.8027H59.0624C59.3802 88.8027 59.6223 89.06 59.6223 89.3779C59.6223 89.6957 59.3651 89.953 59.0624 89.953Z" fill="#FF9500"/>
<path d="M56.429 89.953H55.4301C55.1123 89.953 54.8701 89.6957 54.8701 89.3779C54.8701 89.06 55.1274 88.8027 55.4301 88.8027H56.429C56.7468 88.8027 56.989 89.06 56.989 89.3779C56.989 89.6957 56.7317 89.953 56.429 89.953Z" fill="#FF9500"/>
<path d="M53.7804 89.953H52.7663C52.4485 89.953 52.2063 89.6957 52.2063 89.3779C52.2063 89.06 52.4636 88.8027 52.7663 88.8027H53.7804C54.0982 88.8027 54.3404 89.06 54.3404 89.3779C54.3404 89.6957 54.0831 89.953 53.7804 89.953Z" fill="#FF9500"/>
<path d="M50.4204 89.953H24.5397C24.2219 89.953 23.9798 89.6957 23.9798 89.3779C23.9798 89.06 24.237 88.8027 24.5397 88.8027H50.4204C50.7382 88.8027 50.9804 89.06 50.9804 89.3779C50.9804 89.6957 50.7231 89.953 50.4204 89.953Z" fill="#FF9500"/>
<path d="M61.7109 89.953H60.712C60.3942 89.953 60.1369 89.6957 60.1369 89.3779C60.1369 89.06 60.3942 88.8027 60.712 88.8027H61.7109C62.0287 88.8027 62.2709 89.06 62.2709 89.3779C62.2709 89.6957 62.0136 89.953 61.7109 89.953Z" stroke="#FF9500" stroke-width="0.227023" stroke-miterlimit="10"/>
<path d="M59.0624 89.953H58.0635C57.7456 89.953 57.5035 89.6957 57.5035 89.3779C57.5035 89.06 57.7608 88.8027 58.0635 88.8027H59.0624C59.3802 88.8027 59.6223 89.06 59.6223 89.3779C59.6223 89.6957 59.3651 89.953 59.0624 89.953Z" stroke="#FF9500" stroke-width="0.227023" stroke-miterlimit="10"/>
<path d="M56.429 89.953H55.4301C55.1123 89.953 54.8701 89.6957 54.8701 89.3779C54.8701 89.06 55.1274 88.8027 55.4301 88.8027H56.429C56.7468 88.8027 56.989 89.06 56.989 89.3779C56.989 89.6957 56.7317 89.953 56.429 89.953Z" stroke="#FF9500" stroke-width="0.227023" stroke-miterlimit="10"/>
<path d="M53.7804 89.953H52.7663C52.4485 89.953 52.2063 89.6957 52.2063 89.3779C52.2063 89.06 52.4636 88.8027 52.7663 88.8027H53.7804C54.0982 88.8027 54.3404 89.06 54.3404 89.3779C54.3404 89.6957 54.0831 89.953 53.7804 89.953Z" stroke="#FF9500" stroke-width="0.227023" stroke-miterlimit="10"/>
<path d="M50.4204 89.953H24.5397C24.2219 89.953 23.9798 89.6957 23.9798 89.3779C23.9798 89.06 24.237 88.8027 24.5397 88.8027H50.4204C50.7382 88.8027 50.9804 89.06 50.9804 89.3779C50.9804 89.6957 50.7231 89.953 50.4204 89.953Z" stroke="#FF9500" stroke-width="0.227023" stroke-miterlimit="10"/>
<path d="M24.5397 81.4554H25.5386C25.8564 81.4554 26.1137 81.1981 26.1137 80.8803C26.1137 80.5625 25.8564 80.3052 25.5386 80.3052H24.5397C24.2219 80.3052 23.9797 80.5625 23.9797 80.8803C23.9797 81.1981 24.237 81.4554 24.5397 81.4554Z" fill="#FF9500"/>
<path d="M27.1882 81.4554H28.1871C28.505 81.4554 28.7471 81.1981 28.7471 80.8803C28.7471 80.5625 28.4898 80.3052 28.1871 80.3052H27.1882C26.8704 80.3052 26.6283 80.5625 26.6283 80.8803C26.6283 81.1981 26.8855 81.4554 27.1882 81.4554Z" fill="#FF9500"/>
<path d="M29.8216 81.4554H30.8205C31.1383 81.4554 31.3805 81.1981 31.3805 80.8803C31.3805 80.5625 31.1232 80.3052 30.8205 80.3052H29.8216C29.5038 80.3052 29.2616 80.5625 29.2616 80.8803C29.2616 81.1981 29.5189 81.4554 29.8216 81.4554Z" fill="#FF9500"/>
<path d="M32.4702 81.4554H33.4843C33.8021 81.4554 34.0443 81.1981 34.0443 80.8803C34.0443 80.5625 33.787 80.3052 33.4843 80.3052H32.4702C32.1524 80.3052 31.9102 80.5625 31.9102 80.8803C31.9102 81.1981 32.1675 81.4554 32.4702 81.4554Z" fill="#FF9500"/>
<path d="M35.8302 81.4554H61.7109C62.0287 81.4554 62.2708 81.1981 62.2708 80.8803C62.2708 80.5625 62.0136 80.3052 61.7109 80.3052H35.8302C35.5124 80.3052 35.2702 80.5625 35.2702 80.8803C35.2702 81.1981 35.5275 81.4554 35.8302 81.4554Z" fill="#FF9500"/>
<path d="M24.5397 81.4554H25.5386C25.8564 81.4554 26.1137 81.1981 26.1137 80.8803C26.1137 80.5625 25.8564 80.3052 25.5386 80.3052H24.5397C24.2219 80.3052 23.9797 80.5625 23.9797 80.8803C23.9797 81.1981 24.237 81.4554 24.5397 81.4554Z" stroke="#FF9500" stroke-width="0.227023" stroke-miterlimit="10"/>
<path d="M27.1882 81.4554H28.1871C28.505 81.4554 28.7471 81.1981 28.7471 80.8803C28.7471 80.5625 28.4898 80.3052 28.1871 80.3052H27.1882C26.8704 80.3052 26.6283 80.5625 26.6283 80.8803C26.6283 81.1981 26.8855 81.4554 27.1882 81.4554Z" stroke="#FF9500" stroke-width="0.227023" stroke-miterlimit="10"/>
<path d="M29.8216 81.4554H30.8205C31.1383 81.4554 31.3805 81.1981 31.3805 80.8803C31.3805 80.5625 31.1232 80.3052 30.8205 80.3052H29.8216C29.5038 80.3052 29.2616 80.5625 29.2616 80.8803C29.2616 81.1981 29.5189 81.4554 29.8216 81.4554Z" stroke="#FF9500" stroke-width="0.227023" stroke-miterlimit="10"/>
<path d="M32.4702 81.4554H33.4843C33.8021 81.4554 34.0443 81.1981 34.0443 80.8803C34.0443 80.5625 33.787 80.3052 33.4843 80.3052H32.4702C32.1524 80.3052 31.9102 80.5625 31.9102 80.8803C31.9102 81.1981 32.1675 81.4554 32.4702 81.4554Z" stroke="#FF9500" stroke-width="0.227023" stroke-miterlimit="10"/>
<path d="M35.8302 81.4554H61.7109C62.0287 81.4554 62.2708 81.1981 62.2708 80.8803C62.2708 80.5625 62.0136 80.3052 61.7109 80.3052H35.8302C35.5124 80.3052 35.2702 80.5625 35.2702 80.8803C35.2702 81.1981 35.5275 81.4554 35.8302 81.4554Z" stroke="#FF9500" stroke-width="0.227023" stroke-miterlimit="10"/>
<path d="M25.5387 120.403H24.5397C24.2219 120.403 23.9798 120.146 23.9798 119.828C23.9798 119.51 24.237 119.253 24.5397 119.253H25.5387C25.8565 119.253 26.0986 119.51 26.0986 119.828C26.0986 120.146 25.8413 120.403 25.5387 120.403Z" fill="#FF9500" stroke="#FF9500" stroke-width="0.227023" stroke-miterlimit="10"/>
<path d="M28.1719 120.403H27.173C26.8552 120.403 26.613 120.146 26.613 119.828C26.613 119.51 26.8703 119.253 27.173 119.253H28.1719C28.4897 119.253 28.7319 119.51 28.7319 119.828C28.7319 120.146 28.4746 120.403 28.1719 120.403Z" fill="#FF9500" stroke="#FF9500" stroke-width="0.227023" stroke-miterlimit="10"/>
<path d="M30.8206 120.403H29.8217C29.5039 120.403 29.2617 120.146 29.2617 119.828C29.2617 119.51 29.519 119.253 29.8217 119.253H30.8206C31.1384 119.253 31.3806 119.51 31.3806 119.828C31.3806 120.146 31.1233 120.403 30.8206 120.403Z" fill="#FF9500" stroke="#FF9500" stroke-width="0.227023" stroke-miterlimit="10"/>
<path d="M33.4692 120.403H32.4703C32.1525 120.403 31.8952 120.146 31.8952 119.828C31.8952 119.51 32.1525 119.253 32.4703 119.253H33.4692C33.787 119.253 34.0443 119.51 34.0443 119.828C34.0443 120.146 33.787 120.403 33.4692 120.403Z" fill="#FF9500" stroke="#FF9500" stroke-width="0.227023" stroke-miterlimit="10"/>
<path d="M61.7109 120.388H35.8302C35.5124 120.388 35.2702 120.13 35.2702 119.812C35.2702 119.495 35.5275 119.237 35.8302 119.237H61.7109C62.0287 119.237 62.2709 119.495 62.2709 119.812C62.2709 120.13 62.0136 120.388 61.7109 120.388Z" fill="#FF9500" stroke="#FF9500" stroke-width="0.227023" stroke-miterlimit="10"/>
<path d="M61.711 133.691H60.7121C60.3942 133.691 60.1521 133.434 60.1521 133.116C60.1521 132.798 60.4094 132.541 60.7121 132.541H61.711C62.0288 132.541 62.2709 132.798 62.2709 133.116C62.2709 133.434 62.0137 133.691 61.711 133.691Z" fill="#FF9500" stroke="#FF9500" stroke-width="0.227023" stroke-miterlimit="10"/>
<path d="M59.0624 133.691H58.0635C57.7456 133.691 57.4884 133.434 57.4884 133.116C57.4884 132.798 57.7456 132.541 58.0635 132.541H59.0624C59.3802 132.541 59.6224 132.798 59.6224 133.116C59.6224 133.434 59.3651 133.691 59.0624 133.691Z" fill="#FF9500" stroke="#FF9500" stroke-width="0.227023" stroke-miterlimit="10"/>
<path d="M56.429 133.691H55.4302C55.1123 133.691 54.8701 133.434 54.8701 133.116C54.8701 132.798 55.1275 132.541 55.4302 132.541H56.429C56.7469 132.541 56.989 132.798 56.989 133.116C56.989 133.434 56.7317 133.691 56.429 133.691Z" fill="#FF9500" stroke="#FF9500" stroke-width="0.227023" stroke-miterlimit="10"/>
<path d="M53.7802 133.691H52.7814C52.4635 133.691 52.2213 133.434 52.2213 133.116C52.2213 132.798 52.4787 132.541 52.7814 132.541H53.7802C54.0981 132.541 54.3402 132.798 54.3402 133.116C54.3402 133.434 54.0829 133.691 53.7802 133.691Z" fill="#FF9500" stroke="#FF9500" stroke-width="0.227023" stroke-miterlimit="10"/>
<path d="M50.4204 133.691H24.5397C24.2219 133.691 23.9798 133.434 23.9798 133.116C23.9798 132.798 24.237 132.541 24.5397 132.541H50.4204C50.7382 132.541 50.9804 132.798 50.9804 133.116C50.9804 133.434 50.7231 133.691 50.4204 133.691Z" fill="#FF9500" stroke="#FF9500" stroke-width="0.227023" stroke-miterlimit="10"/>
<path d="M106.925 83.666L106.036 78.7831L100.619 78.5572C100.211 77.4634 99.7191 76.4173 99.1457 75.429L102.401 71.1028L99.1895 67.3188L94.3849 69.8319C93.4941 69.0994 92.5442 68.4423 91.5446 67.8671L92.2021 62.4849L87.5287 60.8137L84.6285 65.3859C83.5015 65.198 82.3489 65.1064 81.1814 65.1099L79.0602 60.1211L74.1773 61.0105L73.9515 66.4269C72.8578 66.8351 71.8118 67.3274 70.8232 67.9005L66.497 64.6447L62.7131 67.8566L65.2261 72.6614C64.4937 73.5522 63.8364 74.5021 63.261 75.5016L57.879 74.8441L56.2078 79.5176L60.7799 82.4178C60.5919 83.5448 60.5004 84.6972 60.5039 85.865L55.5151 87.9861L56.4046 92.869L61.8209 93.0949C62.2293 94.1887 62.7213 95.2348 63.2947 96.2233L60.0389 100.549L63.2508 104.333L68.0557 101.82C68.9463 102.553 69.8964 103.21 70.8958 103.785L70.2385 109.167L74.9119 110.838L77.8121 106.266C78.9391 106.454 80.0916 106.546 81.259 106.542L83.3804 111.531L88.2632 110.642L88.4889 105.225C89.5828 104.817 90.6288 104.325 91.6173 103.752L95.9435 107.007L99.7275 103.796L97.2145 98.9908C97.9471 98.1 98.604 97.15 99.1794 96.1505L104.562 96.8078L106.233 92.1342L101.661 89.2342C101.849 88.1072 101.94 86.9547 101.937 85.7873L106.925 83.666ZM83.5099 98.3961C76.5677 99.6608 69.9145 95.058 68.65 88.1158C67.3853 81.1736 71.9881 74.5205 78.9303 73.256C85.8727 71.9912 92.5257 76.594 93.7902 83.5362C95.0549 90.4785 90.4523 97.1316 83.5099 98.3961Z" fill="white" stroke="#FF9500" stroke-width="2" stroke-linejoin="round"/>
<path d="M191.733 42.1572L190.211 33.8014L180.943 33.4151C180.244 31.5434 179.402 29.7532 178.421 28.0619L183.992 20.659L178.496 14.1839L170.275 18.4842C168.75 17.2308 167.125 16.1063 165.414 15.1219L166.539 5.91165L158.542 3.05182L153.579 10.8755C151.651 10.554 149.678 10.397 147.681 10.4033L144.051 1.8667L135.695 3.38887L135.309 12.6571C133.437 13.3557 131.647 14.1979 129.956 15.1789L122.553 9.60765L116.078 15.1038L120.378 23.3257C119.124 24.85 118 26.4756 117.015 28.1858L107.806 27.0609L104.946 35.0581L112.77 40.021C112.448 41.9496 112.291 43.9216 112.297 45.9195L103.761 49.5492L105.283 57.9049L114.551 58.2913C115.25 60.163 116.092 61.9532 117.073 63.6445L111.502 71.0472L116.998 77.5225L125.219 73.2222C126.743 74.4756 128.369 75.6002 130.079 76.5847L128.955 85.7945L136.952 88.6541L141.915 80.8303C143.843 81.1521 145.815 81.3088 147.813 81.3027L151.443 89.8393L159.799 88.3171L160.185 79.0489C162.057 78.3501 163.847 77.5082 165.538 76.5269L172.941 82.0981L179.416 76.6022L175.116 68.3807C176.369 66.8563 177.494 65.2306 178.478 63.5204L187.688 64.6453L190.548 56.648L182.724 51.6852C183.046 49.7567 183.203 47.7846 183.196 45.7867L191.733 42.1572ZM151.665 67.3633C139.786 69.5274 128.401 61.6512 126.237 49.7717C124.073 37.892 131.949 26.5075 143.829 24.3435C155.708 22.1794 167.093 30.0555 169.257 41.935C171.421 53.8147 163.545 65.1992 151.665 67.3633Z" fill="#FF9500" stroke="#FF9500" stroke-width="2" stroke-linejoin="round"/>
</svg>
