<svg width="210" height="197" viewBox="0 0 210 197" fill="none" xmlns="http://www.w3.org/2000/svg">
<path d="M178.106 150.134V57.9024C178.106 52.4026 173.649 47.9451 168.149 47.9451H11.7416C6.24181 47.9451 1.7843 52.4026 1.7843 57.9024V150.134H178.106Z" fill="white"/>
<path d="M178.106 150.68H1.78423C1.48065 150.68 1.23779 150.438 1.23779 150.134V57.9024C1.23779 52.1092 5.94828 47.3987 11.7415 47.3987H168.149C173.942 47.3987 178.653 52.1092 178.653 57.9024V150.134C178.653 150.438 178.41 150.68 178.106 150.68ZM2.33067 149.588H177.565V57.9024C177.565 52.7113 173.34 48.4916 168.154 48.4916H11.7415C6.55037 48.4916 2.32561 52.7163 2.32561 57.9024V149.588H2.33067Z" fill="#FF9500" stroke="#FF9500" stroke-width="0.58617"/>
<path d="M178.349 150.134H1.54645V165.272H178.349V150.134Z" fill="white"/>
<path d="M178.349 165.819H1.54644C1.24286 165.819 1 165.576 1 165.272V150.134C1 149.831 1.24286 149.588 1.54644 149.588H178.349C178.653 149.588 178.896 149.831 178.896 150.134V165.272C178.896 165.576 178.653 165.819 178.349 165.819ZM2.09288 164.726H177.803V150.675H2.09288V164.726Z" fill="#FF9500" stroke="#FF9500" stroke-width="0.58617"/>
<path d="M171.858 54.4316H8.03284V143.643H171.858V54.4316Z" fill="white"/>
<path d="M172.45 144.867H7.55002C7.24446 144.867 7 144.622 7 144.316V54.4174C7 54.1114 7.24446 53.8667 7.55002 53.8667H172.45C172.756 53.8667 173 54.1114 173 54.4174V144.316C173 144.617 172.756 144.867 172.45 144.867ZM8.10004 143.765H171.9V54.9629H8.10004V143.765Z" fill="#FF9500" stroke="#FF9500" stroke-width="0.4"/>
<path d="M116.44 187.979H63.4558L66.699 165.272H113.197L116.44 187.979Z" fill="white"/>
<path d="M116.46 188.526C116.46 188.526 116.445 188.526 116.44 188.526H63.4557C63.2989 188.526 63.1471 188.46 63.0459 188.339C62.9447 188.217 62.8941 188.06 62.9194 187.904L66.1626 165.196C66.2031 164.928 66.4308 164.726 66.704 164.726H113.202C113.475 164.726 113.703 164.928 113.743 165.196L116.966 187.757C116.996 187.823 117.017 187.904 117.017 187.985C117.017 188.283 116.774 188.531 116.47 188.531L116.46 188.526ZM64.0831 187.433H115.813L112.726 165.818H67.1745L64.0882 187.433H64.0831Z" fill="#FF9500" stroke="#FF9500" stroke-width="0.58617"/>
<path d="M102.394 158.244H77.5062C77.2026 158.244 76.9597 158.002 76.9597 157.698C76.9597 157.394 77.2026 157.152 77.5062 157.152H102.394C102.698 157.152 102.941 157.394 102.941 157.698C102.941 158.002 102.698 158.244 102.394 158.244Z" fill="#FF9500" stroke="#FF9500" stroke-width="0.58617"/>
<path d="M133.172 196.116C133.172 196.004 133.187 195.898 133.187 195.792C133.187 191.481 129.691 187.985 125.375 187.985H54.5155C50.2047 187.985 46.7035 191.481 46.7035 195.792C46.7035 195.903 46.7187 196.009 46.7237 196.116H133.172Z" fill="white"/>
<path d="M133.172 196.662H46.7236C46.4352 196.662 46.1974 196.439 46.1771 196.151C46.162 195.964 46.1569 195.878 46.1569 195.792C46.1569 191.187 49.9061 187.438 54.5154 187.438H125.375C129.984 187.438 133.729 191.187 133.729 195.792C133.729 195.873 133.729 195.948 133.718 196.029V196.141C133.703 196.434 133.46 196.667 133.167 196.667L133.172 196.662ZM47.2548 195.569H132.641C132.524 191.663 129.312 188.526 125.38 188.526H54.5204C50.5891 188.526 47.3712 191.668 47.2548 195.569Z" fill="#FF9500" stroke="#FF9500" stroke-width="0.58617"/>
<path d="M65.4543 64.2424H17.1755V86.3782H65.4543V64.2424Z" fill="white"/>
<path d="M161.126 64.2424H130.465V83.5752H161.126V64.2424Z" fill="white"/>
<path d="M65.4543 94.6099H17.1755V101.344H65.4543V94.6099Z" fill="white"/>
<path d="M65.4543 108.342H17.1755V115.076H65.4543V108.342Z" fill="white"/>
<path d="M118.493 112.027C118.493 110.247 118.953 108.498 119.829 106.948C120.705 105.399 121.966 104.102 123.491 103.184C125.016 102.266 126.752 101.758 128.53 101.709C130.309 101.659 132.071 102.071 133.644 102.903C135.217 103.735 136.549 104.959 137.509 106.458C138.469 107.956 139.026 109.677 139.125 111.454C139.224 113.231 138.862 115.003 138.074 116.599C137.286 118.195 136.099 119.56 134.628 120.562C137.796 121.724 140.543 123.807 142.517 126.543C144.491 129.28 145.6 132.544 145.703 135.916C145.699 136.28 145.554 136.628 145.299 136.887C145.045 137.147 144.699 137.298 144.336 137.309C143.972 137.319 143.619 137.189 143.349 136.946C143.079 136.702 142.914 136.364 142.888 136.001C142.776 132.343 141.244 128.873 138.617 126.325C135.991 123.777 132.475 122.353 128.816 122.353C125.156 122.353 121.641 123.777 119.014 126.325C116.387 128.873 114.856 132.343 114.744 136.001C114.725 136.368 114.563 136.714 114.293 136.964C114.022 137.213 113.665 137.347 113.297 137.336C112.929 137.325 112.58 137.171 112.324 136.906C112.069 136.641 111.928 136.286 111.93 135.918C112.033 132.546 113.142 129.281 115.116 126.544C117.09 123.807 119.837 121.724 123.005 120.562C121.614 119.615 120.475 118.342 119.689 116.855C118.902 115.367 118.492 113.709 118.493 112.027ZM128.817 104.518C126.825 104.518 124.916 105.309 123.508 106.717C122.099 108.125 121.308 110.035 121.308 112.027C121.308 114.018 122.099 115.928 123.508 117.336C124.916 118.744 126.825 119.535 128.817 119.535C130.808 119.535 132.718 118.744 134.126 117.336C135.534 115.928 136.325 114.018 136.325 112.027C136.325 110.035 135.534 108.125 134.126 106.717C132.718 105.309 130.808 104.518 128.817 104.518Z" fill="#FF9500"/>
<path d="M39.0817 112.027C39.0821 110.247 39.5425 108.498 40.4182 106.948C41.294 105.399 42.5553 104.102 44.0799 103.184C45.6045 102.266 47.3405 101.758 49.1195 101.709C50.8984 101.659 52.66 102.071 54.2331 102.903C55.8062 103.735 57.1375 104.959 58.0978 106.458C59.0581 107.956 59.6148 109.677 59.7138 111.454C59.8129 113.231 59.4509 115.003 58.663 116.599C57.8752 118.195 56.6882 119.56 55.2173 120.562C58.3849 121.724 61.1323 123.807 63.1061 126.543C65.0798 129.28 66.1894 132.544 66.2922 135.916C66.2878 136.28 66.1431 136.628 65.8883 136.887C65.6335 137.147 65.2883 137.298 64.9248 137.309C64.5614 137.319 64.2078 137.189 63.9379 136.946C63.668 136.702 63.5027 136.364 63.4765 136.001C63.3647 132.343 61.8332 128.873 59.2064 126.325C56.5797 123.777 53.0641 122.353 49.4048 122.353C45.7455 122.353 42.2299 123.777 39.6032 126.325C36.9764 128.873 35.4449 132.343 35.3331 136.001C35.3143 136.368 35.1523 136.714 34.8818 136.964C34.6112 137.213 34.2537 137.347 33.8858 137.336C33.5179 137.325 33.1688 137.171 32.9134 136.906C32.658 136.641 32.5165 136.286 32.5193 135.918C32.6217 132.546 33.7312 129.281 35.7049 126.544C37.6787 123.807 40.4263 121.724 43.5942 120.562C42.203 119.615 41.0645 118.342 40.2779 116.855C39.4914 115.367 39.0807 113.709 39.0817 112.027ZM49.4058 104.518C47.4144 104.518 45.5046 105.309 44.0965 106.717C42.6884 108.125 41.8973 110.035 41.8973 112.027C41.8973 114.018 42.6884 115.928 44.0965 117.336C45.5046 118.744 47.4144 119.535 49.4058 119.535C51.3971 119.535 53.3069 118.744 54.715 117.336C56.1231 115.928 56.9142 114.018 56.9142 112.027C56.9142 110.035 56.1231 108.125 54.715 106.717C53.3069 105.309 51.3971 104.518 49.4058 104.518Z" fill="#FF9500"/>
<path d="M158.865 135.631L147.413 135.631C146.886 135.631 146.459 136.058 146.459 136.585C146.459 137.112 146.886 137.54 147.413 137.54L158.865 137.54C159.392 137.54 159.82 137.112 159.82 136.585C159.82 136.058 159.394 135.631 158.865 135.631ZM135.961 135.631L124.509 135.631C123.982 135.631 123.555 136.058 123.555 136.585C123.555 137.112 123.982 137.54 124.509 137.54L135.961 137.54C136.488 137.54 136.915 137.112 136.915 136.585C136.915 136.058 136.49 135.631 135.961 135.631ZM113.057 135.631L101.605 135.631C101.078 135.631 100.65 136.058 100.65 136.585C100.65 137.112 101.078 137.54 101.605 137.54L113.057 137.54C113.584 137.54 114.011 137.112 114.011 136.585C114.011 136.058 113.586 135.631 113.057 135.631Z" fill="#FF9500" stroke="#FF9500" stroke-width="0.519012"/>
<path d="M20.9087 25.6055V37.0577C20.9087 37.5845 20.4812 38.012 19.9544 38.012C19.4276 38.012 19.0001 37.5845 19.0001 37.0577V25.6055C19.0001 25.0788 19.4276 24.6512 19.9544 24.6512C20.4812 24.6512 20.9087 25.0768 20.9087 25.6055ZM20.9087 48.5098L20.9087 59.9619C20.9087 60.4887 20.4812 60.9163 19.9544 60.9163C19.4276 60.9163 19.0001 60.4887 19.0001 59.9619L19.0001 48.5098C19.0001 47.983 19.4276 47.5555 19.9544 47.5555C20.4812 47.5555 20.9087 47.9811 20.9087 48.5098ZM20.9087 71.4141V82.8662C20.9087 83.393 20.4812 83.8206 19.9544 83.8206C19.4276 83.8206 19.0001 83.393 19.0001 82.8662V71.4141C19.0001 70.8873 19.4276 70.4597 19.9544 70.4597C20.4812 70.4597 20.9087 70.8854 20.9087 71.4141Z" fill="#FF9500" stroke="#FF9500" stroke-width="0.519012"/>
<path d="M20.9087 91.8211L20.9087 103.273C20.9087 103.8 20.4812 104.228 19.9544 104.228C19.4276 104.228 19.0001 103.8 19.0001 103.273L19.0001 91.8211C19.0001 91.2943 19.4276 90.8667 19.9544 90.8667C20.4812 90.8667 20.9087 91.2924 20.9087 91.8211ZM20.9087 114.725V126.177C20.9087 126.704 20.4812 127.132 19.9544 127.132C19.4276 127.132 19.0001 126.704 19.0001 126.177V114.725C19.0001 114.199 19.4276 113.771 19.9544 113.771C20.4812 113.771 20.9087 114.197 20.9087 114.725Z" fill="#FF9500" stroke="#FF9500" stroke-width="0.519012"/>
<path d="M20.9087 124.821V136.273C20.9087 136.8 20.4812 137.228 19.9544 137.228C19.4276 137.228 19.0001 136.8 19.0001 136.273V124.821C19.0001 124.294 19.4276 123.867 19.9544 123.867C20.4812 123.867 20.9087 124.292 20.9087 124.821Z" fill="#FF9500" stroke="#FF9500" stroke-width="0.519012"/>
<path d="M119.42 25.6013H107.968C107.442 25.6013 107.014 25.1738 107.014 24.647C107.014 24.1202 107.442 23.6926 107.968 23.6926H119.42C119.947 23.6926 120.375 24.1202 120.375 24.647C120.375 25.1738 119.949 25.6013 119.42 25.6013ZM96.5162 25.6013H85.0641C84.5373 25.6013 84.1097 25.1738 84.1097 24.647C84.1097 24.1202 84.5373 23.6926 85.0641 23.6926H96.5162C97.043 23.6926 97.4705 24.1202 97.4705 24.647C97.4705 25.1738 97.0449 25.6013 96.5162 25.6013ZM73.6119 25.6013H62.1598C61.633 25.6013 61.2054 25.1738 61.2054 24.647C61.2054 24.1202 61.633 23.6926 62.1598 23.6926H73.6119C74.1387 23.6926 74.5663 24.1202 74.5663 24.647C74.5663 25.1738 74.1406 25.6013 73.6119 25.6013Z" fill="#FF9500" stroke="#FF9500" stroke-width="0.519012"/>
<path d="M123.154 30.9608C122.875 30.9608 122.595 30.8387 122.406 30.602C122.077 30.1897 122.146 29.5885 122.558 29.2602L128.376 24.6316L122.827 20.0221C122.421 19.6843 122.366 19.0831 122.703 18.6784C123.041 18.2719 123.648 18.2184 124.047 18.5544L130.499 23.9139C130.72 24.0972 130.848 24.372 130.844 24.6583C130.84 24.9446 130.709 25.2157 130.483 25.3951L123.749 30.7547C123.574 30.894 123.364 30.9608 123.154 30.9608Z" fill="#FF9500" stroke="#FF9500" stroke-width="0.519012"/>
<path d="M77.2151 25.6013H65.7629C65.2361 25.6013 64.8086 25.1738 64.8086 24.647C64.8086 24.1202 65.2361 23.6926 65.7629 23.6926H77.2151C77.7419 23.6926 78.1694 24.1202 78.1694 24.647C78.1694 25.1738 77.7438 25.6013 77.2151 25.6013ZM54.3108 25.6013H42.8587C42.3319 25.6013 41.9043 25.1738 41.9043 24.647C41.9043 24.1202 42.3319 23.6926 42.8587 23.6926H54.3108C54.8376 23.6926 55.2651 24.1202 55.2651 24.647C55.2651 25.1738 54.8395 25.6013 54.3108 25.6013ZM31.4065 25.6013H19.9544C19.4276 25.6013 19.0001 25.1738 19.0001 24.647C19.0001 24.1202 19.4276 23.6926 19.9544 23.6926H31.4065C31.9333 23.6926 32.3609 24.1202 32.3609 24.647C32.3609 25.1738 31.9352 25.6013 31.4065 25.6013Z" fill="#FF9500" stroke="#FF9500" stroke-width="0.519012"/>
<path d="M93.4065 137.539H81.9543C81.4275 137.539 81 137.112 81 136.585C81 136.058 81.4275 135.631 81.9543 135.631H93.4065C93.9333 135.631 94.3608 136.058 94.3608 136.585C94.3608 137.112 93.9352 137.539 93.4065 137.539Z" fill="#FF9500" stroke="#FF9500" stroke-width="0.519012"/>
<path d="M82.2151 137.54H70.7629C70.2361 137.54 69.8086 137.112 69.8086 136.585C69.8086 136.058 70.2361 135.631 70.7629 135.631H82.2151C82.7419 135.631 83.1694 136.058 83.1694 136.585C83.1694 137.112 82.7438 137.54 82.2151 137.54ZM59.3108 137.54H47.8587C47.3319 137.54 46.9043 137.112 46.9043 136.585C46.9043 136.058 47.3319 135.631 47.8587 135.631H59.3108C59.8376 135.631 60.2651 136.058 60.2651 136.585C60.2651 137.112 59.8395 137.54 59.3108 137.54ZM36.4065 137.54H24.9544C24.4276 137.54 24.0001 137.112 24.0001 136.585C24.0001 136.058 24.4276 135.631 24.9544 135.631H36.4065C36.9333 135.631 37.3609 136.058 37.3609 136.585C37.3609 137.112 36.9352 137.54 36.4065 137.54Z" fill="#FF9500" stroke="#FF9500" stroke-width="0.519012"/>
<path d="M158.949 79.5448L158.949 90.9969C158.949 91.5237 159.377 91.9512 159.904 91.9512C160.43 91.9512 160.858 91.5237 160.858 90.9969L160.858 79.5448C160.858 79.018 160.43 78.5904 159.904 78.5904C159.377 78.5904 158.949 79.016 158.949 79.5448ZM158.949 102.449L158.949 113.901C158.949 114.428 159.377 114.856 159.904 114.856C160.43 114.856 160.858 114.428 160.858 113.901L160.858 102.449C160.858 101.922 160.43 101.495 159.904 101.495C159.377 101.495 158.949 101.92 158.949 102.449ZM158.949 125.353L158.949 136.805C158.949 137.332 159.377 137.76 159.904 137.76C160.43 137.76 160.858 137.332 160.858 136.805L160.858 125.353C160.858 124.826 160.43 124.399 159.904 124.399C159.377 124.399 158.949 124.825 158.949 125.353Z" fill="#FF9500" stroke="#FF9500" stroke-width="0.519012"/>
<path d="M153.59 76.8113C153.59 77.09 153.712 77.3706 153.948 77.5596C154.361 77.8878 154.962 77.8191 155.29 77.4068L159.919 71.5891L164.528 77.1377C164.866 77.5443 165.467 77.5996 165.872 77.2618C166.279 76.9239 166.332 76.317 165.996 75.918L160.636 69.4667C160.453 69.2453 160.178 69.1174 159.892 69.1212C159.606 69.125 159.335 69.2567 159.155 69.4819L153.796 76.2158C153.656 76.3914 153.59 76.6014 153.59 76.8113Z" fill="#FF9500" stroke="#FF9500" stroke-width="0.519012"/>
<path d="M121.369 75.9427C121.369 74.7962 120.439 73.8667 119.293 73.8667H86.0761C84.9295 73.8667 84 74.7962 84 75.9427V95.6652C84 96.8118 84.9295 97.7413 86.0761 97.7413H119.293C120.439 97.7413 121.369 96.8118 121.369 95.6652V75.9427Z" fill="white" stroke="#FF9500" stroke-width="2.07605" stroke-linecap="round"/>
<path d="M108.913 84.2471L97.4943 84.2471M112.027 84.2471L115.141 84.2471" stroke="#FF9500" stroke-width="1.45323" stroke-linecap="round"/>
<path d="M97.4944 90.4751H103.723" stroke="#FF9500" stroke-width="1.45323" stroke-linecap="round"/>
<path d="M116.179 106.046V96.7034H107.875L116.179 106.046Z" fill="white"/>
<path d="M116.179 97.7415V106.046L108.394 97.7415" stroke="#FF9500" stroke-width="2.07605" stroke-linecap="round" stroke-linejoin="round"/>
<path d="M49 60.8667H93.6351V89.3835H49V60.8667Z" fill="white"/>
<path d="M49 63.3464C49 61.9769 50.1102 60.8667 51.4797 60.8667H91.1553C92.5248 60.8667 93.6351 61.9769 93.6351 63.3464V86.9038C93.6351 88.2733 92.5248 89.3835 91.1553 89.3835H51.4797C50.1102 89.3835 49 88.2733 49 86.9038V63.3464Z" fill="#FF9500" stroke="#FF9500" stroke-width="2.47972" stroke-linecap="round"/>
<path d="M71.3176 68.3059L86.1959 68.3059M60.1588 68.3059L56.4392 68.3059M67.598 68.3059L63.8784 68.3059" stroke="white" stroke-width="1.85979" stroke-linecap="round"/>
<path d="M71.3176 75.7449L56.4392 75.7449M82.4763 75.7449L86.1959 75.7449M75.0372 75.7449L78.7567 75.7449" stroke="white" stroke-width="1.85979" stroke-linecap="round"/>
<path d="M66.978 83.1843H56.4392" stroke="white" stroke-width="1.85979" stroke-linecap="round"/>
<path d="M55.1993 99.3026V88.1438H65.1182L55.1993 99.3026Z" fill="#FF9500"/>
<path d="M55.1993 89.3835V99.3024L64.4983 89.3835" stroke="#FF9500" stroke-width="2.47972" stroke-linecap="round" stroke-linejoin="round"/>
<circle cx="164.176" cy="35.3088" r="27.176" fill="white" stroke="white" stroke-width="5.78213" stroke-linecap="round"/>
<circle cx="164.176" cy="35.3088" r="29.176" fill="white" stroke="#FF9500" stroke-width="4" stroke-linecap="round"/>
<circle cx="164.385" cy="34.4802" r="19.081" fill="white" stroke="#FF9500" stroke-width="4" stroke-linecap="round"/>
<circle cx="164.358" cy="35.4906" r="8.67319" fill="white" stroke="#FF9500" stroke-width="3" stroke-linecap="round"/>
<path d="M165.317 34.4565L193.735 14.5576" stroke="white" stroke-width="5.78213" stroke-linecap="round"/>
<path d="M165.317 34.4565L193.735 14.5576" stroke="#FF9500" stroke-width="3" stroke-linecap="round"/>
<path d="M190.05 10.8598C189.986 10.4265 190.172 9.99409 190.53 9.74285L201.674 1.93985C202.378 1.44676 203.355 1.86714 203.482 2.7175L204.155 7.2613L208.195 9.44853C208.951 9.85787 209.011 10.9196 208.307 11.4127L197.163 19.2157C196.805 19.467 196.335 19.4939 195.95 19.2854L190.893 16.5475L190.05 10.8598Z" fill="#FF9500"/>
<circle cx="164.225" cy="35.3583" r="2.31285" fill="#FF9500"/>
</svg>
