<svg width="16" height="17" viewBox="0 0 16 17" fill="none" xmlns="http://www.w3.org/2000/svg">
<path d="M13.5 0.866699C12.6716 0.866699 12 1.53827 12 2.3667V15.3667C12 16.1951 12.6716 16.8667 13.5 16.8667H14.5C15.3284 16.8667 16 16.1951 16 15.3667V2.3667C16 1.53827 15.3284 0.866699 14.5 0.866699H13.5Z" fill="#98989A"/>
<path d="M7.5 4.8667C6.67157 4.8667 6 5.53827 6 6.3667V15.3667C6 16.1951 6.67157 16.8667 7.5 16.8667H8.5C9.32843 16.8667 10 16.1951 10 15.3667V6.3667C10 5.53827 9.32843 4.8667 8.5 4.8667H7.5Z" fill="#98989A"/>
<path d="M1.5 8.8667C0.671573 8.8667 0 9.53827 0 10.3667V15.3667C0 16.1951 0.671573 16.8667 1.5 16.8667H2.5C3.32843 16.8667 4 16.1951 4 15.3667V10.3667C4 9.53827 3.32843 8.8667 2.5 8.8667H1.5Z" fill="#98989A"/>
</svg>
