<svg width="204" height="201" viewBox="0 0 204 201" fill="none" xmlns="http://www.w3.org/2000/svg">
<path d="M160.412 85.5879H155.883C155.376 85.5879 154.964 85.1761 154.964 84.6686C154.964 84.1611 155.376 83.7492 155.883 83.7492H160.412C162.545 83.7492 164.281 82.0134 164.281 79.8804V28.5971C164.281 26.4641 162.545 24.7283 160.412 24.7283H131.459C130.115 24.7283 128.894 25.3976 128.199 26.5174L121.537 36.5957C121.257 37.0186 120.686 37.1327 120.264 36.855C119.842 36.5755 119.724 36.0055 120.003 35.5807L126.65 25.5227C127.673 23.8806 129.475 22.8877 131.459 22.8877H160.412C163.56 22.8877 166.12 25.4491 166.12 28.5952V79.8786C166.12 83.0284 163.558 85.5879 160.412 85.5879Z" fill="#FF9500" stroke="#FF9500" stroke-width="2"/>
<path d="M76.5404 33.1813H41.7398C40.2301 33.1813 39 31.9511 39 30.4415V3.60647C39 2.095 40.2301 0.866699 41.7398 0.866699H61.5157C62.4682 0.866699 63.3361 1.34846 63.8418 2.15752L67.3483 7.79519C67.5138 8.05997 67.8007 8.21994 68.1133 8.21994H80.4184C81.928 8.21994 83.1581 9.45008 83.1581 10.9616V25.9917C83.1581 26.4992 82.7462 26.911 82.2387 26.911C81.7312 26.911 81.3193 26.4992 81.3193 25.9917V10.9616C81.3193 10.4632 80.9148 10.0587 80.4184 10.0587H68.1133C67.1608 10.0587 66.2929 9.57696 65.7872 8.7679L62.2807 3.13023C62.1152 2.86545 61.8283 2.70547 61.5157 2.70547H41.7398C41.2414 2.70547 40.8388 3.11 40.8388 3.60647V30.4415C40.8388 30.9398 41.2433 31.3425 41.7398 31.3425H76.5404C77.0479 31.3425 77.4598 31.7544 77.4598 32.2619C77.4598 32.7694 77.0497 33.1813 76.5404 33.1813Z" fill="#FF9500" stroke="#FF9500" stroke-width="0.620449"/>
<path d="M61.0802 60.3362C60.5727 60.3362 60.1608 59.9243 60.1608 59.4168V32.8852C60.1608 32.3777 60.5727 31.9658 61.0802 31.9658C61.5877 31.9658 61.9996 32.3777 61.9996 32.8852V59.4168C61.9996 59.9243 61.5877 60.3362 61.0802 60.3362Z" fill="#FF9500" stroke="#FF9500" stroke-width="0.620449"/>
<path d="M77.6475 66.1779H66.9201C66.4126 66.1779 66.0007 65.766 66.0007 65.2585C66.0007 64.751 66.4126 64.3391 66.9201 64.3391H77.6475C78.155 64.3391 78.5669 64.751 78.5669 65.2585C78.5669 65.766 78.155 66.1779 77.6475 66.1779Z" fill="#FF9500" stroke="#FF9500" stroke-width="0.620449"/>
<path d="M61.0801 72.0179C57.3548 72.0179 54.3208 68.9858 54.3208 65.2586C54.3208 61.5314 57.3529 58.4993 61.0801 58.4993C64.8073 58.4993 67.8394 61.5314 67.8394 65.2586C67.8394 68.9858 64.8055 72.0179 61.0801 72.0179ZM61.0801 60.3362C58.3661 60.3362 56.1596 62.5446 56.1596 65.2567C56.1596 67.9689 58.3661 70.1773 61.0801 70.1773C63.7941 70.1773 66.0007 67.9689 66.0007 65.2567C66.0007 62.5446 63.7941 60.3362 61.0801 60.3362Z" fill="#FF9500" stroke="#FF9500" stroke-width="0.620449"/>
<path d="M151.871 87.7707H82.4358C79.2878 87.7707 76.7263 85.2093 76.7263 82.0631V30.7798C76.7263 27.6318 79.2878 25.0723 82.4358 25.0723H111.389C113.375 25.0723 115.188 26.0799 116.238 27.7661L122.824 37.7285C122.984 37.9823 123.19 38.1073 123.437 38.1073H151.871C155.019 38.1073 157.579 40.6687 157.579 43.8149V82.0631C157.579 85.2093 155.019 87.7707 151.871 87.7707ZM82.4358 26.9092C80.3028 26.9092 78.5651 28.645 78.5651 30.778V82.0613C78.5651 84.1961 80.301 85.9301 82.4358 85.9301H151.871C154.004 85.9301 155.74 84.1943 155.74 82.0613V43.813C155.74 41.6782 154.004 39.9442 151.871 39.9442H123.437C122.561 39.9442 121.756 39.4864 121.278 38.7215L114.69 28.759C113.963 27.5932 112.735 26.911 111.389 26.911L82.4358 26.9092Z" fill="#FF9500" stroke="#FF9500" stroke-width="3"/>
<path d="M143.219 67.2201H126.782C126.351 67.2201 126.002 66.8082 126.002 66.3007C126.002 65.7932 126.351 65.3813 126.782 65.3813H143.219C143.65 65.3813 144 65.7932 144 66.3007C144 66.8082 143.65 67.2201 143.219 67.2201Z" fill="#FF9500" stroke="#FF9500" stroke-width="0.620449"/>
<path d="M132.372 73.7055H126.781C126.35 73.7055 126 73.2936 126 72.7861C126 72.2786 126.35 71.8667 126.781 71.8667H132.372C132.803 71.8667 133.153 72.2786 133.153 72.7861C133.153 73.2936 132.804 73.7055 132.372 73.7055Z" fill="#FF9500" stroke="#FF9500" stroke-width="0.620449"/>
<path d="M105.712 125.07H97.8727C96.6821 125.07 95.7135 124.102 95.7135 122.909V109.931H89.1574C88.3183 109.931 87.5485 109.439 87.1971 108.678C86.8457 107.908 86.9705 107 87.5207 106.366L100.152 91.5874C100.973 90.6234 102.619 90.628 103.437 91.592L116.068 106.371C116.614 107.007 116.741 107.913 116.39 108.678C116.036 109.441 115.266 109.933 114.427 109.933H107.871V122.911C107.871 124.102 106.902 125.07 105.712 125.07ZM98.0275 122.759H105.714L105.561 107.619H114.099L101.796 93.2241L89.4926 107.619H98.0299L98.0275 122.759Z" fill="#FF9500"/>
<path d="M88.2543 107.581L101.425 92.5281C106.025 97.5456 115.224 107.706 115.224 108.208C115.224 108.71 109.37 108.835 106.443 108.835V123.261L97.035 123.888L96.4079 108.835H88.8815L88.2543 107.581Z" fill="#FF9500"/>
<path d="M198.722 200.098H158.958C156.275 200.098 154.109 197.932 154.109 195.249V158.265C154.109 155.582 156.275 153.416 158.958 153.416H169.109C170.241 153.416 171.34 153.803 172.213 154.547L178.582 159.881C179.002 160.237 179.552 160.431 180.133 160.431H198.69C201.373 160.431 203.539 162.597 203.539 165.28V195.249C203.539 197.932 201.373 200.098 198.69 200.098H198.722ZM158.958 155.84C157.633 155.84 156.534 156.939 156.534 158.265V195.249C156.534 196.574 157.633 197.673 158.958 197.673H198.722C200.048 197.673 201.147 196.574 201.147 195.249V165.28C201.147 163.955 200.048 162.855 198.722 162.855H180.166C179.034 162.855 177.935 162.468 177.062 161.724L170.693 156.39C170.241 156.034 169.691 155.84 169.142 155.84H158.99H158.958Z" fill="#FF9500" stroke="#FF9500" stroke-width="0.48493" stroke-miterlimit="10"/>
<path d="M202.376 191.013H155.338C154.659 191.013 154.141 190.463 154.141 189.784C154.141 189.105 154.691 188.556 155.338 188.556H202.376C203.055 188.556 203.604 189.105 203.604 189.784C203.604 190.463 203.055 191.013 202.376 191.013Z" fill="#FF9500" stroke="#FF9500" stroke-width="0.48493" stroke-miterlimit="10"/>
<path d="M102.286 148.727C99.57 148.727 97.3394 146.496 97.3394 143.781C97.3394 141.065 99.57 138.834 102.286 138.834C105.001 138.834 107.232 141.065 107.232 143.781C107.232 146.496 105.001 148.727 102.286 148.727ZM102.286 141.227C100.896 141.227 99.764 142.358 99.764 143.748C99.764 145.139 100.896 146.27 102.286 146.27C103.676 146.27 104.807 145.139 104.807 143.748C104.807 142.358 103.676 141.227 102.286 141.227Z" fill="#FF9500" stroke="#FF9500" stroke-width="0.48493" stroke-miterlimit="10"/>
<path d="M25.7314 148.727C22.9835 148.727 20.7852 146.496 20.7852 143.781C20.7852 141.065 23.0158 138.834 25.7314 138.834C28.447 138.834 30.6777 141.065 30.6777 143.781C30.6777 146.496 28.447 148.727 25.7314 148.727ZM25.7314 141.227C24.3413 141.227 23.2098 142.358 23.2098 143.748C23.2098 145.139 24.3413 146.27 25.7314 146.27C27.1216 146.27 28.2531 145.139 28.2531 143.748C28.2531 142.358 27.1216 141.227 25.7314 141.227Z" fill="#FF9500" stroke="#FF9500" stroke-width="0.48493" stroke-miterlimit="10"/>
<path d="M178.84 148.727C176.092 148.727 173.894 146.496 173.894 143.781C173.894 141.065 176.124 138.834 178.84 138.834C181.556 138.834 183.786 141.065 183.786 143.781C183.786 146.496 181.556 148.727 178.84 148.727ZM178.84 141.227C177.45 141.227 176.318 142.358 176.318 143.748C176.318 145.139 177.45 146.27 178.84 146.27C180.23 146.27 181.362 145.139 181.362 143.748C181.362 142.358 180.23 141.227 178.84 141.227Z" fill="#FF9500" stroke="#FF9500" stroke-width="0.48493" stroke-miterlimit="10"/>
<path d="M98.5677 145.009H29.4813C28.8024 145.009 28.2852 144.46 28.2852 143.781C28.2852 143.102 28.8347 142.552 29.4813 142.552H98.5677C99.2466 142.552 99.7639 143.102 99.7639 143.781C99.7639 144.46 99.2142 145.009 98.5677 145.009Z" fill="#FF9500" stroke="#FF9500" stroke-width="0.48493" stroke-miterlimit="10"/>
<path d="M175.122 145.009H106.036C105.357 145.009 104.84 144.46 104.84 143.781C104.84 143.102 105.389 142.552 106.036 142.552H175.122C175.801 142.552 176.319 143.102 176.319 143.781C176.319 144.46 175.769 145.009 175.122 145.009Z" fill="#FF9500" stroke="#FF9500" stroke-width="0.48493" stroke-miterlimit="10"/>
<path d="M45.6136 200.098H5.8493C3.16602 200.098 1 197.932 1 195.249V158.265C1 155.582 3.16602 153.416 5.8493 153.416H16.0005C17.132 153.416 18.2312 153.803 19.104 154.547L25.4728 159.881C25.8931 160.237 26.4427 160.431 27.0246 160.431H45.5812C48.2645 160.431 50.4305 162.597 50.4305 165.28V195.249C50.4305 197.932 48.2645 200.098 45.5812 200.098H45.6136ZM5.8493 155.84C4.52383 155.84 3.42465 156.939 3.42465 158.265V195.249C3.42465 196.574 4.52383 197.673 5.8493 197.673H45.6136C46.9391 197.673 48.0382 196.574 48.0382 195.249V165.28C48.0382 163.955 46.9391 162.855 45.6136 162.855H27.0569C25.9254 162.855 24.8262 162.468 23.9533 161.724L17.5846 156.39C17.132 156.034 16.5824 155.84 16.0328 155.84H5.88161H5.8493Z" fill="#FF9500" stroke="#FF9500" stroke-width="0.48493" stroke-miterlimit="10"/>
<path d="M49.2666 191.013H2.22837C1.54947 191.013 1.03223 190.463 1.03223 189.784C1.03223 189.105 1.5818 188.556 2.22837 188.556H49.2666C49.9455 188.556 50.4628 189.105 50.4628 189.784C50.4628 190.463 49.9132 191.013 49.2666 191.013Z" fill="#FF9500" stroke="#FF9500" stroke-width="0.48493" stroke-miterlimit="10"/>
<path d="M122.168 200.098H82.4037C79.7205 200.098 77.5544 197.932 77.5544 195.249V158.265C77.5544 155.582 79.7205 153.416 82.4037 153.416H92.5549C93.6864 153.416 94.7856 153.803 95.6585 154.547L102.027 159.881C102.48 160.237 103.029 160.463 103.579 160.463H122.136C124.819 160.463 126.985 162.629 126.985 165.313V195.281C126.985 197.964 124.819 200.13 122.136 200.13L122.168 200.098ZM82.4037 155.84C81.0783 155.84 79.9791 156.939 79.9791 158.265V195.249C79.9791 196.574 81.0783 197.673 82.4037 197.673H122.168C123.493 197.673 124.593 196.574 124.593 195.249V165.28C124.593 163.955 123.493 162.855 122.168 162.855H103.611C102.48 162.855 101.381 162.468 100.508 161.724L94.1391 156.39C93.7188 156.034 93.1369 155.84 92.5873 155.84H82.4361H82.4037Z" fill="#FF9500" stroke="#FF9500" stroke-width="0.48493" stroke-miterlimit="10"/>
<path d="M125.821 191.013H78.7828C78.1039 191.013 77.5867 190.463 77.5867 189.784C77.5867 189.105 78.1362 188.556 78.7828 188.556H125.821C126.5 188.556 127.017 189.105 127.017 189.784C127.017 190.463 126.468 191.013 125.821 191.013Z" fill="#FF9500" stroke="#FF9500" stroke-width="0.48493" stroke-miterlimit="10"/>
<path d="M102 95.8667L102 139.867" stroke="#FF9500" stroke-width="3" stroke-linecap="round"/>
</svg>
