<svg width="112" height="40" viewBox="0 0 112 40" fill="none" xmlns="http://www.w3.org/2000/svg">
<g clip-path="url(#clip0_230_4520)">
<path d="M1.13331 31.4256V5.55H11.953L1.13331 31.4256Z" fill="#98989A" stroke="#98989A" stroke-width="1.1"/>
<path d="M32.9903 31.4223L22.1861 5.55H32.9903V31.4223Z" fill="#98989A" stroke="#98989A" stroke-width="1.1"/>
<path d="M17.9307 28.101L17.7932 27.7533H17.4193H12.5696L17.0678 17.1615L24.0035 33.6169H20.1132L17.9307 28.101Z" fill="#98989A" stroke="#98989A" stroke-width="1.1"/>
<path d="M53.9567 23.3655L53.828 22.9966H53.4374H47.5341H47.1377L47.0123 23.3727L45.7129 27.2711H43.9415L48.8582 13.2879C48.9727 13.011 49.0442 12.731 49.0927 12.1312H51.8842L57.3351 27.2711H55.3188L53.9567 23.3655ZM45.6565 27.4395C45.6565 27.4395 45.6568 27.4387 45.6575 27.4372L45.6574 27.4376C45.6568 27.4389 45.6565 27.4395 45.6565 27.4395ZM45.9 27.2711C45.9016 27.271 45.9024 27.271 45.9024 27.271L45.9 27.2711ZM52.1592 12.1314C52.1592 12.1314 52.1584 12.1314 52.1569 12.1313L52.1592 12.1314ZM47.7985 20.6804L47.5593 21.4032H48.3207H52.6508H53.4046L53.1746 20.6854C53.0168 20.193 52.8041 19.5458 52.5703 18.8341C52.0176 17.1525 51.3468 15.111 51.0028 13.9017L50.8892 13.5022H50.4738H50.45H50.0165L49.9152 13.9236C49.5769 15.3312 48.7998 17.6679 48.1086 19.7466C48.0026 20.0654 47.8986 20.3781 47.7985 20.6804Z" fill="#98989A" stroke="#98989A" stroke-width="1.1"/>
<path d="M69.551 25.3018C69.551 25.7328 69.5906 26.2618 69.6315 26.6859C68.1715 27.2817 66.7362 27.5167 65.3816 27.5167C63.6924 27.5167 62.2558 27.0285 61.2472 26.1048C60.2462 25.1881 59.6073 23.7881 59.6073 21.8377C59.6073 20.1861 60.2204 18.7194 61.3166 17.6645C62.4124 16.6101 64.0238 15.9362 66.0728 15.9362C66.3929 15.9362 66.6638 15.9576 67.0756 16.0042L67.6875 16.0735V15.4577V10.7719H69.551V25.3018ZM69.8599 26.5905C69.8633 26.589 69.8636 26.5891 69.8602 26.5903L69.8599 26.5905ZM67.3058 25.8254L67.6875 25.7027V25.3018V18.0558V17.68L67.3374 17.5434C66.9213 17.381 66.4547 17.331 65.9775 17.331C64.7597 17.331 63.6517 17.7235 62.8437 18.4874C62.0313 19.2553 61.5661 20.3575 61.5661 21.6867C61.5661 23.1493 62.0059 24.262 62.7905 25.0057C63.5689 25.7437 64.6152 26.0504 65.6994 26.0504C66.2374 26.0504 66.7905 25.991 67.3058 25.8254Z" fill="#98989A" stroke="#98989A" stroke-width="1.1"/>
<path d="M73.3389 21.7436C73.3389 20.106 73.8738 18.6536 74.8091 17.6171C75.739 16.5868 77.0903 15.9375 78.7955 15.9375C80.5472 15.9375 81.8625 16.5975 82.7469 17.617C83.6396 18.6462 84.1249 20.0801 84.1249 21.6642C84.1249 23.4653 83.5521 24.9251 82.6135 25.9296C81.6773 26.9315 80.343 27.518 78.7399 27.518C76.8356 27.518 75.507 26.7899 74.6438 25.7345C73.768 24.6637 73.3389 23.2139 73.3389 21.7436ZM82.1819 21.7436C82.1819 20.647 81.9465 19.5603 81.3786 18.7306C80.7931 17.8751 79.8777 17.3323 78.6445 17.3323C77.6365 17.3323 76.7663 17.7828 76.1627 18.5721C75.5677 19.3502 75.2502 20.429 75.2502 21.688C75.2502 22.9102 75.5475 24.0032 76.1527 24.8051C76.7701 25.6231 77.6814 26.0994 78.7955 26.0994C79.7197 26.0994 80.5864 25.7121 81.2114 24.9482C81.8305 24.1915 82.1819 23.1056 82.1819 21.7436Z" fill="#98989A" stroke="#98989A" stroke-width="1.1"/>
<path d="M91.1626 27.5167C90.0111 27.5167 88.8984 27.3693 87.8354 27.0643V10.7719H89.7249L89.7546 15.7391L89.7591 16.4974L90.4785 16.2576C91.0871 16.0547 91.7909 15.9362 92.553 15.9362C94.1976 15.9362 95.5087 16.515 96.409 17.4427C97.3118 18.3729 97.8348 19.6884 97.8348 21.218C97.8348 23.3494 97.0124 24.9061 95.792 25.9386C94.5594 26.9813 92.8863 27.5167 91.1626 27.5167ZM89.7546 25.4209V25.8293L90.1454 25.9474C90.5667 26.0748 91.0062 26.0981 91.4407 26.0981C92.5664 26.0981 93.6827 25.7403 94.5234 24.9666C95.3726 24.1851 95.8918 23.0241 95.8918 21.5199C95.8918 20.2386 95.5199 19.1904 94.8135 18.46C94.106 17.7284 93.1236 17.3787 92.0287 17.3787C91.0963 17.3787 90.56 17.5178 90.1057 17.6939L89.7546 17.8301V18.2067V25.4209Z" fill="#98989A" stroke="#98989A" stroke-width="1.1"/>
<path d="M110.732 20.6075C110.732 21.1375 110.712 21.5473 110.681 21.7982C110.532 21.8142 110.309 21.8289 110.013 21.8395C109.581 21.8551 109.039 21.861 108.437 21.861H103.416H102.843L102.866 22.4338C102.907 23.412 103.256 24.3388 103.992 25.0189C104.728 25.6985 105.79 26.0755 107.15 26.0755C108.092 26.0755 108.977 25.941 109.81 25.6688V26.9343C108.994 27.2931 108.017 27.518 106.507 27.518C104.4 27.518 103.039 26.7845 102.194 25.7571C101.334 24.7118 100.955 23.2971 100.955 21.8628C100.955 20.2522 101.442 18.7639 102.332 17.6888C103.213 16.6249 104.51 15.9375 106.213 15.9375C107.878 15.9375 108.986 16.5825 109.689 17.4596C110.406 18.3548 110.732 19.5311 110.732 20.6075ZM110.879 21.7671C110.881 21.7666 110.882 21.7664 110.882 21.7665C110.882 21.7665 110.881 21.7667 110.879 21.7671ZM102.873 20.1925L102.768 20.8317H103.416H107.102H107.109C107.572 20.8317 107.889 20.8317 108.102 20.8287C108.29 20.826 108.463 20.8219 108.585 20.7938L109.011 20.6954V20.2579V20.2575V20.2571V20.2566V20.2562V20.2558V20.2554V20.2549V20.2545V20.2541V20.2537V20.2532V20.2528V20.2524V20.252V20.2515V20.2511V20.2507V20.2502V20.2498V20.2494V20.2489V20.2485V20.2481V20.2476V20.2472V20.2468V20.2463V20.2459V20.2455V20.245V20.2446V20.2441V20.2437V20.2433V20.2428V20.2424V20.2419V20.2415V20.241V20.2406V20.2402V20.2397V20.2393V20.2388V20.2384V20.2379V20.2375V20.237V20.2366V20.2361V20.2357V20.2352V20.2348V20.2343V20.2339V20.2334V20.233V20.2325V20.2321V20.2316V20.2312V20.2307V20.2303V20.2298V20.2294V20.2289V20.2284V20.228V20.2275V20.2271V20.2266V20.2262V20.2257V20.2252V20.2248V20.2243V20.2239V20.2234V20.2229V20.2225V20.222V20.2215V20.2211V20.2206V20.2202V20.2197V20.2192V20.2188V20.2183V20.2178V20.2174V20.2169V20.2164V20.216V20.2155V20.2151V20.2146V20.2141V20.2137V20.2132V20.2127V20.2123V20.2118V20.2113V20.2109V20.2104V20.2099V20.2094V20.209V20.2085V20.208V20.2076V20.2071V20.2066V20.2062V20.2057V20.2052V20.2048V20.2043V20.2038V20.2033V20.2029V20.2024V20.2019V20.2015V20.201V20.2005V20.2V20.1996V20.1991V20.1986V20.1982V20.1977V20.1972V20.1967V20.1963V20.1958V20.1953V20.1949V20.1944V20.1939V20.1934V20.193V20.1925V20.192V20.1915V20.1911V20.1906V20.1901V20.1897V20.1892V20.1887V20.1882V20.1878V20.1873V20.1868V20.1864V20.1859V20.1854V20.1849V20.1845V20.184V20.1835V20.1831V20.1826V20.1821V20.1816V20.1812V20.1807V20.1802V20.1798V20.1793V20.1788V20.1783V20.1779V20.1774V20.1769V20.1765V20.176V20.1755V20.1751V20.1746V20.1741V20.1737V20.1732V20.1727V20.1722V20.1718V20.1713V20.1708V20.1704V20.1699V20.1694V20.169V20.1685V20.168V20.1676V20.1671V20.1666V20.1662V20.1657V20.1652V20.1648V20.1643V20.1639V20.1634V20.1629V20.1625V20.162V20.1615V20.1611V20.1606V20.1602V20.1597V20.1592V20.1588V20.1583V20.1579V20.1574V20.1569V20.1565V20.156V20.1556V20.1551V20.1547V20.1542V20.1537V20.1533V20.1528V20.1524V20.1519V20.1515V20.151V20.1506V20.1501V20.1497V20.1492V20.1487V20.1483V20.1478V20.1474V20.1469V20.1465V20.146V20.1456V20.1452V20.1447V20.1443V20.1438V20.1434V20.1429V20.1425V20.142V20.1416V20.1411V20.1407V20.1403V20.1398V20.1394V20.1389V20.1385V20.1381V20.1376V20.1372V20.1367V20.1363V20.1359V20.1354V20.135V20.1346V20.1341V20.1337V20.1333V20.1328V20.1324V20.132V20.1315V20.1311V20.1307V20.1303V20.1298V20.1294V20.129V20.1286V20.1281V20.1277V20.1273V20.1269V20.1264V20.126V20.1256V20.1252V20.1248V20.1243V20.1239V20.1235V20.1231V20.1227V20.1223V20.1218V20.1214V20.121V20.1206V20.1202V20.1198V20.1194V20.119V20.1186V20.1182V20.1177V20.1173V20.1169V20.1165V20.1161V20.1157V20.1153V20.1149V20.1145V20.1141V20.1137V20.1133V20.1129V20.1125V20.1122V20.1118V20.1114V20.111V20.1106V20.1102V20.1098V20.1094V20.109V20.1086V20.1083V20.1079V20.1075V20.1071V20.1067V20.1063V20.106V20.1056V20.1052V20.1048V20.1045V20.1041V20.1037V20.1033V20.103V20.1026V20.1022V20.1019V20.1015V20.1011V20.1008V20.1004V20.1V20.0997V20.0993V20.0989V20.0986V20.0982V20.0979V20.0975V20.0972V20.0968V20.0965V20.0961V20.0958V20.0954V20.0951V20.0947V20.0944V20.094V20.0937V20.0933V20.093V20.0927V20.0923V20.092V20.0916V20.0913V20.091V20.0906V20.0903V20.09V20.0896V20.0893V20.089V20.0887V20.0883V20.088V20.0877V20.0874V20.087V20.0867V20.0864V20.0861V20.0858V20.0855V20.0851V20.0848V20.0845V20.0842V20.0839V20.0836V20.0833V20.083V20.0827V20.0824V20.0821V20.0818V20.0815V20.0812V20.0809V20.0806V20.0803V20.08V20.0797V20.0795V20.0792V20.0789V20.0786V20.0783V20.078V20.0778V20.0775V20.0772V20.0769V20.0766V20.0764V20.0761V20.0758V20.0756V20.0753V20.075V20.0748V20.0745V20.0742V20.074V20.0737V20.0735V20.0732V20.073V20.0727V20.0725V20.0722V20.072V20.0717V20.0715V20.0712V20.071V20.0707V20.0705V20.0703V20.07V20.0698V20.0696V20.0693V20.0691V20.0689V20.0686V20.0684V20.0682V20.068V20.0678V20.0675V20.0673V20.0671V20.0669V20.0667V20.0665V20.0663V20.066V20.0658V20.0656V20.0654V20.0652V20.065V20.0648V20.0646V20.0644V20.0643V20.0641V20.0639V20.0637V20.0635V20.0633V20.0631V20.0629V20.0628V20.0626V20.0624V20.0622V20.0621V20.0619V20.0617V20.0616V20.0614V20.0612V20.0611V20.0609V20.0608V20.0606V20.0604V20.0603V20.0601V20.06V20.0598V20.0597V20.0595V20.0594V20.0593C109.011 19.6027 108.861 18.9093 108.422 18.3159C107.963 17.6956 107.207 17.2131 106.085 17.2131C105.073 17.2131 104.307 17.6092 103.775 18.2025C103.257 18.7804 102.984 19.5175 102.873 20.1925Z" fill="#98989A" stroke="#98989A" stroke-width="1.1"/>
</g>
<defs>
<clipPath id="clip0_230_4520">
<rect width="110.833" height="40" fill="white" transform="translate(0.583313)"/>
</clipPath>
</defs>
</svg>
