<svg width="160" height="41" viewBox="0 0 160 41" fill="none" xmlns="http://www.w3.org/2000/svg">
<g clip-path="url(#clip0_230_4515)">
<g clip-path="url(#clip1_230_4515)">
<path d="M47.5385 28.8941L47.5385 28.8941C47.5153 28.8804 47.4951 28.8711 47.4782 28.8647C47.487 28.875 47.4981 28.8866 47.5119 28.8991L47.5385 28.8941ZM47.5385 28.8941L47.5399 28.8949M47.5385 28.8941L47.5399 28.8949M47.5399 28.8949C54.4274 32.9023 62.9369 35.3102 71.7258 35.3102C77.658 35.3102 84.1795 34.0835 90.1781 31.5373L90.1782 31.5373M47.5399 28.8949L90.1782 31.5373M90.1782 31.5373C90.4554 31.4195 90.6358 31.5283 90.695 31.6143C90.7248 31.6575 90.7346 31.7039 90.7234 31.7545C90.7119 31.8065 90.6681 31.9043 90.515 32.018C85.3019 35.8602 77.7125 37.9258 71.1697 37.9258M90.1782 31.5373L71.1697 37.9258M71.1697 37.9258C62.0019 37.9258 53.7528 34.5359 47.512 28.8992L71.1697 37.9258ZM87.0984 29.1636C88.4912 28.2609 90.3007 27.9202 91.8788 27.8985C92.698 27.8872 93.436 27.9623 93.9955 28.0797C94.2759 28.1386 94.5021 28.2061 94.6674 28.274C94.7499 28.3079 94.8109 28.3393 94.8533 28.3659C94.884 28.3851 94.8985 28.3979 94.9032 28.4022C94.9033 28.4025 94.9035 28.4028 94.9037 28.4033C94.9095 28.4153 94.9413 28.4809 94.9645 28.6437C94.9892 28.8167 94.9976 29.0496 94.9828 29.3343C94.9533 29.9021 94.8339 30.634 94.6085 31.4237C94.1738 32.9469 93.3651 34.6158 92.1269 35.7303C92.4458 34.9296 92.8866 33.7937 93.201 32.7236C93.3808 32.1119 93.525 31.5031 93.5779 30.9807C93.6043 30.7195 93.6096 30.4652 93.579 30.2352C93.5488 30.009 93.4795 29.7723 93.3284 29.5787C93.3284 29.5787 93.3283 29.5786 93.3283 29.5785L92.9815 29.8493L87.0984 29.1636ZM86.7878 29.4147C86.7877 29.4147 86.7879 29.4142 86.7882 29.4134L86.7878 29.4147Z" fill="#98989A" stroke="#98989A" stroke-width="0.88"/>
<mask id="path-2-inside-1_230_4515" fill="white">
<path fill-rule="evenodd" clip-rule="evenodd" d="M86.913 13.8697V11.7962C86.913 11.4824 87.1514 11.2719 87.4374 11.2719H96.7205C97.0185 11.2719 97.2568 11.4864 97.2568 11.7962V13.5718C97.2528 13.8697 97.0026 14.259 96.5577 14.8747L91.7473 21.7428C93.5348 21.6991 95.4216 21.9652 97.0423 22.8788C97.4077 23.0854 97.507 23.3873 97.5349 23.6852V25.8977C97.5349 26.1996 97.2012 26.5532 96.8516 26.3704C93.9956 24.8729 90.2021 24.71 87.0441 26.3863C86.7224 26.5611 86.3847 26.2116 86.3847 25.9097V23.8083C86.3847 23.4707 86.3887 22.8947 86.7263 22.3823L92.2994 14.3901H87.4493C87.1514 14.3901 86.913 14.1796 86.913 13.8697Z"/>
<path fill-rule="evenodd" clip-rule="evenodd" d="M53.0495 26.8074H50.2252C49.9551 26.7876 49.7406 26.585 49.7207 26.3268V11.832C49.7207 11.542 49.963 11.3116 50.2649 11.3116H52.8985C53.1726 11.3235 53.3911 11.5341 53.4109 11.7962V13.691H53.4626C54.1498 11.8598 55.4408 11.0058 57.1806 11.0058C58.9483 11.0058 60.0526 11.8598 60.847 13.691C61.5302 11.8598 63.0834 11.0058 64.7478 11.0058C65.9315 11.0058 67.2265 11.4943 68.0169 12.5907C68.9107 13.8102 68.728 15.5818 68.728 17.135L68.724 26.2831C68.724 26.5731 68.4817 26.8074 68.1798 26.8074H65.3595C65.0775 26.7876 64.8511 26.5611 64.8511 26.2831V18.6007C64.8511 17.989 64.9067 16.4636 64.7716 15.8837C64.5611 14.9105 63.9295 14.6364 63.1112 14.6364C62.428 14.6364 61.713 15.0932 61.423 15.8241C61.133 16.555 61.1608 17.7785 61.1608 18.6007V26.2831C61.1608 26.5731 60.9185 26.8074 60.6166 26.8074H57.7963C57.5103 26.7876 57.2879 26.5611 57.2879 26.2831L57.2839 18.6007C57.2839 16.984 57.55 14.6046 55.544 14.6046C53.5142 14.6046 53.5937 16.9244 53.5937 18.6007V26.2831C53.5937 26.5731 53.3513 26.8074 53.0495 26.8074Z"/>
<path fill-rule="evenodd" clip-rule="evenodd" d="M105.249 11.0058C109.44 11.0058 111.708 14.6046 111.708 19.1807C111.708 23.6018 109.201 27.1093 105.249 27.1093C101.134 27.1093 98.8933 23.5104 98.8933 19.0258C98.8933 14.5133 101.161 11.0058 105.249 11.0058ZM105.273 13.9651C103.191 13.9651 103.06 16.8013 103.06 18.5689C103.06 20.3406 103.032 24.1222 105.249 24.1222C107.438 24.1222 107.541 21.0715 107.541 19.2124C107.541 17.989 107.489 16.5272 107.12 15.3673C106.802 14.3583 106.17 13.9651 105.273 13.9651Z"/>
<path fill-rule="evenodd" clip-rule="evenodd" d="M117.142 26.8074H114.33C114.048 26.7876 113.821 26.5611 113.821 26.2831L113.817 11.7843C113.841 11.5182 114.075 11.3116 114.361 11.3116H116.979C117.225 11.3235 117.428 11.4904 117.484 11.7168V13.9333H117.535C118.326 11.9512 119.434 11.0058 121.384 11.0058C122.651 11.0058 123.887 11.4626 124.681 12.7138C125.42 13.8737 125.42 15.8241 125.42 17.2263V26.3506C125.388 26.6048 125.154 26.8074 124.876 26.8074H122.044C121.786 26.7876 121.571 26.5969 121.543 26.3506V18.4776C121.543 16.8927 121.726 14.5728 119.776 14.5728C119.088 14.5728 118.457 15.0336 118.143 15.7327C117.746 16.6186 117.694 17.5004 117.694 18.4776V26.2831C117.69 26.5731 117.444 26.8074 117.142 26.8074Z"/>
<path fill-rule="evenodd" clip-rule="evenodd" d="M79.5127 19.8837C79.5127 20.9841 79.5405 21.9016 78.9844 22.8788C78.5355 23.6733 77.8205 24.1619 77.0301 24.1619C75.9456 24.1619 75.3101 23.3356 75.3101 22.1162C75.3101 19.709 77.467 19.272 79.5127 19.272V19.8837ZM82.3608 26.7677C82.1741 26.9345 81.904 26.9464 81.6935 26.8352C80.756 26.0566 80.5852 25.6952 80.0728 24.9524C78.5236 26.5333 77.4233 27.006 75.4173 27.006C73.0379 27.006 71.1908 25.5402 71.1908 22.6047C71.1908 20.3127 72.4302 18.7516 74.2018 17.989C75.7351 17.3137 77.8761 17.1945 79.5127 17.0078V16.6424C79.5127 15.9711 79.5644 15.1766 79.1671 14.5967C78.8255 14.0763 78.1661 13.8618 77.5822 13.8618C76.5057 13.8618 75.5484 14.4139 75.314 15.5579C75.2664 15.8122 75.0797 16.0624 74.8215 16.0743L72.0846 15.7804C71.8542 15.7288 71.596 15.5421 71.6635 15.1885C72.2911 11.8677 75.2942 10.8667 77.9794 10.8667C79.3538 10.8667 81.1493 11.2321 82.2337 12.2729C83.6081 13.5559 83.477 15.268 83.477 17.131V21.5322C83.477 22.855 84.0252 23.4349 84.5416 24.15C84.7204 24.4042 84.7601 24.71 84.5297 24.9007C83.9537 25.3814 82.9289 26.2751 82.3648 26.7756L82.3608 26.7677Z"/>
<path fill-rule="evenodd" clip-rule="evenodd" d="M42.4872 19.8837C42.4872 20.984 42.515 21.9016 41.9589 22.8788C41.51 23.6733 40.799 24.1619 40.0045 24.1619C38.9201 24.1619 38.2885 23.3356 38.2885 22.1161C38.2885 19.709 40.4454 19.272 42.4872 19.272V19.8837ZM45.3353 26.7677C45.1486 26.9345 44.8785 26.9464 44.6679 26.8352C43.7305 26.0566 43.5637 25.6952 43.0473 24.9523C41.4981 26.5333 40.4017 27.006 38.3918 27.006C36.0164 27.006 34.1653 25.5402 34.1653 22.6047C34.1653 20.3127 35.4086 18.7516 37.1763 17.989C38.7095 17.3137 40.8506 17.1945 42.4872 17.0078V16.6424C42.4872 15.9711 42.5388 15.1766 42.1456 14.5967C41.8 14.0763 41.1406 13.8618 40.5606 13.8618C39.4841 13.8618 38.5229 14.4139 38.2885 15.5579C38.2408 15.8122 38.0541 16.0624 37.7999 16.0743L35.059 15.7804C34.8287 15.7287 34.5744 15.5421 34.638 15.1885C35.2696 11.8677 38.2686 10.8667 40.9539 10.8667C42.3283 10.8667 44.1237 11.2321 45.2082 12.2729C46.5826 13.5559 46.4515 15.268 46.4515 17.131V21.5322C46.4515 22.855 46.9997 23.4349 47.5161 24.1499C47.6988 24.4042 47.7385 24.71 47.5081 24.9007C46.9321 25.3813 45.9073 26.2751 45.3432 26.7756L45.3353 26.7677Z"/>
</mask>
<path fill-rule="evenodd" clip-rule="evenodd" d="M86.913 13.8697V11.7962C86.913 11.4824 87.1514 11.2719 87.4374 11.2719H96.7205C97.0185 11.2719 97.2568 11.4864 97.2568 11.7962V13.5718C97.2528 13.8697 97.0026 14.259 96.5577 14.8747L91.7473 21.7428C93.5348 21.6991 95.4216 21.9652 97.0423 22.8788C97.4077 23.0854 97.507 23.3873 97.5349 23.6852V25.8977C97.5349 26.1996 97.2012 26.5532 96.8516 26.3704C93.9956 24.8729 90.2021 24.71 87.0441 26.3863C86.7224 26.5611 86.3847 26.2116 86.3847 25.9097V23.8083C86.3847 23.4707 86.3887 22.8947 86.7263 22.3823L92.2994 14.3901H87.4493C87.1514 14.3901 86.913 14.1796 86.913 13.8697Z" fill="#98989A"/>
<path fill-rule="evenodd" clip-rule="evenodd" d="M53.0495 26.8074H50.2252C49.9551 26.7876 49.7406 26.585 49.7207 26.3268V11.832C49.7207 11.542 49.963 11.3116 50.2649 11.3116H52.8985C53.1726 11.3235 53.3911 11.5341 53.4109 11.7962V13.691H53.4626C54.1498 11.8598 55.4408 11.0058 57.1806 11.0058C58.9483 11.0058 60.0526 11.8598 60.847 13.691C61.5302 11.8598 63.0834 11.0058 64.7478 11.0058C65.9315 11.0058 67.2265 11.4943 68.0169 12.5907C68.9107 13.8102 68.728 15.5818 68.728 17.135L68.724 26.2831C68.724 26.5731 68.4817 26.8074 68.1798 26.8074H65.3595C65.0775 26.7876 64.8511 26.5611 64.8511 26.2831V18.6007C64.8511 17.989 64.9067 16.4636 64.7716 15.8837C64.5611 14.9105 63.9295 14.6364 63.1112 14.6364C62.428 14.6364 61.713 15.0932 61.423 15.8241C61.133 16.555 61.1608 17.7785 61.1608 18.6007V26.2831C61.1608 26.5731 60.9185 26.8074 60.6166 26.8074H57.7963C57.5103 26.7876 57.2879 26.5611 57.2879 26.2831L57.2839 18.6007C57.2839 16.984 57.55 14.6046 55.544 14.6046C53.5142 14.6046 53.5937 16.9244 53.5937 18.6007V26.2831C53.5937 26.5731 53.3513 26.8074 53.0495 26.8074Z" fill="#98989A"/>
<path fill-rule="evenodd" clip-rule="evenodd" d="M105.249 11.0058C109.44 11.0058 111.708 14.6046 111.708 19.1807C111.708 23.6018 109.201 27.1093 105.249 27.1093C101.134 27.1093 98.8933 23.5104 98.8933 19.0258C98.8933 14.5133 101.161 11.0058 105.249 11.0058ZM105.273 13.9651C103.191 13.9651 103.06 16.8013 103.06 18.5689C103.06 20.3406 103.032 24.1222 105.249 24.1222C107.438 24.1222 107.541 21.0715 107.541 19.2124C107.541 17.989 107.489 16.5272 107.12 15.3673C106.802 14.3583 106.17 13.9651 105.273 13.9651Z" fill="#98989A"/>
<path fill-rule="evenodd" clip-rule="evenodd" d="M117.142 26.8074H114.33C114.048 26.7876 113.821 26.5611 113.821 26.2831L113.817 11.7843C113.841 11.5182 114.075 11.3116 114.361 11.3116H116.979C117.225 11.3235 117.428 11.4904 117.484 11.7168V13.9333H117.535C118.326 11.9512 119.434 11.0058 121.384 11.0058C122.651 11.0058 123.887 11.4626 124.681 12.7138C125.42 13.8737 125.42 15.8241 125.42 17.2263V26.3506C125.388 26.6048 125.154 26.8074 124.876 26.8074H122.044C121.786 26.7876 121.571 26.5969 121.543 26.3506V18.4776C121.543 16.8927 121.726 14.5728 119.776 14.5728C119.088 14.5728 118.457 15.0336 118.143 15.7327C117.746 16.6186 117.694 17.5004 117.694 18.4776V26.2831C117.69 26.5731 117.444 26.8074 117.142 26.8074Z" fill="#98989A"/>
<path fill-rule="evenodd" clip-rule="evenodd" d="M79.5127 19.8837C79.5127 20.9841 79.5405 21.9016 78.9844 22.8788C78.5355 23.6733 77.8205 24.1619 77.0301 24.1619C75.9456 24.1619 75.3101 23.3356 75.3101 22.1162C75.3101 19.709 77.467 19.272 79.5127 19.272V19.8837ZM82.3608 26.7677C82.1741 26.9345 81.904 26.9464 81.6935 26.8352C80.756 26.0566 80.5852 25.6952 80.0728 24.9524C78.5236 26.5333 77.4233 27.006 75.4173 27.006C73.0379 27.006 71.1908 25.5402 71.1908 22.6047C71.1908 20.3127 72.4302 18.7516 74.2018 17.989C75.7351 17.3137 77.8761 17.1945 79.5127 17.0078V16.6424C79.5127 15.9711 79.5644 15.1766 79.1671 14.5967C78.8255 14.0763 78.1661 13.8618 77.5822 13.8618C76.5057 13.8618 75.5484 14.4139 75.314 15.5579C75.2664 15.8122 75.0797 16.0624 74.8215 16.0743L72.0846 15.7804C71.8542 15.7288 71.596 15.5421 71.6635 15.1885C72.2911 11.8677 75.2942 10.8667 77.9794 10.8667C79.3538 10.8667 81.1493 11.2321 82.2337 12.2729C83.6081 13.5559 83.477 15.268 83.477 17.131V21.5322C83.477 22.855 84.0252 23.4349 84.5416 24.15C84.7204 24.4042 84.7601 24.71 84.5297 24.9007C83.9537 25.3814 82.9289 26.2751 82.3648 26.7756L82.3608 26.7677Z" fill="#98989A"/>
<path fill-rule="evenodd" clip-rule="evenodd" d="M42.4872 19.8837C42.4872 20.984 42.515 21.9016 41.9589 22.8788C41.51 23.6733 40.799 24.1619 40.0045 24.1619C38.9201 24.1619 38.2885 23.3356 38.2885 22.1161C38.2885 19.709 40.4454 19.272 42.4872 19.272V19.8837ZM45.3353 26.7677C45.1486 26.9345 44.8785 26.9464 44.6679 26.8352C43.7305 26.0566 43.5637 25.6952 43.0473 24.9523C41.4981 26.5333 40.4017 27.006 38.3918 27.006C36.0164 27.006 34.1653 25.5402 34.1653 22.6047C34.1653 20.3127 35.4086 18.7516 37.1763 17.989C38.7095 17.3137 40.8506 17.1945 42.4872 17.0078V16.6424C42.4872 15.9711 42.5388 15.1766 42.1456 14.5967C41.8 14.0763 41.1406 13.8618 40.5606 13.8618C39.4841 13.8618 38.5229 14.4139 38.2885 15.5579C38.2408 15.8122 38.0541 16.0624 37.7999 16.0743L35.059 15.7804C34.8287 15.7287 34.5744 15.5421 34.638 15.1885C35.2696 11.8677 38.2686 10.8667 40.9539 10.8667C42.3283 10.8667 44.1237 11.2321 45.2082 12.2729C46.5826 13.5559 46.4515 15.268 46.4515 17.131V21.5322C46.4515 22.855 46.9997 23.4349 47.5161 24.1499C47.6988 24.4042 47.7385 24.71 47.5081 24.9007C46.9321 25.3813 45.9073 26.2751 45.3432 26.7756L45.3353 26.7677Z" fill="#98989A"/>
<path fill-rule="evenodd" clip-rule="evenodd" d="M86.913 13.8697V11.7962C86.913 11.4824 87.1514 11.2719 87.4374 11.2719H96.7205C97.0185 11.2719 97.2568 11.4864 97.2568 11.7962V13.5718C97.2528 13.8697 97.0026 14.259 96.5577 14.8747L91.7473 21.7428C93.5348 21.6991 95.4216 21.9652 97.0423 22.8788C97.4077 23.0854 97.507 23.3873 97.5349 23.6852V25.8977C97.5349 26.1996 97.2012 26.5532 96.8516 26.3704C93.9956 24.8729 90.2021 24.71 87.0441 26.3863C86.7224 26.5611 86.3847 26.2116 86.3847 25.9097V23.8083C86.3847 23.4707 86.3887 22.8947 86.7263 22.3823L92.2994 14.3901H87.4493C87.1514 14.3901 86.913 14.1796 86.913 13.8697Z" stroke="#98989A" stroke-width="1.76" mask="url(#path-2-inside-1_230_4515)"/>
<path fill-rule="evenodd" clip-rule="evenodd" d="M53.0495 26.8074H50.2252C49.9551 26.7876 49.7406 26.585 49.7207 26.3268V11.832C49.7207 11.542 49.963 11.3116 50.2649 11.3116H52.8985C53.1726 11.3235 53.3911 11.5341 53.4109 11.7962V13.691H53.4626C54.1498 11.8598 55.4408 11.0058 57.1806 11.0058C58.9483 11.0058 60.0526 11.8598 60.847 13.691C61.5302 11.8598 63.0834 11.0058 64.7478 11.0058C65.9315 11.0058 67.2265 11.4943 68.0169 12.5907C68.9107 13.8102 68.728 15.5818 68.728 17.135L68.724 26.2831C68.724 26.5731 68.4817 26.8074 68.1798 26.8074H65.3595C65.0775 26.7876 64.8511 26.5611 64.8511 26.2831V18.6007C64.8511 17.989 64.9067 16.4636 64.7716 15.8837C64.5611 14.9105 63.9295 14.6364 63.1112 14.6364C62.428 14.6364 61.713 15.0932 61.423 15.8241C61.133 16.555 61.1608 17.7785 61.1608 18.6007V26.2831C61.1608 26.5731 60.9185 26.8074 60.6166 26.8074H57.7963C57.5103 26.7876 57.2879 26.5611 57.2879 26.2831L57.2839 18.6007C57.2839 16.984 57.55 14.6046 55.544 14.6046C53.5142 14.6046 53.5937 16.9244 53.5937 18.6007V26.2831C53.5937 26.5731 53.3513 26.8074 53.0495 26.8074Z" stroke="#98989A" stroke-width="1.76" mask="url(#path-2-inside-1_230_4515)"/>
<path fill-rule="evenodd" clip-rule="evenodd" d="M105.249 11.0058C109.44 11.0058 111.708 14.6046 111.708 19.1807C111.708 23.6018 109.201 27.1093 105.249 27.1093C101.134 27.1093 98.8933 23.5104 98.8933 19.0258C98.8933 14.5133 101.161 11.0058 105.249 11.0058ZM105.273 13.9651C103.191 13.9651 103.06 16.8013 103.06 18.5689C103.06 20.3406 103.032 24.1222 105.249 24.1222C107.438 24.1222 107.541 21.0715 107.541 19.2124C107.541 17.989 107.489 16.5272 107.12 15.3673C106.802 14.3583 106.17 13.9651 105.273 13.9651Z" stroke="#98989A" stroke-width="1.76" mask="url(#path-2-inside-1_230_4515)"/>
<path fill-rule="evenodd" clip-rule="evenodd" d="M117.142 26.8074H114.33C114.048 26.7876 113.821 26.5611 113.821 26.2831L113.817 11.7843C113.841 11.5182 114.075 11.3116 114.361 11.3116H116.979C117.225 11.3235 117.428 11.4904 117.484 11.7168V13.9333H117.535C118.326 11.9512 119.434 11.0058 121.384 11.0058C122.651 11.0058 123.887 11.4626 124.681 12.7138C125.42 13.8737 125.42 15.8241 125.42 17.2263V26.3506C125.388 26.6048 125.154 26.8074 124.876 26.8074H122.044C121.786 26.7876 121.571 26.5969 121.543 26.3506V18.4776C121.543 16.8927 121.726 14.5728 119.776 14.5728C119.088 14.5728 118.457 15.0336 118.143 15.7327C117.746 16.6186 117.694 17.5004 117.694 18.4776V26.2831C117.69 26.5731 117.444 26.8074 117.142 26.8074Z" stroke="#98989A" stroke-width="1.76" mask="url(#path-2-inside-1_230_4515)"/>
<path fill-rule="evenodd" clip-rule="evenodd" d="M79.5127 19.8837C79.5127 20.9841 79.5405 21.9016 78.9844 22.8788C78.5355 23.6733 77.8205 24.1619 77.0301 24.1619C75.9456 24.1619 75.3101 23.3356 75.3101 22.1162C75.3101 19.709 77.467 19.272 79.5127 19.272V19.8837ZM82.3608 26.7677C82.1741 26.9345 81.904 26.9464 81.6935 26.8352C80.756 26.0566 80.5852 25.6952 80.0728 24.9524C78.5236 26.5333 77.4233 27.006 75.4173 27.006C73.0379 27.006 71.1908 25.5402 71.1908 22.6047C71.1908 20.3127 72.4302 18.7516 74.2018 17.989C75.7351 17.3137 77.8761 17.1945 79.5127 17.0078V16.6424C79.5127 15.9711 79.5644 15.1766 79.1671 14.5967C78.8255 14.0763 78.1661 13.8618 77.5822 13.8618C76.5057 13.8618 75.5484 14.4139 75.314 15.5579C75.2664 15.8122 75.0797 16.0624 74.8215 16.0743L72.0846 15.7804C71.8542 15.7288 71.596 15.5421 71.6635 15.1885C72.2911 11.8677 75.2942 10.8667 77.9794 10.8667C79.3538 10.8667 81.1493 11.2321 82.2337 12.2729C83.6081 13.5559 83.477 15.268 83.477 17.131V21.5322C83.477 22.855 84.0252 23.4349 84.5416 24.15C84.7204 24.4042 84.7601 24.71 84.5297 24.9007C83.9537 25.3814 82.9289 26.2751 82.3648 26.7756L82.3608 26.7677Z" stroke="#98989A" stroke-width="1.76" mask="url(#path-2-inside-1_230_4515)"/>
<path fill-rule="evenodd" clip-rule="evenodd" d="M42.4872 19.8837C42.4872 20.984 42.515 21.9016 41.9589 22.8788C41.51 23.6733 40.799 24.1619 40.0045 24.1619C38.9201 24.1619 38.2885 23.3356 38.2885 22.1161C38.2885 19.709 40.4454 19.272 42.4872 19.272V19.8837ZM45.3353 26.7677C45.1486 26.9345 44.8785 26.9464 44.6679 26.8352C43.7305 26.0566 43.5637 25.6952 43.0473 24.9523C41.4981 26.5333 40.4017 27.006 38.3918 27.006C36.0164 27.006 34.1653 25.5402 34.1653 22.6047C34.1653 20.3127 35.4086 18.7516 37.1763 17.989C38.7095 17.3137 40.8506 17.1945 42.4872 17.0078V16.6424C42.4872 15.9711 42.5388 15.1766 42.1456 14.5967C41.8 14.0763 41.1406 13.8618 40.5606 13.8618C39.4841 13.8618 38.5229 14.4139 38.2885 15.5579C38.2408 15.8122 38.0541 16.0624 37.7999 16.0743L35.059 15.7804C34.8287 15.7287 34.5744 15.5421 34.638 15.1885C35.2696 11.8677 38.2686 10.8667 40.9539 10.8667C42.3283 10.8667 44.1237 11.2321 45.2082 12.2729C46.5826 13.5559 46.4515 15.268 46.4515 17.131V21.5322C46.4515 22.855 46.9997 23.4349 47.5161 24.1499C47.6988 24.4042 47.7385 24.71 47.5081 24.9007C46.9321 25.3813 45.9073 26.2751 45.3432 26.7756L45.3353 26.7677Z" stroke="#98989A" stroke-width="1.76" mask="url(#path-2-inside-1_230_4515)"/>
</g>
</g>
<defs>
<clipPath id="clip0_230_4515">
<rect width="160" height="40" fill="white" transform="translate(0 0.866699)"/>
</clipPath>
<clipPath id="clip1_230_4515">
<rect width="91.6666" height="40" fill="white" transform="translate(34.1667 0.866699)"/>
</clipPath>
</defs>
</svg>
