<svg width="92" height="40" viewBox="0 0 92 40" fill="none" xmlns="http://www.w3.org/2000/svg">
<g clip-path="url(#clip0_230_4516)">
<path d="M13.5385 28.0274L13.5385 28.0274C13.5153 28.0137 13.4951 28.0044 13.4782 27.998C13.487 28.0083 13.4981 28.0199 13.5119 28.0324L13.5385 28.0274ZM13.5385 28.0274L13.5399 28.0282M13.5385 28.0274L13.5399 28.0282M13.5399 28.0282C20.4274 32.0356 28.9369 34.4435 37.7258 34.4435C43.658 34.4435 50.1795 33.2168 56.1781 30.6706L56.1782 30.6706M13.5399 28.0282L56.1782 30.6706M56.1782 30.6706C56.4554 30.5528 56.6358 30.6616 56.695 30.7476C56.7248 30.7908 56.7346 30.8372 56.7234 30.8878C56.7119 30.9398 56.6681 31.0376 56.515 31.1513C51.3019 34.9935 43.7125 37.0591 37.1697 37.0591M56.1782 30.6706L37.1697 37.0591M37.1697 37.0591C28.0019 37.0591 19.7528 33.6692 13.512 28.0325L37.1697 37.0591ZM53.0984 28.2969C54.4912 27.3942 56.3007 27.0535 57.8788 27.0318C58.698 27.0205 59.436 27.0956 59.9955 27.213C60.2759 27.2719 60.5021 27.3394 60.6674 27.4073C60.7499 27.4412 60.8109 27.4726 60.8533 27.4992C60.884 27.5184 60.8985 27.5312 60.9032 27.5355C60.9033 27.5358 60.9035 27.5361 60.9037 27.5366C60.9095 27.5486 60.9413 27.6142 60.9645 27.777C60.9892 27.95 60.9976 28.1829 60.9828 28.4676C60.9533 29.0354 60.8339 29.7673 60.6085 30.557C60.1738 32.0802 59.3651 33.7491 58.1269 34.8636C58.4458 34.0629 58.8866 32.927 59.201 31.8569C59.3808 31.2452 59.525 30.6364 59.5779 30.114C59.6043 29.8528 59.6096 29.5985 59.579 29.3685C59.5488 29.1423 59.4795 28.9056 59.3284 28.712C59.3284 28.712 59.3283 28.7119 59.3283 28.7118L58.9815 28.9826L53.0984 28.2969ZM52.7878 28.548C52.7877 28.548 52.7879 28.5475 52.7882 28.5467L52.7878 28.548Z" fill="#98989A" stroke="#98989A" stroke-width="0.88"/>
<mask id="path-2-inside-1_230_4516" fill="white">
<path fill-rule="evenodd" clip-rule="evenodd" d="M52.913 13.003V10.9295C52.913 10.6157 53.1514 10.4052 53.4374 10.4052H62.7205C63.0185 10.4052 63.2568 10.6197 63.2568 10.9295V12.7051C63.2528 13.003 63.0026 13.3923 62.5577 14.008L57.7473 20.8761C59.5348 20.8324 61.4216 21.0985 63.0423 22.0121C63.4077 22.2187 63.507 22.5206 63.5349 22.8185V25.031C63.5349 25.3329 63.2012 25.6865 62.8516 25.5037C59.9956 24.0062 56.2021 23.8433 53.0441 25.5196C52.7224 25.6944 52.3847 25.3449 52.3847 25.043V22.9416C52.3847 22.604 52.3887 22.028 52.7263 21.5156L58.2994 13.5234H53.4493C53.1514 13.5234 52.913 13.3129 52.913 13.003Z"/>
<path fill-rule="evenodd" clip-rule="evenodd" d="M19.0495 25.9407H16.2252C15.9551 25.9209 15.7406 25.7183 15.7207 25.4601V10.9653C15.7207 10.6753 15.963 10.4449 16.2649 10.4449H18.8985C19.1726 10.4568 19.3911 10.6674 19.4109 10.9295V12.8243H19.4626C20.1498 10.9931 21.4408 10.1391 23.1806 10.1391C24.9483 10.1391 26.0526 10.9931 26.847 12.8243C27.5302 10.9931 29.0834 10.1391 30.7478 10.1391C31.9315 10.1391 33.2265 10.6276 34.0169 11.724C34.9107 12.9435 34.728 14.7151 34.728 16.2683L34.724 25.4164C34.724 25.7064 34.4817 25.9407 34.1798 25.9407H31.3595C31.0775 25.9209 30.8511 25.6944 30.8511 25.4164V17.734C30.8511 17.1223 30.9067 15.5969 30.7716 15.017C30.5611 14.0438 29.9295 13.7697 29.1112 13.7697C28.428 13.7697 27.713 14.2265 27.423 14.9574C27.133 15.6883 27.1608 16.9118 27.1608 17.734V25.4164C27.1608 25.7064 26.9185 25.9407 26.6166 25.9407H23.7963C23.5103 25.9209 23.2879 25.6944 23.2879 25.4164L23.2839 17.734C23.2839 16.1173 23.55 13.7379 21.544 13.7379C19.5142 13.7379 19.5937 16.0577 19.5937 17.734V25.4164C19.5937 25.7064 19.3513 25.9407 19.0495 25.9407Z"/>
<path fill-rule="evenodd" clip-rule="evenodd" d="M71.2489 10.1391C75.4396 10.1391 77.7078 13.7379 77.7078 18.314C77.7078 22.7351 75.2013 26.2426 71.2489 26.2426C67.1336 26.2426 64.8933 22.6437 64.8933 18.1591C64.8933 13.6466 67.1614 10.1391 71.2489 10.1391ZM71.2727 13.0984C69.1913 13.0984 69.0602 15.9346 69.0602 17.7022C69.0602 19.4739 69.0324 23.2555 71.2489 23.2555C73.4376 23.2555 73.5409 20.2048 73.5409 18.3457C73.5409 17.1223 73.4892 15.6605 73.1198 14.5006C72.802 13.4916 72.1704 13.0984 71.2727 13.0984Z"/>
<path fill-rule="evenodd" clip-rule="evenodd" d="M83.1419 25.9407H80.3296C80.0476 25.9209 79.8211 25.6944 79.8211 25.4164L79.8172 10.9176C79.841 10.6515 80.0754 10.4449 80.3614 10.4449H82.9791C83.2254 10.4568 83.4279 10.6237 83.4836 10.8501V13.0666H83.5352C84.3257 11.0845 85.4339 10.1391 87.3843 10.1391C88.6515 10.1391 89.8868 10.5959 90.6813 11.8471C91.4201 13.007 91.4201 14.9574 91.4201 16.3596V25.4839C91.3884 25.7381 91.154 25.9407 90.8759 25.9407H88.0437C87.7855 25.9209 87.571 25.7302 87.5432 25.4839V17.6109C87.5432 16.026 87.7259 13.7061 85.7756 13.7061C85.0884 13.7061 84.4568 14.1669 84.143 14.866C83.7457 15.7519 83.6941 16.6337 83.6941 17.6109V25.4164C83.6901 25.7064 83.4438 25.9407 83.1419 25.9407Z"/>
<path fill-rule="evenodd" clip-rule="evenodd" d="M45.5127 19.017C45.5127 20.1174 45.5405 21.0349 44.9844 22.0121C44.5355 22.8066 43.8205 23.2952 43.0301 23.2952C41.9456 23.2952 41.3101 22.4689 41.3101 21.2495C41.3101 18.8423 43.467 18.4053 45.5127 18.4053V19.017ZM48.3608 25.901C48.1741 26.0678 47.904 26.0797 47.6935 25.9685C46.756 25.1899 46.5852 24.8285 46.0728 24.0857C44.5236 25.6666 43.4233 26.1393 41.4173 26.1393C39.0379 26.1393 37.1908 24.6735 37.1908 21.738C37.1908 19.446 38.4302 17.8849 40.2018 17.1223C41.7351 16.447 43.8761 16.3278 45.5127 16.1411V15.7757C45.5127 15.1044 45.5644 14.3099 45.1671 13.73C44.8255 13.2096 44.1661 12.9951 43.5822 12.9951C42.5057 12.9951 41.5484 13.5472 41.314 14.6912C41.2664 14.9455 41.0797 15.1957 40.8215 15.2076L38.0846 14.9137C37.8542 14.8621 37.596 14.6754 37.6635 14.3218C38.2911 11.001 41.2942 10 43.9794 10C45.3538 10 47.1493 10.3654 48.2337 11.4062C49.6081 12.6892 49.477 14.4013 49.477 16.2643V20.6655C49.477 21.9883 50.0252 22.5682 50.5416 23.2833C50.7204 23.5375 50.7601 23.8433 50.5297 24.034C49.9537 24.5147 48.9289 25.4084 48.3648 25.9089L48.3608 25.901Z"/>
<path fill-rule="evenodd" clip-rule="evenodd" d="M8.48717 19.017C8.48717 20.1173 8.51497 21.0349 7.95886 22.0121C7.50999 22.8066 6.79896 23.2952 6.00451 23.2952C4.92008 23.2952 4.28849 22.4689 4.28849 21.2494C4.28849 18.8423 6.44543 18.4053 8.48717 18.4053V19.017ZM11.3353 25.901C11.1486 26.0678 10.8785 26.0797 10.6679 25.9685C9.73049 25.1899 9.56365 24.8285 9.04726 24.0856C7.49808 25.6666 6.40173 26.1393 4.39177 26.1393C2.01635 26.1393 0.165283 24.6735 0.165283 21.738C0.165283 19.446 1.4086 17.8849 3.17626 17.1223C4.70955 16.447 6.8506 16.3278 8.48717 16.1411V15.7757C8.48717 15.1044 8.53881 14.3099 8.14556 13.73C7.79997 13.2096 7.14057 12.9951 6.56062 12.9951C5.48414 12.9951 4.52285 13.5472 4.28849 14.6912C4.24082 14.9455 4.05413 15.1957 3.7999 15.2076L1.05904 14.9137C0.82865 14.8621 0.574425 14.6754 0.637982 14.3218C1.26957 11.001 4.26863 10 6.95388 10C8.32828 10 10.1237 10.3654 11.2082 11.4062C12.5826 12.6892 12.4515 14.4013 12.4515 16.2643V20.6655C12.4515 21.9883 12.9997 22.5682 13.5161 23.2832C13.6988 23.5375 13.7385 23.8433 13.5081 24.034C12.9321 24.5146 11.9073 25.4084 11.3432 25.9089L11.3353 25.901Z"/>
</mask>
<path fill-rule="evenodd" clip-rule="evenodd" d="M52.913 13.003V10.9295C52.913 10.6157 53.1514 10.4052 53.4374 10.4052H62.7205C63.0185 10.4052 63.2568 10.6197 63.2568 10.9295V12.7051C63.2528 13.003 63.0026 13.3923 62.5577 14.008L57.7473 20.8761C59.5348 20.8324 61.4216 21.0985 63.0423 22.0121C63.4077 22.2187 63.507 22.5206 63.5349 22.8185V25.031C63.5349 25.3329 63.2012 25.6865 62.8516 25.5037C59.9956 24.0062 56.2021 23.8433 53.0441 25.5196C52.7224 25.6944 52.3847 25.3449 52.3847 25.043V22.9416C52.3847 22.604 52.3887 22.028 52.7263 21.5156L58.2994 13.5234H53.4493C53.1514 13.5234 52.913 13.3129 52.913 13.003Z" fill="#98989A"/>
<path fill-rule="evenodd" clip-rule="evenodd" d="M19.0495 25.9407H16.2252C15.9551 25.9209 15.7406 25.7183 15.7207 25.4601V10.9653C15.7207 10.6753 15.963 10.4449 16.2649 10.4449H18.8985C19.1726 10.4568 19.3911 10.6674 19.4109 10.9295V12.8243H19.4626C20.1498 10.9931 21.4408 10.1391 23.1806 10.1391C24.9483 10.1391 26.0526 10.9931 26.847 12.8243C27.5302 10.9931 29.0834 10.1391 30.7478 10.1391C31.9315 10.1391 33.2265 10.6276 34.0169 11.724C34.9107 12.9435 34.728 14.7151 34.728 16.2683L34.724 25.4164C34.724 25.7064 34.4817 25.9407 34.1798 25.9407H31.3595C31.0775 25.9209 30.8511 25.6944 30.8511 25.4164V17.734C30.8511 17.1223 30.9067 15.5969 30.7716 15.017C30.5611 14.0438 29.9295 13.7697 29.1112 13.7697C28.428 13.7697 27.713 14.2265 27.423 14.9574C27.133 15.6883 27.1608 16.9118 27.1608 17.734V25.4164C27.1608 25.7064 26.9185 25.9407 26.6166 25.9407H23.7963C23.5103 25.9209 23.2879 25.6944 23.2879 25.4164L23.2839 17.734C23.2839 16.1173 23.55 13.7379 21.544 13.7379C19.5142 13.7379 19.5937 16.0577 19.5937 17.734V25.4164C19.5937 25.7064 19.3513 25.9407 19.0495 25.9407Z" fill="#98989A"/>
<path fill-rule="evenodd" clip-rule="evenodd" d="M71.2489 10.1391C75.4396 10.1391 77.7078 13.7379 77.7078 18.314C77.7078 22.7351 75.2013 26.2426 71.2489 26.2426C67.1336 26.2426 64.8933 22.6437 64.8933 18.1591C64.8933 13.6466 67.1614 10.1391 71.2489 10.1391ZM71.2727 13.0984C69.1913 13.0984 69.0602 15.9346 69.0602 17.7022C69.0602 19.4739 69.0324 23.2555 71.2489 23.2555C73.4376 23.2555 73.5409 20.2048 73.5409 18.3457C73.5409 17.1223 73.4892 15.6605 73.1198 14.5006C72.802 13.4916 72.1704 13.0984 71.2727 13.0984Z" fill="#98989A"/>
<path fill-rule="evenodd" clip-rule="evenodd" d="M83.1419 25.9407H80.3296C80.0476 25.9209 79.8211 25.6944 79.8211 25.4164L79.8172 10.9176C79.841 10.6515 80.0754 10.4449 80.3614 10.4449H82.9791C83.2254 10.4568 83.4279 10.6237 83.4836 10.8501V13.0666H83.5352C84.3257 11.0845 85.4339 10.1391 87.3843 10.1391C88.6515 10.1391 89.8868 10.5959 90.6813 11.8471C91.4201 13.007 91.4201 14.9574 91.4201 16.3596V25.4839C91.3884 25.7381 91.154 25.9407 90.8759 25.9407H88.0437C87.7855 25.9209 87.571 25.7302 87.5432 25.4839V17.6109C87.5432 16.026 87.7259 13.7061 85.7756 13.7061C85.0884 13.7061 84.4568 14.1669 84.143 14.866C83.7457 15.7519 83.6941 16.6337 83.6941 17.6109V25.4164C83.6901 25.7064 83.4438 25.9407 83.1419 25.9407Z" fill="#98989A"/>
<path fill-rule="evenodd" clip-rule="evenodd" d="M45.5127 19.017C45.5127 20.1174 45.5405 21.0349 44.9844 22.0121C44.5355 22.8066 43.8205 23.2952 43.0301 23.2952C41.9456 23.2952 41.3101 22.4689 41.3101 21.2495C41.3101 18.8423 43.467 18.4053 45.5127 18.4053V19.017ZM48.3608 25.901C48.1741 26.0678 47.904 26.0797 47.6935 25.9685C46.756 25.1899 46.5852 24.8285 46.0728 24.0857C44.5236 25.6666 43.4233 26.1393 41.4173 26.1393C39.0379 26.1393 37.1908 24.6735 37.1908 21.738C37.1908 19.446 38.4302 17.8849 40.2018 17.1223C41.7351 16.447 43.8761 16.3278 45.5127 16.1411V15.7757C45.5127 15.1044 45.5644 14.3099 45.1671 13.73C44.8255 13.2096 44.1661 12.9951 43.5822 12.9951C42.5057 12.9951 41.5484 13.5472 41.314 14.6912C41.2664 14.9455 41.0797 15.1957 40.8215 15.2076L38.0846 14.9137C37.8542 14.8621 37.596 14.6754 37.6635 14.3218C38.2911 11.001 41.2942 10 43.9794 10C45.3538 10 47.1493 10.3654 48.2337 11.4062C49.6081 12.6892 49.477 14.4013 49.477 16.2643V20.6655C49.477 21.9883 50.0252 22.5682 50.5416 23.2833C50.7204 23.5375 50.7601 23.8433 50.5297 24.034C49.9537 24.5147 48.9289 25.4084 48.3648 25.9089L48.3608 25.901Z" fill="#98989A"/>
<path fill-rule="evenodd" clip-rule="evenodd" d="M8.48717 19.017C8.48717 20.1173 8.51497 21.0349 7.95886 22.0121C7.50999 22.8066 6.79896 23.2952 6.00451 23.2952C4.92008 23.2952 4.28849 22.4689 4.28849 21.2494C4.28849 18.8423 6.44543 18.4053 8.48717 18.4053V19.017ZM11.3353 25.901C11.1486 26.0678 10.8785 26.0797 10.6679 25.9685C9.73049 25.1899 9.56365 24.8285 9.04726 24.0856C7.49808 25.6666 6.40173 26.1393 4.39177 26.1393C2.01635 26.1393 0.165283 24.6735 0.165283 21.738C0.165283 19.446 1.4086 17.8849 3.17626 17.1223C4.70955 16.447 6.8506 16.3278 8.48717 16.1411V15.7757C8.48717 15.1044 8.53881 14.3099 8.14556 13.73C7.79997 13.2096 7.14057 12.9951 6.56062 12.9951C5.48414 12.9951 4.52285 13.5472 4.28849 14.6912C4.24082 14.9455 4.05413 15.1957 3.7999 15.2076L1.05904 14.9137C0.82865 14.8621 0.574425 14.6754 0.637982 14.3218C1.26957 11.001 4.26863 10 6.95388 10C8.32828 10 10.1237 10.3654 11.2082 11.4062C12.5826 12.6892 12.4515 14.4013 12.4515 16.2643V20.6655C12.4515 21.9883 12.9997 22.5682 13.5161 23.2832C13.6988 23.5375 13.7385 23.8433 13.5081 24.034C12.9321 24.5146 11.9073 25.4084 11.3432 25.9089L11.3353 25.901Z" fill="#98989A"/>
<path fill-rule="evenodd" clip-rule="evenodd" d="M52.913 13.003V10.9295C52.913 10.6157 53.1514 10.4052 53.4374 10.4052H62.7205C63.0185 10.4052 63.2568 10.6197 63.2568 10.9295V12.7051C63.2528 13.003 63.0026 13.3923 62.5577 14.008L57.7473 20.8761C59.5348 20.8324 61.4216 21.0985 63.0423 22.0121C63.4077 22.2187 63.507 22.5206 63.5349 22.8185V25.031C63.5349 25.3329 63.2012 25.6865 62.8516 25.5037C59.9956 24.0062 56.2021 23.8433 53.0441 25.5196C52.7224 25.6944 52.3847 25.3449 52.3847 25.043V22.9416C52.3847 22.604 52.3887 22.028 52.7263 21.5156L58.2994 13.5234H53.4493C53.1514 13.5234 52.913 13.3129 52.913 13.003Z" stroke="#98989A" stroke-width="1.76" mask="url(#path-2-inside-1_230_4516)"/>
<path fill-rule="evenodd" clip-rule="evenodd" d="M19.0495 25.9407H16.2252C15.9551 25.9209 15.7406 25.7183 15.7207 25.4601V10.9653C15.7207 10.6753 15.963 10.4449 16.2649 10.4449H18.8985C19.1726 10.4568 19.3911 10.6674 19.4109 10.9295V12.8243H19.4626C20.1498 10.9931 21.4408 10.1391 23.1806 10.1391C24.9483 10.1391 26.0526 10.9931 26.847 12.8243C27.5302 10.9931 29.0834 10.1391 30.7478 10.1391C31.9315 10.1391 33.2265 10.6276 34.0169 11.724C34.9107 12.9435 34.728 14.7151 34.728 16.2683L34.724 25.4164C34.724 25.7064 34.4817 25.9407 34.1798 25.9407H31.3595C31.0775 25.9209 30.8511 25.6944 30.8511 25.4164V17.734C30.8511 17.1223 30.9067 15.5969 30.7716 15.017C30.5611 14.0438 29.9295 13.7697 29.1112 13.7697C28.428 13.7697 27.713 14.2265 27.423 14.9574C27.133 15.6883 27.1608 16.9118 27.1608 17.734V25.4164C27.1608 25.7064 26.9185 25.9407 26.6166 25.9407H23.7963C23.5103 25.9209 23.2879 25.6944 23.2879 25.4164L23.2839 17.734C23.2839 16.1173 23.55 13.7379 21.544 13.7379C19.5142 13.7379 19.5937 16.0577 19.5937 17.734V25.4164C19.5937 25.7064 19.3513 25.9407 19.0495 25.9407Z" stroke="#98989A" stroke-width="1.76" mask="url(#path-2-inside-1_230_4516)"/>
<path fill-rule="evenodd" clip-rule="evenodd" d="M71.2489 10.1391C75.4396 10.1391 77.7078 13.7379 77.7078 18.314C77.7078 22.7351 75.2013 26.2426 71.2489 26.2426C67.1336 26.2426 64.8933 22.6437 64.8933 18.1591C64.8933 13.6466 67.1614 10.1391 71.2489 10.1391ZM71.2727 13.0984C69.1913 13.0984 69.0602 15.9346 69.0602 17.7022C69.0602 19.4739 69.0324 23.2555 71.2489 23.2555C73.4376 23.2555 73.5409 20.2048 73.5409 18.3457C73.5409 17.1223 73.4892 15.6605 73.1198 14.5006C72.802 13.4916 72.1704 13.0984 71.2727 13.0984Z" stroke="#98989A" stroke-width="1.76" mask="url(#path-2-inside-1_230_4516)"/>
<path fill-rule="evenodd" clip-rule="evenodd" d="M83.1419 25.9407H80.3296C80.0476 25.9209 79.8211 25.6944 79.8211 25.4164L79.8172 10.9176C79.841 10.6515 80.0754 10.4449 80.3614 10.4449H82.9791C83.2254 10.4568 83.4279 10.6237 83.4836 10.8501V13.0666H83.5352C84.3257 11.0845 85.4339 10.1391 87.3843 10.1391C88.6515 10.1391 89.8868 10.5959 90.6813 11.8471C91.4201 13.007 91.4201 14.9574 91.4201 16.3596V25.4839C91.3884 25.7381 91.154 25.9407 90.8759 25.9407H88.0437C87.7855 25.9209 87.571 25.7302 87.5432 25.4839V17.6109C87.5432 16.026 87.7259 13.7061 85.7756 13.7061C85.0884 13.7061 84.4568 14.1669 84.143 14.866C83.7457 15.7519 83.6941 16.6337 83.6941 17.6109V25.4164C83.6901 25.7064 83.4438 25.9407 83.1419 25.9407Z" stroke="#98989A" stroke-width="1.76" mask="url(#path-2-inside-1_230_4516)"/>
<path fill-rule="evenodd" clip-rule="evenodd" d="M45.5127 19.017C45.5127 20.1174 45.5405 21.0349 44.9844 22.0121C44.5355 22.8066 43.8205 23.2952 43.0301 23.2952C41.9456 23.2952 41.3101 22.4689 41.3101 21.2495C41.3101 18.8423 43.467 18.4053 45.5127 18.4053V19.017ZM48.3608 25.901C48.1741 26.0678 47.904 26.0797 47.6935 25.9685C46.756 25.1899 46.5852 24.8285 46.0728 24.0857C44.5236 25.6666 43.4233 26.1393 41.4173 26.1393C39.0379 26.1393 37.1908 24.6735 37.1908 21.738C37.1908 19.446 38.4302 17.8849 40.2018 17.1223C41.7351 16.447 43.8761 16.3278 45.5127 16.1411V15.7757C45.5127 15.1044 45.5644 14.3099 45.1671 13.73C44.8255 13.2096 44.1661 12.9951 43.5822 12.9951C42.5057 12.9951 41.5484 13.5472 41.314 14.6912C41.2664 14.9455 41.0797 15.1957 40.8215 15.2076L38.0846 14.9137C37.8542 14.8621 37.596 14.6754 37.6635 14.3218C38.2911 11.001 41.2942 10 43.9794 10C45.3538 10 47.1493 10.3654 48.2337 11.4062C49.6081 12.6892 49.477 14.4013 49.477 16.2643V20.6655C49.477 21.9883 50.0252 22.5682 50.5416 23.2833C50.7204 23.5375 50.7601 23.8433 50.5297 24.034C49.9537 24.5147 48.9289 25.4084 48.3648 25.9089L48.3608 25.901Z" stroke="#98989A" stroke-width="1.76" mask="url(#path-2-inside-1_230_4516)"/>
<path fill-rule="evenodd" clip-rule="evenodd" d="M8.48717 19.017C8.48717 20.1173 8.51497 21.0349 7.95886 22.0121C7.50999 22.8066 6.79896 23.2952 6.00451 23.2952C4.92008 23.2952 4.28849 22.4689 4.28849 21.2494C4.28849 18.8423 6.44543 18.4053 8.48717 18.4053V19.017ZM11.3353 25.901C11.1486 26.0678 10.8785 26.0797 10.6679 25.9685C9.73049 25.1899 9.56365 24.8285 9.04726 24.0856C7.49808 25.6666 6.40173 26.1393 4.39177 26.1393C2.01635 26.1393 0.165283 24.6735 0.165283 21.738C0.165283 19.446 1.4086 17.8849 3.17626 17.1223C4.70955 16.447 6.8506 16.3278 8.48717 16.1411V15.7757C8.48717 15.1044 8.53881 14.3099 8.14556 13.73C7.79997 13.2096 7.14057 12.9951 6.56062 12.9951C5.48414 12.9951 4.52285 13.5472 4.28849 14.6912C4.24082 14.9455 4.05413 15.1957 3.7999 15.2076L1.05904 14.9137C0.82865 14.8621 0.574425 14.6754 0.637982 14.3218C1.26957 11.001 4.26863 10 6.95388 10C8.32828 10 10.1237 10.3654 11.2082 11.4062C12.5826 12.6892 12.4515 14.4013 12.4515 16.2643V20.6655C12.4515 21.9883 12.9997 22.5682 13.5161 23.2832C13.6988 23.5375 13.7385 23.8433 13.5081 24.034C12.9321 24.5146 11.9073 25.4084 11.3432 25.9089L11.3353 25.901Z" stroke="#98989A" stroke-width="1.76" mask="url(#path-2-inside-1_230_4516)"/>
</g>
<defs>
<clipPath id="clip0_230_4516">
<rect width="91.6666" height="40" fill="white" transform="translate(0.166687)"/>
</clipPath>
</defs>
</svg>
