<svg width="93" height="40" viewBox="0 0 93 40" fill="none" xmlns="http://www.w3.org/2000/svg">
<g clip-path="url(#clip0_230_4533)">
<path d="M3.42918 19.1467V32.3015C2.43413 32.4162 1.49367 32.5534 0.549756 32.6935V8.88124H3.32351L8.27099 22.7014L9.33881 22.516V8.88124H12.1695V31.252C11.6412 31.3313 11.1049 31.3908 10.5544 31.4475C10.418 31.4616 10.2806 31.4755 10.1423 31.4895C9.71031 31.5331 9.26912 31.5777 8.82282 31.6309L4.49968 18.969L3.42918 19.1467ZM19.8599 17.4865V18.0365H20.4099C21.1733 18.0365 22.1374 18.0181 23.0788 17.9998L23.134 17.9987C23.8266 17.9853 24.5042 17.9721 25.0846 17.9663V20.7695C23.4863 20.7702 21.7096 20.777 20.3825 20.8434L19.8599 20.8695V21.3927V27.2033V27.7895L20.4449 27.7522C21.1031 27.7102 21.7583 27.6644 22.412 27.6188C23.8651 27.5172 25.3114 27.4162 26.7691 27.3582V30.0394L17.0536 30.8072V8.88124H26.7691V11.6875H20.4099H19.8599V12.2375V17.4865ZM37.2427 29.6564C36.3023 29.6571 35.3597 29.6612 34.4366 29.6867V12.2376V11.6876H33.8866H30.384V8.88124H41.2956L41.2954 11.6876H37.7927H37.2427V12.2376V29.6564ZM47.643 17.218V17.768H48.193H52.9898V20.5742H48.193H47.643V21.1242V29.4366H44.9098V8.88124H54.7232V11.6875H48.193H47.643V12.2375V17.218ZM61.0708 26.5685V27.1066L61.6087 27.1184C63.2182 27.1537 64.8358 27.2534 66.4414 27.3524C66.8657 27.3786 67.2892 27.4047 67.7114 27.4295V30.182C64.5906 29.986 61.4564 29.796 58.2646 29.7173V8.88124H61.0708V26.5685ZM88.599 8.88124H91.6796L87.0409 20.0093L86.9568 20.211L87.0341 20.4154L91.6611 32.6552C90.8791 32.5368 90.0966 32.4031 89.3082 32.2684C89.0427 32.223 88.7765 32.1775 88.5094 32.1325L85.8152 25.1976L85.3284 23.9446L84.7973 25.1795L82.1106 31.426C81.5322 31.3383 80.9639 31.2745 80.4041 31.2156C80.2819 31.2027 80.1602 31.1901 80.039 31.1775C79.7065 31.143 79.377 31.1088 79.0471 31.0708L83.7799 20.2955L83.8712 20.0877L83.7893 19.8759L79.5376 8.88124H82.5585L84.9854 15.0986L85.4813 16.369L86.0055 15.11L88.599 8.88124ZM72.1073 30.5177V8.88124H74.8403V30.7178C73.9251 30.6285 72.9975 30.5704 72.1073 30.5177Z" fill="#98989A" stroke="#98989A" stroke-width="1.1"/>
</g>
<defs>
<clipPath id="clip0_230_4533">
<rect width="92.5" height="40" fill="white"/>
</clipPath>
</defs>
</svg>
