<svg width="108" height="40" viewBox="0 0 108 40" fill="none" xmlns="http://www.w3.org/2000/svg">
<g clip-path="url(#clip0_230_4530)">
<mask id="path-1-inside-1_230_4530" fill="white">
<path d="M37.6966 28.9787V16.8495H37.9127L46.7416 28.9787H49.5199V11.1668H46.4329V23.2654H46.2168L37.3879 11.1668H34.6096V28.9787H37.6966ZM58.2562 29.2537C62.3311 29.2537 64.8316 26.6262 64.8316 22.2267C64.8316 17.8577 62.3311 15.1997 58.2562 15.1997C54.2122 15.1997 51.6808 17.8577 51.6808 22.2267C51.7117 26.6262 54.1813 29.2537 58.2562 29.2537ZM58.2562 26.6873C56.0953 26.6873 54.8605 25.068 54.8605 22.2267C54.8605 19.4159 56.0953 17.7661 58.2562 17.7661C60.4171 17.7661 61.6519 19.4159 61.6519 22.2267C61.6519 25.068 60.4171 26.6873 58.2562 26.6873ZM67.6407 12.175V15.5663H65.4798V18.0105H67.6407V25.3736C67.6407 28.001 68.8755 29.0398 72.0243 29.0398C72.6108 29.0398 73.1974 28.9787 73.6604 28.887V26.504C73.29 26.5345 73.043 26.5651 72.6108 26.5651C71.3143 26.5651 70.7278 25.9846 70.7278 24.6403V18.0105H73.6604V15.5663H70.7278V12.175H67.6407ZM75.5127 28.9787H78.5997V15.4746H75.5127V28.9787ZM77.0562 13.2443C78.0749 13.2443 78.9084 12.4194 78.9084 11.4112C78.9084 10.3724 78.0749 9.54753 77.0562 9.54753C76.0374 9.54753 75.2039 10.3724 75.2039 11.4112C75.2039 12.4194 76.0374 13.2443 77.0562 13.2443ZM87.0581 29.2537C91.133 29.2537 93.6335 26.6262 93.6335 22.2267C93.6335 17.8577 91.133 15.1997 87.0581 15.1997C83.0141 15.1997 80.4828 17.8577 80.4828 22.2267C80.4828 26.6262 82.9524 29.2537 87.0581 29.2537ZM87.0581 26.6873C84.8972 26.6873 83.6624 25.068 83.6624 22.2267C83.6624 19.4159 84.8972 17.7661 87.0581 17.7661C89.1882 17.7661 90.4538 19.4159 90.4538 22.2267C90.423 25.068 89.1882 26.6873 87.0581 26.6873ZM95.4548 28.9787H98.5418V21.1268C98.5418 19.1409 99.7149 17.8883 101.536 17.8883C103.419 17.8883 104.284 18.927 104.284 20.974V28.9787H107.371V20.2408C107.371 17.0023 105.704 15.1997 102.678 15.1997C100.641 15.1997 99.2827 16.1162 98.6345 17.6439H98.4184V15.4746H95.424C95.4548 15.4746 95.4548 28.9787 95.4548 28.9787Z"/>
<path fill-rule="evenodd" clip-rule="evenodd" d="M5.01029 10.0267C5.90877 10.7516 6.23376 10.6944 7.91602 10.5799L23.7637 9.62618C24.1078 9.62618 23.8211 9.28284 23.7064 9.24469L21.0683 7.35631C20.5712 6.97482 19.883 6.51703 18.6022 6.63148L3.27068 7.75688C2.71629 7.8141 2.60159 8.10022 2.83099 8.31004L5.01029 10.0267ZM5.96612 13.7081V30.3411C5.96612 31.2376 6.40581 31.5619 7.41899 31.5047L24.8343 30.4937C25.8474 30.4365 25.9621 29.8261 25.9621 29.1013V12.5827C25.9621 11.8579 25.6754 11.4573 25.0637 11.5146L6.86461 12.5827C6.19552 12.64 5.96612 12.9833 5.96612 13.7081ZM23.152 14.6046C23.2667 15.1006 23.152 15.6156 22.655 15.6728L21.8138 15.8445V28.1285C21.0874 28.51 20.4183 28.7389 19.8448 28.7389C18.9463 28.7389 18.7169 28.4528 18.0478 27.6135L12.5614 19.0109V27.3274L14.301 27.7088C14.301 27.7088 14.301 28.7198 12.9055 28.7198L9.04391 28.9487C8.92921 28.7198 9.04391 28.1666 9.42624 28.0522L10.4394 27.7661V16.7791L9.04391 16.6647C8.92921 16.1687 9.21595 15.4439 9.99974 15.3867L14.1481 15.1006L19.8639 23.7986V16.1115L18.4111 15.9399C18.2964 15.3295 18.7552 14.8717 19.3095 14.8145L23.152 14.6046ZM1.98986 6.23091L17.9523 5.06737C19.9022 4.8957 20.4183 5.01014 21.6418 5.90665L26.7268 9.47359C27.5679 10.084 27.8547 10.2556 27.8547 10.9233V30.5128C27.8547 31.7336 27.415 32.4584 25.8474 32.5729L7.32341 33.6983C6.13817 33.7555 5.58379 33.5838 4.97206 32.8017L1.20608 27.9377C0.536994 27.0412 0.250244 26.3736 0.250244 25.5916V8.17652C0.250244 7.16557 0.709044 6.34536 1.98986 6.23091Z"/>
</mask>
<path d="M37.6966 28.9787V16.8495H37.9127L46.7416 28.9787H49.5199V11.1668H46.4329V23.2654H46.2168L37.3879 11.1668H34.6096V28.9787H37.6966ZM58.2562 29.2537C62.3311 29.2537 64.8316 26.6262 64.8316 22.2267C64.8316 17.8577 62.3311 15.1997 58.2562 15.1997C54.2122 15.1997 51.6808 17.8577 51.6808 22.2267C51.7117 26.6262 54.1813 29.2537 58.2562 29.2537ZM58.2562 26.6873C56.0953 26.6873 54.8605 25.068 54.8605 22.2267C54.8605 19.4159 56.0953 17.7661 58.2562 17.7661C60.4171 17.7661 61.6519 19.4159 61.6519 22.2267C61.6519 25.068 60.4171 26.6873 58.2562 26.6873ZM67.6407 12.175V15.5663H65.4798V18.0105H67.6407V25.3736C67.6407 28.001 68.8755 29.0398 72.0243 29.0398C72.6108 29.0398 73.1974 28.9787 73.6604 28.887V26.504C73.29 26.5345 73.043 26.5651 72.6108 26.5651C71.3143 26.5651 70.7278 25.9846 70.7278 24.6403V18.0105H73.6604V15.5663H70.7278V12.175H67.6407ZM75.5127 28.9787H78.5997V15.4746H75.5127V28.9787ZM77.0562 13.2443C78.0749 13.2443 78.9084 12.4194 78.9084 11.4112C78.9084 10.3724 78.0749 9.54753 77.0562 9.54753C76.0374 9.54753 75.2039 10.3724 75.2039 11.4112C75.2039 12.4194 76.0374 13.2443 77.0562 13.2443ZM87.0581 29.2537C91.133 29.2537 93.6335 26.6262 93.6335 22.2267C93.6335 17.8577 91.133 15.1997 87.0581 15.1997C83.0141 15.1997 80.4828 17.8577 80.4828 22.2267C80.4828 26.6262 82.9524 29.2537 87.0581 29.2537ZM87.0581 26.6873C84.8972 26.6873 83.6624 25.068 83.6624 22.2267C83.6624 19.4159 84.8972 17.7661 87.0581 17.7661C89.1882 17.7661 90.4538 19.4159 90.4538 22.2267C90.423 25.068 89.1882 26.6873 87.0581 26.6873ZM95.4548 28.9787H98.5418V21.1268C98.5418 19.1409 99.7149 17.8883 101.536 17.8883C103.419 17.8883 104.284 18.927 104.284 20.974V28.9787H107.371V20.2408C107.371 17.0023 105.704 15.1997 102.678 15.1997C100.641 15.1997 99.2827 16.1162 98.6345 17.6439H98.4184V15.4746H95.424C95.4548 15.4746 95.4548 28.9787 95.4548 28.9787Z" fill="#98989A"/>
<path fill-rule="evenodd" clip-rule="evenodd" d="M5.01029 10.0267C5.90877 10.7516 6.23376 10.6944 7.91602 10.5799L23.7637 9.62618C24.1078 9.62618 23.8211 9.28284 23.7064 9.24469L21.0683 7.35631C20.5712 6.97482 19.883 6.51703 18.6022 6.63148L3.27068 7.75688C2.71629 7.8141 2.60159 8.10022 2.83099 8.31004L5.01029 10.0267ZM5.96612 13.7081V30.3411C5.96612 31.2376 6.40581 31.5619 7.41899 31.5047L24.8343 30.4937C25.8474 30.4365 25.9621 29.8261 25.9621 29.1013V12.5827C25.9621 11.8579 25.6754 11.4573 25.0637 11.5146L6.86461 12.5827C6.19552 12.64 5.96612 12.9833 5.96612 13.7081ZM23.152 14.6046C23.2667 15.1006 23.152 15.6156 22.655 15.6728L21.8138 15.8445V28.1285C21.0874 28.51 20.4183 28.7389 19.8448 28.7389C18.9463 28.7389 18.7169 28.4528 18.0478 27.6135L12.5614 19.0109V27.3274L14.301 27.7088C14.301 27.7088 14.301 28.7198 12.9055 28.7198L9.04391 28.9487C8.92921 28.7198 9.04391 28.1666 9.42624 28.0522L10.4394 27.7661V16.7791L9.04391 16.6647C8.92921 16.1687 9.21595 15.4439 9.99974 15.3867L14.1481 15.1006L19.8639 23.7986V16.1115L18.4111 15.9399C18.2964 15.3295 18.7552 14.8717 19.3095 14.8145L23.152 14.6046ZM1.98986 6.23091L17.9523 5.06737C19.9022 4.8957 20.4183 5.01014 21.6418 5.90665L26.7268 9.47359C27.5679 10.084 27.8547 10.2556 27.8547 10.9233V30.5128C27.8547 31.7336 27.415 32.4584 25.8474 32.5729L7.32341 33.6983C6.13817 33.7555 5.58379 33.5838 4.97206 32.8017L1.20608 27.9377C0.536994 27.0412 0.250244 26.3736 0.250244 25.5916V8.17652C0.250244 7.16557 0.709044 6.34536 1.98986 6.23091Z" fill="#98989A"/>
<path d="M37.6966 28.9787V16.8495H37.9127L46.7416 28.9787H49.5199V11.1668H46.4329V23.2654H46.2168L37.3879 11.1668H34.6096V28.9787H37.6966ZM58.2562 29.2537C62.3311 29.2537 64.8316 26.6262 64.8316 22.2267C64.8316 17.8577 62.3311 15.1997 58.2562 15.1997C54.2122 15.1997 51.6808 17.8577 51.6808 22.2267C51.7117 26.6262 54.1813 29.2537 58.2562 29.2537ZM58.2562 26.6873C56.0953 26.6873 54.8605 25.068 54.8605 22.2267C54.8605 19.4159 56.0953 17.7661 58.2562 17.7661C60.4171 17.7661 61.6519 19.4159 61.6519 22.2267C61.6519 25.068 60.4171 26.6873 58.2562 26.6873ZM67.6407 12.175V15.5663H65.4798V18.0105H67.6407V25.3736C67.6407 28.001 68.8755 29.0398 72.0243 29.0398C72.6108 29.0398 73.1974 28.9787 73.6604 28.887V26.504C73.29 26.5345 73.043 26.5651 72.6108 26.5651C71.3143 26.5651 70.7278 25.9846 70.7278 24.6403V18.0105H73.6604V15.5663H70.7278V12.175H67.6407ZM75.5127 28.9787H78.5997V15.4746H75.5127V28.9787ZM77.0562 13.2443C78.0749 13.2443 78.9084 12.4194 78.9084 11.4112C78.9084 10.3724 78.0749 9.54753 77.0562 9.54753C76.0374 9.54753 75.2039 10.3724 75.2039 11.4112C75.2039 12.4194 76.0374 13.2443 77.0562 13.2443ZM87.0581 29.2537C91.133 29.2537 93.6335 26.6262 93.6335 22.2267C93.6335 17.8577 91.133 15.1997 87.0581 15.1997C83.0141 15.1997 80.4828 17.8577 80.4828 22.2267C80.4828 26.6262 82.9524 29.2537 87.0581 29.2537ZM87.0581 26.6873C84.8972 26.6873 83.6624 25.068 83.6624 22.2267C83.6624 19.4159 84.8972 17.7661 87.0581 17.7661C89.1882 17.7661 90.4538 19.4159 90.4538 22.2267C90.423 25.068 89.1882 26.6873 87.0581 26.6873ZM95.4548 28.9787H98.5418V21.1268C98.5418 19.1409 99.7149 17.8883 101.536 17.8883C103.419 17.8883 104.284 18.927 104.284 20.974V28.9787H107.371V20.2408C107.371 17.0023 105.704 15.1997 102.678 15.1997C100.641 15.1997 99.2827 16.1162 98.6345 17.6439H98.4184V15.4746H95.424C95.4548 15.4746 95.4548 28.9787 95.4548 28.9787Z" stroke="#98989A" stroke-width="1.83333" mask="url(#path-1-inside-1_230_4530)"/>
<path fill-rule="evenodd" clip-rule="evenodd" d="M5.01029 10.0267C5.90877 10.7516 6.23376 10.6944 7.91602 10.5799L23.7637 9.62618C24.1078 9.62618 23.8211 9.28284 23.7064 9.24469L21.0683 7.35631C20.5712 6.97482 19.883 6.51703 18.6022 6.63148L3.27068 7.75688C2.71629 7.8141 2.60159 8.10022 2.83099 8.31004L5.01029 10.0267ZM5.96612 13.7081V30.3411C5.96612 31.2376 6.40581 31.5619 7.41899 31.5047L24.8343 30.4937C25.8474 30.4365 25.9621 29.8261 25.9621 29.1013V12.5827C25.9621 11.8579 25.6754 11.4573 25.0637 11.5146L6.86461 12.5827C6.19552 12.64 5.96612 12.9833 5.96612 13.7081ZM23.152 14.6046C23.2667 15.1006 23.152 15.6156 22.655 15.6728L21.8138 15.8445V28.1285C21.0874 28.51 20.4183 28.7389 19.8448 28.7389C18.9463 28.7389 18.7169 28.4528 18.0478 27.6135L12.5614 19.0109V27.3274L14.301 27.7088C14.301 27.7088 14.301 28.7198 12.9055 28.7198L9.04391 28.9487C8.92921 28.7198 9.04391 28.1666 9.42624 28.0522L10.4394 27.7661V16.7791L9.04391 16.6647C8.92921 16.1687 9.21595 15.4439 9.99974 15.3867L14.1481 15.1006L19.8639 23.7986V16.1115L18.4111 15.9399C18.2964 15.3295 18.7552 14.8717 19.3095 14.8145L23.152 14.6046ZM1.98986 6.23091L17.9523 5.06737C19.9022 4.8957 20.4183 5.01014 21.6418 5.90665L26.7268 9.47359C27.5679 10.084 27.8547 10.2556 27.8547 10.9233V30.5128C27.8547 31.7336 27.415 32.4584 25.8474 32.5729L7.32341 33.6983C6.13817 33.7555 5.58379 33.5838 4.97206 32.8017L1.20608 27.9377C0.536994 27.0412 0.250244 26.3736 0.250244 25.5916V8.17652C0.250244 7.16557 0.709044 6.34536 1.98986 6.23091Z" stroke="#98989A" stroke-width="1.83333" mask="url(#path-1-inside-1_230_4530)"/>
</g>
<defs>
<clipPath id="clip0_230_4530">
<rect width="107.5" height="40" fill="white" transform="translate(0.25)"/>
</clipPath>
</defs>
</svg>
