<svg width="118" height="40" viewBox="0 0 118 40" fill="none" xmlns="http://www.w3.org/2000/svg">
<g clip-path="url(#clip0_230_4510)">
<mask id="path-1-inside-1_230_4510" fill="white">
<path d="M18.23 2.56561C8.56503 2.56561 0.72966 10.4008 0.72966 20.0657C0.72966 29.7311 8.56503 37.5656 18.23 37.5656C27.896 37.5656 35.7305 29.7311 35.7305 20.0657C35.7305 10.4014 27.896 2.56645 18.2298 2.56645L18.23 2.56561ZM26.2555 27.8058C25.9421 28.3199 25.2692 28.4829 24.7551 28.1673C20.6462 25.6575 15.4736 25.0891 9.38192 26.4809C8.7949 26.6146 8.20977 26.2468 8.07603 25.6596C7.94165 25.0724 8.30799 24.4872 8.89647 24.3535C15.5628 22.8305 21.281 23.4862 25.894 26.3053C26.4081 26.6209 26.5711 27.2917 26.2555 27.8058ZM28.3975 23.0407C28.0026 23.6827 27.1625 23.8854 26.5209 23.4904C21.8169 20.599 14.6463 19.7617 9.08225 21.4506C8.36065 21.6686 7.59851 21.2619 7.37951 20.5416C7.16217 19.82 7.56905 19.0593 8.28939 18.8399C14.645 16.9114 22.5462 17.8456 27.9482 21.1651C28.5898 21.5601 28.7925 22.4002 28.3975 23.0409V23.0407ZM28.5814 18.0788C22.9412 14.7287 13.6354 14.4206 8.25031 16.055C7.38557 16.3173 6.47108 15.8291 6.20903 14.9644C5.94697 14.0992 6.43472 13.1854 7.30009 12.9225C13.4818 11.0459 23.7583 11.4085 30.252 15.2634C31.0315 15.7251 31.2864 16.7296 30.8246 17.5064C30.3648 18.2842 29.3576 18.5406 28.5823 18.0788H28.5814ZM48.3423 18.7207C45.3205 18.0002 44.7834 17.4945 44.7834 16.4318C44.7834 15.4279 45.728 14.7523 47.1344 14.7523C48.4969 14.7523 49.8469 15.2653 51.2638 16.3215C51.3056 16.3535 51.3599 16.3662 51.4121 16.3578C51.4665 16.3499 51.5124 16.3209 51.5438 16.2772L53.0192 14.1974C53.0798 14.1118 53.063 13.9937 52.9815 13.9283C51.2951 12.5756 49.3976 11.9179 47.1783 11.9179C43.9161 11.9179 41.6362 13.8758 41.6362 16.6772C41.6362 19.6812 43.6027 20.7449 47.0006 21.566C49.8908 22.232 50.3798 22.7899 50.3798 23.7872C50.3798 24.8927 49.3934 25.5802 47.8052 25.5802C46.0414 25.5802 44.6016 24.9846 42.9925 23.5928C42.9528 23.5573 42.8984 23.5427 42.8483 23.5448C42.7939 23.5489 42.7459 23.574 42.7124 23.6137L41.0573 25.5823C40.9884 25.6659 40.9967 25.7871 41.0762 25.8581C42.9486 27.5299 45.2515 28.4118 47.7383 28.4118C51.2533 28.4118 53.5249 26.4913 53.5249 23.5176C53.5312 21.0084 52.0286 19.6187 48.3485 18.7235L48.3423 18.7207ZM61.4785 15.7407C59.9551 15.7407 58.7054 16.3409 57.6731 17.5707V16.1865C57.6731 16.0772 57.5853 15.9882 57.4766 15.9882H54.7704C54.6617 15.9882 54.574 16.0772 54.574 16.1865V31.5674C54.574 31.676 54.6617 31.7659 54.7704 31.7659H57.4766C57.5853 31.7659 57.6731 31.676 57.6731 31.5674V26.7128C58.7054 27.8685 59.9551 28.4348 61.4785 28.4348C64.3102 28.4348 67.1773 26.2552 67.1773 22.0884C67.1815 17.9208 64.3144 15.7405 61.4806 15.7405L61.4785 15.7407ZM64.0302 22.0884C64.0302 24.2093 62.724 25.6909 60.8516 25.6909C59.0022 25.6909 57.6062 24.1424 57.6062 22.0884C57.6062 20.0342 59.0022 18.4861 60.8516 18.4861C62.6927 18.4859 64.0302 20.0005 64.0302 22.0882V22.0884ZM74.5229 15.7407C70.8762 15.7407 68.0195 18.5485 68.0195 22.1337C68.0195 25.6805 70.8574 28.4578 74.479 28.4578C78.1382 28.4578 81.0032 25.6596 81.0032 22.0884C81.0032 18.5293 78.157 15.7412 74.5229 15.7412V15.7407ZM74.5229 25.7118C72.5836 25.7118 71.1207 24.1529 71.1207 22.0874C71.1207 20.0124 72.5334 18.5068 74.479 18.5068C76.4308 18.5068 77.902 20.0651 77.902 22.1327C77.902 24.2072 76.481 25.7118 74.5229 25.7118ZM88.7897 15.9882H85.8118V12.9442C85.8118 12.8351 85.724 12.7461 85.6153 12.7461H82.9091C82.8004 12.7461 82.7106 12.8351 82.7106 12.9442V15.9882H81.4107C81.3021 15.9882 81.2143 16.0772 81.2143 16.1865V18.5118C81.2143 18.6209 81.3021 18.7101 81.4107 18.7101H82.7106V24.7276C82.7106 27.158 83.9205 28.3909 86.3092 28.3909C87.2788 28.3909 88.0834 28.1903 88.8419 27.7598C88.9046 27.7264 88.9423 27.6595 88.9423 27.5884V25.3733C88.9423 25.3064 88.9067 25.2416 88.8482 25.2061C88.7897 25.1685 88.7166 25.1664 88.656 25.1978C88.1356 25.459 87.632 25.5802 87.0677 25.5802C86.2005 25.5802 85.8118 25.1852 85.8118 24.3033V18.7111H88.7897C88.8984 18.7111 88.9861 18.6221 88.9861 18.5128V16.1877C88.9903 16.0784 88.9025 15.9894 88.7918 15.9894L88.7897 15.9882ZM99.1633 16.0001V15.6262C99.1633 14.5264 99.5854 14.0359 100.53 14.0359C101.094 14.0359 101.548 14.1479 102.056 14.3172C102.118 14.3368 102.183 14.327 102.233 14.2896C102.285 14.2522 102.315 14.1922 102.315 14.1287V11.8488C102.315 11.7616 102.26 11.6845 102.175 11.6588C101.64 11.4994 100.954 11.3357 99.9261 11.3357C97.4288 11.3357 96.106 12.743 96.106 15.4039V15.9765H94.8061C94.6975 15.9765 94.6076 16.0655 94.6076 16.1746V18.5118C94.6076 18.6209 94.6975 18.7101 94.8061 18.7101H96.106V27.9897C96.106 28.1004 96.1958 28.1882 96.3045 28.1882H99.0087C99.1194 28.1882 99.2072 28.1004 99.2072 27.9897V18.7107H101.734L105.604 27.9897C105.165 28.9635 104.733 29.1579 104.143 29.1579C103.667 29.1579 103.163 29.0158 102.651 28.7336C102.603 28.7086 102.545 28.7044 102.494 28.719C102.442 28.7378 102.398 28.7754 102.377 28.8256L101.46 30.838C101.416 30.9342 101.454 31.0449 101.546 31.0951C102.503 31.6133 103.366 31.8349 104.434 31.8349C106.432 31.8349 107.537 30.9028 108.509 28.3993L113.202 16.2709C113.227 16.2099 113.219 16.1409 113.181 16.0868C113.146 16.0331 113.085 16.0007 113.021 16.0007H110.204C110.118 16.0007 110.043 16.0544 110.015 16.1336L107.129 24.3744L103.97 16.1282C103.941 16.0515 103.867 16.0007 103.786 16.0007H99.1633V16.0001ZM93.149 15.9882H90.4427C90.334 15.9882 90.2442 16.0772 90.2442 16.1865V27.9897C90.2442 28.1004 90.334 28.1882 90.4427 28.1882H93.149C93.2576 28.1882 93.3475 28.1004 93.3475 27.9897V16.1873C93.3475 16.078 93.2597 15.989 93.149 15.989V15.9882ZM91.8115 10.6135C90.7395 10.6135 89.8701 11.4812 89.8701 12.553C89.8701 13.6255 90.7395 14.4942 91.8115 14.4942C92.8836 14.4942 93.7508 13.6255 93.7508 12.553C93.7508 11.4814 92.8815 10.6135 91.8115 10.6135ZM115.514 19.7834C114.444 19.7834 113.61 18.9235 113.61 17.8792C113.61 16.8349 114.454 15.9652 115.524 15.9652C116.594 15.9652 117.428 16.8249 117.428 17.8683C117.428 18.9126 116.584 19.7834 115.514 19.7834ZM115.524 16.1545C114.548 16.1545 113.81 16.9298 113.81 17.8792C113.81 18.8282 114.544 19.593 115.514 19.593C116.49 19.593 117.227 18.8183 117.227 17.8683C117.227 16.9194 116.494 16.1545 115.524 16.1545ZM115.946 18.0641L116.485 18.8181H116.03L115.545 18.1264H115.129V18.8181H114.749V16.8195H115.639C116.105 16.8195 116.41 17.0571 116.41 17.4571C116.412 17.7847 116.222 17.9849 115.948 18.0641H115.946ZM115.624 17.1624H115.129V17.7946H115.624C115.871 17.7946 116.019 17.6736 116.019 17.4782C116.019 17.2725 115.871 17.1624 115.624 17.1624Z"/>
</mask>
<path d="M18.23 2.56561C8.56503 2.56561 0.72966 10.4008 0.72966 20.0657C0.72966 29.7311 8.56503 37.5656 18.23 37.5656C27.896 37.5656 35.7305 29.7311 35.7305 20.0657C35.7305 10.4014 27.896 2.56645 18.2298 2.56645L18.23 2.56561ZM26.2555 27.8058C25.9421 28.3199 25.2692 28.4829 24.7551 28.1673C20.6462 25.6575 15.4736 25.0891 9.38192 26.4809C8.7949 26.6146 8.20977 26.2468 8.07603 25.6596C7.94165 25.0724 8.30799 24.4872 8.89647 24.3535C15.5628 22.8305 21.281 23.4862 25.894 26.3053C26.4081 26.6209 26.5711 27.2917 26.2555 27.8058ZM28.3975 23.0407C28.0026 23.6827 27.1625 23.8854 26.5209 23.4904C21.8169 20.599 14.6463 19.7617 9.08225 21.4506C8.36065 21.6686 7.59851 21.2619 7.37951 20.5416C7.16217 19.82 7.56905 19.0593 8.28939 18.8399C14.645 16.9114 22.5462 17.8456 27.9482 21.1651C28.5898 21.5601 28.7925 22.4002 28.3975 23.0409V23.0407ZM28.5814 18.0788C22.9412 14.7287 13.6354 14.4206 8.25031 16.055C7.38557 16.3173 6.47108 15.8291 6.20903 14.9644C5.94697 14.0992 6.43472 13.1854 7.30009 12.9225C13.4818 11.0459 23.7583 11.4085 30.252 15.2634C31.0315 15.7251 31.2864 16.7296 30.8246 17.5064C30.3648 18.2842 29.3576 18.5406 28.5823 18.0788H28.5814ZM48.3423 18.7207C45.3205 18.0002 44.7834 17.4945 44.7834 16.4318C44.7834 15.4279 45.728 14.7523 47.1344 14.7523C48.4969 14.7523 49.8469 15.2653 51.2638 16.3215C51.3056 16.3535 51.3599 16.3662 51.4121 16.3578C51.4665 16.3499 51.5124 16.3209 51.5438 16.2772L53.0192 14.1974C53.0798 14.1118 53.063 13.9937 52.9815 13.9283C51.2951 12.5756 49.3976 11.9179 47.1783 11.9179C43.9161 11.9179 41.6362 13.8758 41.6362 16.6772C41.6362 19.6812 43.6027 20.7449 47.0006 21.566C49.8908 22.232 50.3798 22.7899 50.3798 23.7872C50.3798 24.8927 49.3934 25.5802 47.8052 25.5802C46.0414 25.5802 44.6016 24.9846 42.9925 23.5928C42.9528 23.5573 42.8984 23.5427 42.8483 23.5448C42.7939 23.5489 42.7459 23.574 42.7124 23.6137L41.0573 25.5823C40.9884 25.6659 40.9967 25.7871 41.0762 25.8581C42.9486 27.5299 45.2515 28.4118 47.7383 28.4118C51.2533 28.4118 53.5249 26.4913 53.5249 23.5176C53.5312 21.0084 52.0286 19.6187 48.3485 18.7235L48.3423 18.7207ZM61.4785 15.7407C59.9551 15.7407 58.7054 16.3409 57.6731 17.5707V16.1865C57.6731 16.0772 57.5853 15.9882 57.4766 15.9882H54.7704C54.6617 15.9882 54.574 16.0772 54.574 16.1865V31.5674C54.574 31.676 54.6617 31.7659 54.7704 31.7659H57.4766C57.5853 31.7659 57.6731 31.676 57.6731 31.5674V26.7128C58.7054 27.8685 59.9551 28.4348 61.4785 28.4348C64.3102 28.4348 67.1773 26.2552 67.1773 22.0884C67.1815 17.9208 64.3144 15.7405 61.4806 15.7405L61.4785 15.7407ZM64.0302 22.0884C64.0302 24.2093 62.724 25.6909 60.8516 25.6909C59.0022 25.6909 57.6062 24.1424 57.6062 22.0884C57.6062 20.0342 59.0022 18.4861 60.8516 18.4861C62.6927 18.4859 64.0302 20.0005 64.0302 22.0882V22.0884ZM74.5229 15.7407C70.8762 15.7407 68.0195 18.5485 68.0195 22.1337C68.0195 25.6805 70.8574 28.4578 74.479 28.4578C78.1382 28.4578 81.0032 25.6596 81.0032 22.0884C81.0032 18.5293 78.157 15.7412 74.5229 15.7412V15.7407ZM74.5229 25.7118C72.5836 25.7118 71.1207 24.1529 71.1207 22.0874C71.1207 20.0124 72.5334 18.5068 74.479 18.5068C76.4308 18.5068 77.902 20.0651 77.902 22.1327C77.902 24.2072 76.481 25.7118 74.5229 25.7118ZM88.7897 15.9882H85.8118V12.9442C85.8118 12.8351 85.724 12.7461 85.6153 12.7461H82.9091C82.8004 12.7461 82.7106 12.8351 82.7106 12.9442V15.9882H81.4107C81.3021 15.9882 81.2143 16.0772 81.2143 16.1865V18.5118C81.2143 18.6209 81.3021 18.7101 81.4107 18.7101H82.7106V24.7276C82.7106 27.158 83.9205 28.3909 86.3092 28.3909C87.2788 28.3909 88.0834 28.1903 88.8419 27.7598C88.9046 27.7264 88.9423 27.6595 88.9423 27.5884V25.3733C88.9423 25.3064 88.9067 25.2416 88.8482 25.2061C88.7897 25.1685 88.7166 25.1664 88.656 25.1978C88.1356 25.459 87.632 25.5802 87.0677 25.5802C86.2005 25.5802 85.8118 25.1852 85.8118 24.3033V18.7111H88.7897C88.8984 18.7111 88.9861 18.6221 88.9861 18.5128V16.1877C88.9903 16.0784 88.9025 15.9894 88.7918 15.9894L88.7897 15.9882ZM99.1633 16.0001V15.6262C99.1633 14.5264 99.5854 14.0359 100.53 14.0359C101.094 14.0359 101.548 14.1479 102.056 14.3172C102.118 14.3368 102.183 14.327 102.233 14.2896C102.285 14.2522 102.315 14.1922 102.315 14.1287V11.8488C102.315 11.7616 102.26 11.6845 102.175 11.6588C101.64 11.4994 100.954 11.3357 99.9261 11.3357C97.4288 11.3357 96.106 12.743 96.106 15.4039V15.9765H94.8061C94.6975 15.9765 94.6076 16.0655 94.6076 16.1746V18.5118C94.6076 18.6209 94.6975 18.7101 94.8061 18.7101H96.106V27.9897C96.106 28.1004 96.1958 28.1882 96.3045 28.1882H99.0087C99.1194 28.1882 99.2072 28.1004 99.2072 27.9897V18.7107H101.734L105.604 27.9897C105.165 28.9635 104.733 29.1579 104.143 29.1579C103.667 29.1579 103.163 29.0158 102.651 28.7336C102.603 28.7086 102.545 28.7044 102.494 28.719C102.442 28.7378 102.398 28.7754 102.377 28.8256L101.46 30.838C101.416 30.9342 101.454 31.0449 101.546 31.0951C102.503 31.6133 103.366 31.8349 104.434 31.8349C106.432 31.8349 107.537 30.9028 108.509 28.3993L113.202 16.2709C113.227 16.2099 113.219 16.1409 113.181 16.0868C113.146 16.0331 113.085 16.0007 113.021 16.0007H110.204C110.118 16.0007 110.043 16.0544 110.015 16.1336L107.129 24.3744L103.97 16.1282C103.941 16.0515 103.867 16.0007 103.786 16.0007H99.1633V16.0001ZM93.149 15.9882H90.4427C90.334 15.9882 90.2442 16.0772 90.2442 16.1865V27.9897C90.2442 28.1004 90.334 28.1882 90.4427 28.1882H93.149C93.2576 28.1882 93.3475 28.1004 93.3475 27.9897V16.1873C93.3475 16.078 93.2597 15.989 93.149 15.989V15.9882ZM91.8115 10.6135C90.7395 10.6135 89.8701 11.4812 89.8701 12.553C89.8701 13.6255 90.7395 14.4942 91.8115 14.4942C92.8836 14.4942 93.7508 13.6255 93.7508 12.553C93.7508 11.4814 92.8815 10.6135 91.8115 10.6135ZM115.514 19.7834C114.444 19.7834 113.61 18.9235 113.61 17.8792C113.61 16.8349 114.454 15.9652 115.524 15.9652C116.594 15.9652 117.428 16.8249 117.428 17.8683C117.428 18.9126 116.584 19.7834 115.514 19.7834ZM115.524 16.1545C114.548 16.1545 113.81 16.9298 113.81 17.8792C113.81 18.8282 114.544 19.593 115.514 19.593C116.49 19.593 117.227 18.8183 117.227 17.8683C117.227 16.9194 116.494 16.1545 115.524 16.1545ZM115.946 18.0641L116.485 18.8181H116.03L115.545 18.1264H115.129V18.8181H114.749V16.8195H115.639C116.105 16.8195 116.41 17.0571 116.41 17.4571C116.412 17.7847 116.222 17.9849 115.948 18.0641H115.946ZM115.624 17.1624H115.129V17.7946H115.624C115.871 17.7946 116.019 17.6736 116.019 17.4782C116.019 17.2725 115.871 17.1624 115.624 17.1624Z" fill="#98989A" stroke="#98989A" stroke-width="1.76" mask="url(#path-1-inside-1_230_4510)"/>
</g>
<defs>
<clipPath id="clip0_230_4510">
<rect width="116.667" height="40" fill="white" transform="translate(0.666656)"/>
</clipPath>
</defs>
</svg>
