<svg width="80" height="40" viewBox="0 0 80 40" fill="none" xmlns="http://www.w3.org/2000/svg">
<mask id="path-1-inside-1_230_4507" fill="white">
<path d="M0.00139618 29.4959L8.21342 16.7177H0.974219C0.91287 16.3496 0.886578 15.9464 0.886578 15.4995C0.886578 15.07 0.91287 14.6756 0.974219 14.3163H12.6919L12.8409 14.7107L4.56753 27.5152H12.3238C12.3852 27.9183 12.4115 28.339 12.4115 28.7597C12.4115 29.1628 12.3852 29.5484 12.3238 29.9165H0.150387L0.00139618 29.4959Z"/>
<path d="M23.6998 19.6363C23.6998 18.4356 23.393 17.6118 22.7883 17.1385C22.1836 16.674 21.2984 16.4374 20.1415 16.4374C19.4316 16.4374 18.7655 16.49 18.1521 16.6039C17.5298 16.7179 16.9338 16.8581 16.3379 17.0421C15.9522 16.3761 15.7594 15.5698 15.7594 14.6407C16.4518 14.4216 17.2055 14.2464 18.0381 14.1237C18.8707 14.001 19.6683 13.9396 20.4395 13.9396C22.464 13.9396 24.0065 14.4041 25.067 15.3244C26.1187 16.2446 26.6533 17.7257 26.6533 19.7503V29.5136C25.9434 29.6713 25.0845 29.8466 24.0679 30.0131C23.0512 30.1884 22.0171 30.2673 20.9654 30.2673C19.975 30.2673 19.0723 30.1796 18.2748 29.9956C17.4772 29.8115 16.7936 29.5223 16.2327 29.1104C15.6718 28.7073 15.2424 28.1902 14.9356 27.5591C14.6289 26.9281 14.4799 26.1656 14.4799 25.2805C14.4799 24.4128 14.6552 23.6416 15.0145 22.9842C15.3651 22.3269 15.8471 21.7748 16.4606 21.3453C17.0653 20.9071 17.7664 20.5829 18.564 20.3725C19.3527 20.1622 20.1853 20.0482 21.0618 20.0482C21.7103 20.0482 22.2449 20.0658 22.6568 20.0921C23.0688 20.1184 23.4193 20.1622 23.7085 20.1972V19.6363H23.6998ZM23.6998 22.5899C23.393 22.546 23.0074 22.511 22.5429 22.4672C22.0784 22.4233 21.684 22.4058 21.3597 22.4058C20.0977 22.4058 19.1424 22.6424 18.4851 23.1069C17.8278 23.5714 17.4947 24.2813 17.4947 25.2366C17.4947 25.8414 17.6087 26.3234 17.8278 26.6652C18.0469 27.007 18.3273 27.2699 18.6604 27.454C18.9934 27.638 19.3615 27.752 19.7734 27.787C20.1766 27.8308 20.5622 27.8484 20.9303 27.8484C21.3948 27.8484 21.8768 27.8221 22.3764 27.7695C22.8759 27.7169 23.3142 27.6468 23.6998 27.5416V22.5899Z"/>
<path d="M29.9398 14.317C30.1414 14.2731 30.3517 14.2469 30.5621 14.2293C30.7724 14.2118 30.9915 14.203 31.2194 14.203C31.4209 14.203 31.6313 14.2118 31.8592 14.2293C32.0783 14.2469 32.2974 14.2819 32.4989 14.317C32.5165 14.3608 32.5428 14.4835 32.5778 14.6938C32.6041 14.9042 32.6392 15.132 32.6655 15.3774C32.6918 15.6228 32.7268 15.8507 32.7531 16.0786C32.7794 16.3064 32.7969 16.4467 32.7969 16.508C32.9985 16.1837 33.2439 15.8682 33.5243 15.5615C33.8048 15.2547 34.1466 14.983 34.541 14.7376C34.9354 14.4923 35.3824 14.2994 35.8819 14.1592C36.3815 14.019 36.9336 13.9489 37.5383 13.9489C38.4498 13.9489 39.2999 14.0979 40.0799 14.4046C40.86 14.7114 41.526 15.1759 42.0869 15.8156C42.6479 16.4554 43.0773 17.2705 43.3928 18.2521C43.7083 19.2337 43.8661 20.3993 43.8661 21.7402C43.8661 24.4221 43.1386 26.5167 41.6926 28.0241C40.2377 29.5316 38.1869 30.2941 35.5313 30.2941C35.0844 30.2941 34.6286 30.2678 34.1641 30.2064C33.6996 30.1451 33.2877 30.0662 32.9459 29.961V37.1126C32.7005 37.1564 32.4464 37.1827 32.1659 37.2002C31.8942 37.2178 31.6401 37.2265 31.4209 37.2265C31.2018 37.2265 30.9477 37.2178 30.676 37.2002C30.4043 37.1827 30.1501 37.1476 29.931 37.1126V14.317H29.9398ZM32.9547 27.3668C33.3403 27.5071 33.7347 27.6122 34.1378 27.6736C34.541 27.7349 35.0668 27.7612 35.7242 27.7612C36.4516 27.7612 37.1264 27.6473 37.7312 27.4106C38.3359 27.174 38.8617 26.8147 39.2999 26.3327C39.7381 25.8419 40.0799 25.2284 40.3341 24.4922C40.5883 23.756 40.711 22.8708 40.711 21.8629C40.711 20.2416 40.413 18.9532 39.817 17.9979C39.2211 17.0426 38.2395 16.5694 36.881 16.5694C36.3727 16.5694 35.8907 16.657 35.4174 16.8411C34.9529 17.0251 34.5322 17.2968 34.1729 17.6649C33.8048 18.033 33.5156 18.4887 33.2877 19.0496C33.0598 19.6105 32.9547 20.2678 32.9547 21.0391V27.3668Z"/>
<path d="M47.6171 16.6826H45.6364C45.5926 16.5161 45.5663 16.3321 45.5488 16.1217C45.5312 15.9114 45.5225 15.701 45.5225 15.4995C45.5225 15.2979 45.5312 15.0876 45.5488 14.8772C45.5663 14.6669 45.6014 14.4741 45.6364 14.3163H50.5706V29.9253C50.3515 29.9691 50.0974 29.9954 49.8257 30.0129C49.554 30.0305 49.2998 30.0392 49.0807 30.0392C48.8792 30.0392 48.6425 30.0305 48.3621 30.0129C48.0904 29.9954 47.8362 29.9604 47.6171 29.9253V16.6826Z"/>
<path d="M57.0474 22.8618C57.0912 24.562 57.5294 25.8153 58.3707 26.6041C59.2121 27.3928 60.4566 27.7872 62.0955 27.7872C63.5328 27.7872 64.9088 27.5331 66.2059 27.0248C66.3724 27.3315 66.5039 27.6996 66.6003 28.1378C66.7055 28.576 66.7581 29.0055 66.7844 29.4349C66.1183 29.7154 65.3821 29.9345 64.5758 30.0747C63.7782 30.2149 62.8843 30.285 61.9115 30.285C60.4917 30.285 59.2735 30.0835 58.2568 29.6891C57.2402 29.2947 56.4076 28.7338 55.7503 28.0151C55.0929 27.2964 54.6109 26.4463 54.3042 25.456C53.9974 24.4744 53.8484 23.3964 53.8484 22.2132C53.8484 21.0563 53.9974 19.9784 54.2866 18.9705C54.5759 17.9626 55.0316 17.0949 55.6363 16.35C56.2411 15.6138 57.0123 15.0178 57.9325 14.5884C58.8528 14.1502 59.9483 13.9311 61.2016 13.9311C62.2796 13.9311 63.2173 14.1151 64.0324 14.4832C64.8475 14.8513 65.5223 15.3509 66.0745 15.9907C66.6178 16.6304 67.0385 17.3929 67.319 18.2693C67.5994 19.1545 67.7484 20.1098 67.7484 21.144C67.7484 21.4244 67.7396 21.7312 67.7133 22.0379C67.6958 22.3534 67.6695 22.6251 67.652 22.8442H57.0474V22.8618ZM64.7774 20.6094C64.7774 20.0397 64.6985 19.4963 64.5495 18.9792C64.4005 18.4622 64.1726 18.0152 63.8834 17.6296C63.5854 17.2439 63.2173 16.9372 62.7616 16.7006C62.3059 16.4639 61.7625 16.35 61.1315 16.35C59.8957 16.35 58.9492 16.7268 58.2831 17.4718C57.6258 18.2255 57.2226 19.2685 57.0824 20.6094H64.7774Z"/>
<path d="M71.0789 14.3163C71.298 14.2725 71.5171 14.2462 71.7186 14.2287C71.9202 14.2111 72.1306 14.2024 72.3584 14.2024C72.5775 14.2024 72.8054 14.2111 73.0245 14.2287C73.2436 14.2462 73.4539 14.2813 73.6292 14.3163C73.6906 14.6231 73.7519 15.0174 73.8133 15.517C73.8746 16.0166 73.9009 16.4372 73.9009 16.779C74.3304 16.0867 74.8913 15.4907 75.5924 14.9824C76.2935 14.4741 77.1875 14.2199 78.283 14.2199C78.4495 14.2199 78.616 14.2287 78.7826 14.2374C78.9578 14.2462 79.0981 14.2637 79.2208 14.2813C79.2646 14.4653 79.2909 14.6581 79.3084 14.8597C79.3259 15.0613 79.3347 15.2716 79.3347 15.4995C79.3347 15.7449 79.3172 15.999 79.2909 16.262C79.2646 16.5249 79.2208 16.779 79.1857 17.0244C79.0192 16.9806 78.8527 16.9631 78.6861 16.9631C78.5109 16.9631 78.3794 16.9631 78.2742 16.9631C77.7309 16.9631 77.205 17.042 76.7055 17.191C76.2059 17.3399 75.7589 17.6116 75.3645 17.9973C74.9702 18.3829 74.6546 18.9087 74.418 19.5836C74.1814 20.2497 74.0674 21.1173 74.0674 22.169V29.9253C73.8483 29.9691 73.5942 29.9954 73.3225 30.0129C73.0508 30.0305 72.7966 30.0392 72.5775 30.0392C72.3584 30.0392 72.1043 30.0305 71.8326 30.0129C71.5609 29.9954 71.298 29.9604 71.0526 29.9253V14.3163H71.0789Z"/>
<path d="M53.4364 5.13179H50.4916L52.5775 3.04592C52.411 2.81805 52.227 2.59895 52.0341 2.39737C51.8326 2.19579 51.6222 2.01175 51.3856 1.85399L49.2997 3.93986V0.995101C49.028 0.95128 48.7476 0.924988 48.4584 0.924988H48.4496C48.1604 0.924988 47.8799 0.95128 47.6082 0.995101V3.93986L45.5224 1.85399C45.2945 2.02051 45.0754 2.20456 44.8738 2.39737C44.6722 2.59895 44.497 2.80929 44.3304 3.04592L46.4251 5.13179H43.4803C43.4803 5.13179 43.4102 5.68394 43.4102 5.97315C43.4102 6.26237 43.4365 6.54282 43.4803 6.81451H46.4251L44.3392 8.90039C44.6635 9.35612 45.0666 9.75928 45.5311 10.0923L47.617 8.00644V10.9512C47.8887 10.995 48.1691 11.0213 48.4584 11.0213H48.4671C48.7563 11.0213 49.0368 10.995 49.3085 10.9512V8.00644L51.3944 10.0923C51.6222 9.9258 51.8413 9.74175 52.0429 9.54894C52.2445 9.34736 52.4285 9.13702 52.5863 8.90039L50.5004 6.81451H53.4452C53.489 6.54282 53.5153 6.26237 53.5153 5.97315V5.96439C53.5065 5.68394 53.489 5.40348 53.4364 5.13179ZM49.7204 5.98192C49.7204 6.35878 49.6503 6.71811 49.5276 7.05115C49.1945 7.17385 48.8352 7.24396 48.4584 7.24396C48.0815 7.24396 47.7222 7.17385 47.3891 7.05115C47.2664 6.71811 47.1963 6.35878 47.1963 5.98192V5.97315C47.1963 5.59629 47.2664 5.23696 47.3891 4.90392C47.7222 4.78123 48.0815 4.71111 48.4584 4.71111C48.8352 4.71111 49.1945 4.78123 49.5276 4.90392C49.6503 5.23696 49.7204 5.59629 49.7204 5.98192Z"/>
</mask>
<path d="M0.00139618 29.4959L8.21342 16.7177H0.974219C0.91287 16.3496 0.886578 15.9464 0.886578 15.4995C0.886578 15.07 0.91287 14.6756 0.974219 14.3163H12.6919L12.8409 14.7107L4.56753 27.5152H12.3238C12.3852 27.9183 12.4115 28.339 12.4115 28.7597C12.4115 29.1628 12.3852 29.5484 12.3238 29.9165H0.150387L0.00139618 29.4959Z" fill="#98989A"/>
<path d="M23.6998 19.6363C23.6998 18.4356 23.393 17.6118 22.7883 17.1385C22.1836 16.674 21.2984 16.4374 20.1415 16.4374C19.4316 16.4374 18.7655 16.49 18.1521 16.6039C17.5298 16.7179 16.9338 16.8581 16.3379 17.0421C15.9522 16.3761 15.7594 15.5698 15.7594 14.6407C16.4518 14.4216 17.2055 14.2464 18.0381 14.1237C18.8707 14.001 19.6683 13.9396 20.4395 13.9396C22.464 13.9396 24.0065 14.4041 25.067 15.3244C26.1187 16.2446 26.6533 17.7257 26.6533 19.7503V29.5136C25.9434 29.6713 25.0845 29.8466 24.0679 30.0131C23.0512 30.1884 22.0171 30.2673 20.9654 30.2673C19.975 30.2673 19.0723 30.1796 18.2748 29.9956C17.4772 29.8115 16.7936 29.5223 16.2327 29.1104C15.6718 28.7073 15.2424 28.1902 14.9356 27.5591C14.6289 26.9281 14.4799 26.1656 14.4799 25.2805C14.4799 24.4128 14.6552 23.6416 15.0145 22.9842C15.3651 22.3269 15.8471 21.7748 16.4606 21.3453C17.0653 20.9071 17.7664 20.5829 18.564 20.3725C19.3527 20.1622 20.1853 20.0482 21.0618 20.0482C21.7103 20.0482 22.2449 20.0658 22.6568 20.0921C23.0688 20.1184 23.4193 20.1622 23.7085 20.1972V19.6363H23.6998ZM23.6998 22.5899C23.393 22.546 23.0074 22.511 22.5429 22.4672C22.0784 22.4233 21.684 22.4058 21.3597 22.4058C20.0977 22.4058 19.1424 22.6424 18.4851 23.1069C17.8278 23.5714 17.4947 24.2813 17.4947 25.2366C17.4947 25.8414 17.6087 26.3234 17.8278 26.6652C18.0469 27.007 18.3273 27.2699 18.6604 27.454C18.9934 27.638 19.3615 27.752 19.7734 27.787C20.1766 27.8308 20.5622 27.8484 20.9303 27.8484C21.3948 27.8484 21.8768 27.8221 22.3764 27.7695C22.8759 27.7169 23.3142 27.6468 23.6998 27.5416V22.5899Z" fill="#98989A"/>
<path d="M29.9398 14.317C30.1414 14.2731 30.3517 14.2469 30.5621 14.2293C30.7724 14.2118 30.9915 14.203 31.2194 14.203C31.4209 14.203 31.6313 14.2118 31.8592 14.2293C32.0783 14.2469 32.2974 14.2819 32.4989 14.317C32.5165 14.3608 32.5428 14.4835 32.5778 14.6938C32.6041 14.9042 32.6392 15.132 32.6655 15.3774C32.6918 15.6228 32.7268 15.8507 32.7531 16.0786C32.7794 16.3064 32.7969 16.4467 32.7969 16.508C32.9985 16.1837 33.2439 15.8682 33.5243 15.5615C33.8048 15.2547 34.1466 14.983 34.541 14.7376C34.9354 14.4923 35.3824 14.2994 35.8819 14.1592C36.3815 14.019 36.9336 13.9489 37.5383 13.9489C38.4498 13.9489 39.2999 14.0979 40.0799 14.4046C40.86 14.7114 41.526 15.1759 42.0869 15.8156C42.6479 16.4554 43.0773 17.2705 43.3928 18.2521C43.7083 19.2337 43.8661 20.3993 43.8661 21.7402C43.8661 24.4221 43.1386 26.5167 41.6926 28.0241C40.2377 29.5316 38.1869 30.2941 35.5313 30.2941C35.0844 30.2941 34.6286 30.2678 34.1641 30.2064C33.6996 30.1451 33.2877 30.0662 32.9459 29.961V37.1126C32.7005 37.1564 32.4464 37.1827 32.1659 37.2002C31.8942 37.2178 31.6401 37.2265 31.4209 37.2265C31.2018 37.2265 30.9477 37.2178 30.676 37.2002C30.4043 37.1827 30.1501 37.1476 29.931 37.1126V14.317H29.9398ZM32.9547 27.3668C33.3403 27.5071 33.7347 27.6122 34.1378 27.6736C34.541 27.7349 35.0668 27.7612 35.7242 27.7612C36.4516 27.7612 37.1264 27.6473 37.7312 27.4106C38.3359 27.174 38.8617 26.8147 39.2999 26.3327C39.7381 25.8419 40.0799 25.2284 40.3341 24.4922C40.5883 23.756 40.711 22.8708 40.711 21.8629C40.711 20.2416 40.413 18.9532 39.817 17.9979C39.2211 17.0426 38.2395 16.5694 36.881 16.5694C36.3727 16.5694 35.8907 16.657 35.4174 16.8411C34.9529 17.0251 34.5322 17.2968 34.1729 17.6649C33.8048 18.033 33.5156 18.4887 33.2877 19.0496C33.0598 19.6105 32.9547 20.2678 32.9547 21.0391V27.3668Z" fill="#98989A"/>
<path d="M47.6171 16.6826H45.6364C45.5926 16.5161 45.5663 16.3321 45.5488 16.1217C45.5312 15.9114 45.5225 15.701 45.5225 15.4995C45.5225 15.2979 45.5312 15.0876 45.5488 14.8772C45.5663 14.6669 45.6014 14.4741 45.6364 14.3163H50.5706V29.9253C50.3515 29.9691 50.0974 29.9954 49.8257 30.0129C49.554 30.0305 49.2998 30.0392 49.0807 30.0392C48.8792 30.0392 48.6425 30.0305 48.3621 30.0129C48.0904 29.9954 47.8362 29.9604 47.6171 29.9253V16.6826Z" fill="#98989A"/>
<path d="M57.0474 22.8618C57.0912 24.562 57.5294 25.8153 58.3707 26.6041C59.2121 27.3928 60.4566 27.7872 62.0955 27.7872C63.5328 27.7872 64.9088 27.5331 66.2059 27.0248C66.3724 27.3315 66.5039 27.6996 66.6003 28.1378C66.7055 28.576 66.7581 29.0055 66.7844 29.4349C66.1183 29.7154 65.3821 29.9345 64.5758 30.0747C63.7782 30.2149 62.8843 30.285 61.9115 30.285C60.4917 30.285 59.2735 30.0835 58.2568 29.6891C57.2402 29.2947 56.4076 28.7338 55.7503 28.0151C55.0929 27.2964 54.6109 26.4463 54.3042 25.456C53.9974 24.4744 53.8484 23.3964 53.8484 22.2132C53.8484 21.0563 53.9974 19.9784 54.2866 18.9705C54.5759 17.9626 55.0316 17.0949 55.6363 16.35C56.2411 15.6138 57.0123 15.0178 57.9325 14.5884C58.8528 14.1502 59.9483 13.9311 61.2016 13.9311C62.2796 13.9311 63.2173 14.1151 64.0324 14.4832C64.8475 14.8513 65.5223 15.3509 66.0745 15.9907C66.6178 16.6304 67.0385 17.3929 67.319 18.2693C67.5994 19.1545 67.7484 20.1098 67.7484 21.144C67.7484 21.4244 67.7396 21.7312 67.7133 22.0379C67.6958 22.3534 67.6695 22.6251 67.652 22.8442H57.0474V22.8618ZM64.7774 20.6094C64.7774 20.0397 64.6985 19.4963 64.5495 18.9792C64.4005 18.4622 64.1726 18.0152 63.8834 17.6296C63.5854 17.2439 63.2173 16.9372 62.7616 16.7006C62.3059 16.4639 61.7625 16.35 61.1315 16.35C59.8957 16.35 58.9492 16.7268 58.2831 17.4718C57.6258 18.2255 57.2226 19.2685 57.0824 20.6094H64.7774Z" fill="#98989A"/>
<path d="M71.0789 14.3163C71.298 14.2725 71.5171 14.2462 71.7186 14.2287C71.9202 14.2111 72.1306 14.2024 72.3584 14.2024C72.5775 14.2024 72.8054 14.2111 73.0245 14.2287C73.2436 14.2462 73.4539 14.2813 73.6292 14.3163C73.6906 14.6231 73.7519 15.0174 73.8133 15.517C73.8746 16.0166 73.9009 16.4372 73.9009 16.779C74.3304 16.0867 74.8913 15.4907 75.5924 14.9824C76.2935 14.4741 77.1875 14.2199 78.283 14.2199C78.4495 14.2199 78.616 14.2287 78.7826 14.2374C78.9578 14.2462 79.0981 14.2637 79.2208 14.2813C79.2646 14.4653 79.2909 14.6581 79.3084 14.8597C79.3259 15.0613 79.3347 15.2716 79.3347 15.4995C79.3347 15.7449 79.3172 15.999 79.2909 16.262C79.2646 16.5249 79.2208 16.779 79.1857 17.0244C79.0192 16.9806 78.8527 16.9631 78.6861 16.9631C78.5109 16.9631 78.3794 16.9631 78.2742 16.9631C77.7309 16.9631 77.205 17.042 76.7055 17.191C76.2059 17.3399 75.7589 17.6116 75.3645 17.9973C74.9702 18.3829 74.6546 18.9087 74.418 19.5836C74.1814 20.2497 74.0674 21.1173 74.0674 22.169V29.9253C73.8483 29.9691 73.5942 29.9954 73.3225 30.0129C73.0508 30.0305 72.7966 30.0392 72.5775 30.0392C72.3584 30.0392 72.1043 30.0305 71.8326 30.0129C71.5609 29.9954 71.298 29.9604 71.0526 29.9253V14.3163H71.0789Z" fill="#98989A"/>
<path d="M53.4364 5.13179H50.4916L52.5775 3.04592C52.411 2.81805 52.227 2.59895 52.0341 2.39737C51.8326 2.19579 51.6222 2.01175 51.3856 1.85399L49.2997 3.93986V0.995101C49.028 0.95128 48.7476 0.924988 48.4584 0.924988H48.4496C48.1604 0.924988 47.8799 0.95128 47.6082 0.995101V3.93986L45.5224 1.85399C45.2945 2.02051 45.0754 2.20456 44.8738 2.39737C44.6722 2.59895 44.497 2.80929 44.3304 3.04592L46.4251 5.13179H43.4803C43.4803 5.13179 43.4102 5.68394 43.4102 5.97315C43.4102 6.26237 43.4365 6.54282 43.4803 6.81451H46.4251L44.3392 8.90039C44.6635 9.35612 45.0666 9.75928 45.5311 10.0923L47.617 8.00644V10.9512C47.8887 10.995 48.1691 11.0213 48.4584 11.0213H48.4671C48.7563 11.0213 49.0368 10.995 49.3085 10.9512V8.00644L51.3944 10.0923C51.6222 9.9258 51.8413 9.74175 52.0429 9.54894C52.2445 9.34736 52.4285 9.13702 52.5863 8.90039L50.5004 6.81451H53.4452C53.489 6.54282 53.5153 6.26237 53.5153 5.97315V5.96439C53.5065 5.68394 53.489 5.40348 53.4364 5.13179ZM49.7204 5.98192C49.7204 6.35878 49.6503 6.71811 49.5276 7.05115C49.1945 7.17385 48.8352 7.24396 48.4584 7.24396C48.0815 7.24396 47.7222 7.17385 47.3891 7.05115C47.2664 6.71811 47.1963 6.35878 47.1963 5.98192V5.97315C47.1963 5.59629 47.2664 5.23696 47.3891 4.90392C47.7222 4.78123 48.0815 4.71111 48.4584 4.71111C48.8352 4.71111 49.1945 4.78123 49.5276 4.90392C49.6503 5.23696 49.7204 5.59629 49.7204 5.98192Z" fill="#98989A"/>
<path d="M0.00139618 29.4959L8.21342 16.7177H0.974219C0.91287 16.3496 0.886578 15.9464 0.886578 15.4995C0.886578 15.07 0.91287 14.6756 0.974219 14.3163H12.6919L12.8409 14.7107L4.56753 27.5152H12.3238C12.3852 27.9183 12.4115 28.339 12.4115 28.7597C12.4115 29.1628 12.3852 29.5484 12.3238 29.9165H0.150387L0.00139618 29.4959Z" stroke="#98989A" stroke-width="1.76" mask="url(#path-1-inside-1_230_4507)"/>
<path d="M23.6998 19.6363C23.6998 18.4356 23.393 17.6118 22.7883 17.1385C22.1836 16.674 21.2984 16.4374 20.1415 16.4374C19.4316 16.4374 18.7655 16.49 18.1521 16.6039C17.5298 16.7179 16.9338 16.8581 16.3379 17.0421C15.9522 16.3761 15.7594 15.5698 15.7594 14.6407C16.4518 14.4216 17.2055 14.2464 18.0381 14.1237C18.8707 14.001 19.6683 13.9396 20.4395 13.9396C22.464 13.9396 24.0065 14.4041 25.067 15.3244C26.1187 16.2446 26.6533 17.7257 26.6533 19.7503V29.5136C25.9434 29.6713 25.0845 29.8466 24.0679 30.0131C23.0512 30.1884 22.0171 30.2673 20.9654 30.2673C19.975 30.2673 19.0723 30.1796 18.2748 29.9956C17.4772 29.8115 16.7936 29.5223 16.2327 29.1104C15.6718 28.7073 15.2424 28.1902 14.9356 27.5591C14.6289 26.9281 14.4799 26.1656 14.4799 25.2805C14.4799 24.4128 14.6552 23.6416 15.0145 22.9842C15.3651 22.3269 15.8471 21.7748 16.4606 21.3453C17.0653 20.9071 17.7664 20.5829 18.564 20.3725C19.3527 20.1622 20.1853 20.0482 21.0618 20.0482C21.7103 20.0482 22.2449 20.0658 22.6568 20.0921C23.0688 20.1184 23.4193 20.1622 23.7085 20.1972V19.6363H23.6998ZM23.6998 22.5899C23.393 22.546 23.0074 22.511 22.5429 22.4672C22.0784 22.4233 21.684 22.4058 21.3597 22.4058C20.0977 22.4058 19.1424 22.6424 18.4851 23.1069C17.8278 23.5714 17.4947 24.2813 17.4947 25.2366C17.4947 25.8414 17.6087 26.3234 17.8278 26.6652C18.0469 27.007 18.3273 27.2699 18.6604 27.454C18.9934 27.638 19.3615 27.752 19.7734 27.787C20.1766 27.8308 20.5622 27.8484 20.9303 27.8484C21.3948 27.8484 21.8768 27.8221 22.3764 27.7695C22.8759 27.7169 23.3142 27.6468 23.6998 27.5416V22.5899Z" stroke="#98989A" stroke-width="1.76" mask="url(#path-1-inside-1_230_4507)"/>
<path d="M29.9398 14.317C30.1414 14.2731 30.3517 14.2469 30.5621 14.2293C30.7724 14.2118 30.9915 14.203 31.2194 14.203C31.4209 14.203 31.6313 14.2118 31.8592 14.2293C32.0783 14.2469 32.2974 14.2819 32.4989 14.317C32.5165 14.3608 32.5428 14.4835 32.5778 14.6938C32.6041 14.9042 32.6392 15.132 32.6655 15.3774C32.6918 15.6228 32.7268 15.8507 32.7531 16.0786C32.7794 16.3064 32.7969 16.4467 32.7969 16.508C32.9985 16.1837 33.2439 15.8682 33.5243 15.5615C33.8048 15.2547 34.1466 14.983 34.541 14.7376C34.9354 14.4923 35.3824 14.2994 35.8819 14.1592C36.3815 14.019 36.9336 13.9489 37.5383 13.9489C38.4498 13.9489 39.2999 14.0979 40.0799 14.4046C40.86 14.7114 41.526 15.1759 42.0869 15.8156C42.6479 16.4554 43.0773 17.2705 43.3928 18.2521C43.7083 19.2337 43.8661 20.3993 43.8661 21.7402C43.8661 24.4221 43.1386 26.5167 41.6926 28.0241C40.2377 29.5316 38.1869 30.2941 35.5313 30.2941C35.0844 30.2941 34.6286 30.2678 34.1641 30.2064C33.6996 30.1451 33.2877 30.0662 32.9459 29.961V37.1126C32.7005 37.1564 32.4464 37.1827 32.1659 37.2002C31.8942 37.2178 31.6401 37.2265 31.4209 37.2265C31.2018 37.2265 30.9477 37.2178 30.676 37.2002C30.4043 37.1827 30.1501 37.1476 29.931 37.1126V14.317H29.9398ZM32.9547 27.3668C33.3403 27.5071 33.7347 27.6122 34.1378 27.6736C34.541 27.7349 35.0668 27.7612 35.7242 27.7612C36.4516 27.7612 37.1264 27.6473 37.7312 27.4106C38.3359 27.174 38.8617 26.8147 39.2999 26.3327C39.7381 25.8419 40.0799 25.2284 40.3341 24.4922C40.5883 23.756 40.711 22.8708 40.711 21.8629C40.711 20.2416 40.413 18.9532 39.817 17.9979C39.2211 17.0426 38.2395 16.5694 36.881 16.5694C36.3727 16.5694 35.8907 16.657 35.4174 16.8411C34.9529 17.0251 34.5322 17.2968 34.1729 17.6649C33.8048 18.033 33.5156 18.4887 33.2877 19.0496C33.0598 19.6105 32.9547 20.2678 32.9547 21.0391V27.3668Z" stroke="#98989A" stroke-width="1.76" mask="url(#path-1-inside-1_230_4507)"/>
<path d="M47.6171 16.6826H45.6364C45.5926 16.5161 45.5663 16.3321 45.5488 16.1217C45.5312 15.9114 45.5225 15.701 45.5225 15.4995C45.5225 15.2979 45.5312 15.0876 45.5488 14.8772C45.5663 14.6669 45.6014 14.4741 45.6364 14.3163H50.5706V29.9253C50.3515 29.9691 50.0974 29.9954 49.8257 30.0129C49.554 30.0305 49.2998 30.0392 49.0807 30.0392C48.8792 30.0392 48.6425 30.0305 48.3621 30.0129C48.0904 29.9954 47.8362 29.9604 47.6171 29.9253V16.6826Z" stroke="#98989A" stroke-width="1.76" mask="url(#path-1-inside-1_230_4507)"/>
<path d="M57.0474 22.8618C57.0912 24.562 57.5294 25.8153 58.3707 26.6041C59.2121 27.3928 60.4566 27.7872 62.0955 27.7872C63.5328 27.7872 64.9088 27.5331 66.2059 27.0248C66.3724 27.3315 66.5039 27.6996 66.6003 28.1378C66.7055 28.576 66.7581 29.0055 66.7844 29.4349C66.1183 29.7154 65.3821 29.9345 64.5758 30.0747C63.7782 30.2149 62.8843 30.285 61.9115 30.285C60.4917 30.285 59.2735 30.0835 58.2568 29.6891C57.2402 29.2947 56.4076 28.7338 55.7503 28.0151C55.0929 27.2964 54.6109 26.4463 54.3042 25.456C53.9974 24.4744 53.8484 23.3964 53.8484 22.2132C53.8484 21.0563 53.9974 19.9784 54.2866 18.9705C54.5759 17.9626 55.0316 17.0949 55.6363 16.35C56.2411 15.6138 57.0123 15.0178 57.9325 14.5884C58.8528 14.1502 59.9483 13.9311 61.2016 13.9311C62.2796 13.9311 63.2173 14.1151 64.0324 14.4832C64.8475 14.8513 65.5223 15.3509 66.0745 15.9907C66.6178 16.6304 67.0385 17.3929 67.319 18.2693C67.5994 19.1545 67.7484 20.1098 67.7484 21.144C67.7484 21.4244 67.7396 21.7312 67.7133 22.0379C67.6958 22.3534 67.6695 22.6251 67.652 22.8442H57.0474V22.8618ZM64.7774 20.6094C64.7774 20.0397 64.6985 19.4963 64.5495 18.9792C64.4005 18.4622 64.1726 18.0152 63.8834 17.6296C63.5854 17.2439 63.2173 16.9372 62.7616 16.7006C62.3059 16.4639 61.7625 16.35 61.1315 16.35C59.8957 16.35 58.9492 16.7268 58.2831 17.4718C57.6258 18.2255 57.2226 19.2685 57.0824 20.6094H64.7774Z" stroke="#98989A" stroke-width="1.76" mask="url(#path-1-inside-1_230_4507)"/>
<path d="M71.0789 14.3163C71.298 14.2725 71.5171 14.2462 71.7186 14.2287C71.9202 14.2111 72.1306 14.2024 72.3584 14.2024C72.5775 14.2024 72.8054 14.2111 73.0245 14.2287C73.2436 14.2462 73.4539 14.2813 73.6292 14.3163C73.6906 14.6231 73.7519 15.0174 73.8133 15.517C73.8746 16.0166 73.9009 16.4372 73.9009 16.779C74.3304 16.0867 74.8913 15.4907 75.5924 14.9824C76.2935 14.4741 77.1875 14.2199 78.283 14.2199C78.4495 14.2199 78.616 14.2287 78.7826 14.2374C78.9578 14.2462 79.0981 14.2637 79.2208 14.2813C79.2646 14.4653 79.2909 14.6581 79.3084 14.8597C79.3259 15.0613 79.3347 15.2716 79.3347 15.4995C79.3347 15.7449 79.3172 15.999 79.2909 16.262C79.2646 16.5249 79.2208 16.779 79.1857 17.0244C79.0192 16.9806 78.8527 16.9631 78.6861 16.9631C78.5109 16.9631 78.3794 16.9631 78.2742 16.9631C77.7309 16.9631 77.205 17.042 76.7055 17.191C76.2059 17.3399 75.7589 17.6116 75.3645 17.9973C74.9702 18.3829 74.6546 18.9087 74.418 19.5836C74.1814 20.2497 74.0674 21.1173 74.0674 22.169V29.9253C73.8483 29.9691 73.5942 29.9954 73.3225 30.0129C73.0508 30.0305 72.7966 30.0392 72.5775 30.0392C72.3584 30.0392 72.1043 30.0305 71.8326 30.0129C71.5609 29.9954 71.298 29.9604 71.0526 29.9253V14.3163H71.0789Z" stroke="#98989A" stroke-width="1.76" mask="url(#path-1-inside-1_230_4507)"/>
<path d="M53.4364 5.13179H50.4916L52.5775 3.04592C52.411 2.81805 52.227 2.59895 52.0341 2.39737C51.8326 2.19579 51.6222 2.01175 51.3856 1.85399L49.2997 3.93986V0.995101C49.028 0.95128 48.7476 0.924988 48.4584 0.924988H48.4496C48.1604 0.924988 47.8799 0.95128 47.6082 0.995101V3.93986L45.5224 1.85399C45.2945 2.02051 45.0754 2.20456 44.8738 2.39737C44.6722 2.59895 44.497 2.80929 44.3304 3.04592L46.4251 5.13179H43.4803C43.4803 5.13179 43.4102 5.68394 43.4102 5.97315C43.4102 6.26237 43.4365 6.54282 43.4803 6.81451H46.4251L44.3392 8.90039C44.6635 9.35612 45.0666 9.75928 45.5311 10.0923L47.617 8.00644V10.9512C47.8887 10.995 48.1691 11.0213 48.4584 11.0213H48.4671C48.7563 11.0213 49.0368 10.995 49.3085 10.9512V8.00644L51.3944 10.0923C51.6222 9.9258 51.8413 9.74175 52.0429 9.54894C52.2445 9.34736 52.4285 9.13702 52.5863 8.90039L50.5004 6.81451H53.4452C53.489 6.54282 53.5153 6.26237 53.5153 5.97315V5.96439C53.5065 5.68394 53.489 5.40348 53.4364 5.13179ZM49.7204 5.98192C49.7204 6.35878 49.6503 6.71811 49.5276 7.05115C49.1945 7.17385 48.8352 7.24396 48.4584 7.24396C48.0815 7.24396 47.7222 7.17385 47.3891 7.05115C47.2664 6.71811 47.1963 6.35878 47.1963 5.98192V5.97315C47.1963 5.59629 47.2664 5.23696 47.3891 4.90392C47.7222 4.78123 48.0815 4.71111 48.4584 4.71111C48.8352 4.71111 49.1945 4.78123 49.5276 4.90392C49.6503 5.23696 49.7204 5.59629 49.7204 5.98192Z" stroke="#98989A" stroke-width="1.76" mask="url(#path-1-inside-1_230_4507)"/>
</svg>
