<?xml version="1.0" encoding="UTF-8"?>
<svg id="Logo" xmlns="http://www.w3.org/2000/svg" version="1.1" viewBox="0 0 351.8447 80">
  <defs>
    <style>
      .cls-1 {
        fill: #98989A;
        stroke-width: 0px;
      }
    </style>
  </defs>
  <path id="logo_ZM_wordmark" data-name="logo ZM wordmark" class="cls-1" d="M73.78641,78.83496H10.87913c-4.41368,0-8.3571-2.63501-10.04608-6.71268-1.68898-4.07767-.76362-8.72952,2.3574-11.84997L46.76392,16.69903H15.53398C6.95478,16.69903,0,9.74424,0,1.16505h58.0143c4.4133,0,8.35653,2.63425,10.0457,6.71192,1.68936,4.07767.76456,8.72876-2.35608,11.85073L22.13027,63.30097h36.12216c8.5792,0,15.53398,6.95478,15.53398,15.53398v.00002ZM351.8447,30.29126c0-16.70282-13.58862-30.29126-30.29126-30.29126-8.93433,0-16.97513,3.89032-22.52426,10.06333-5.54916-6.17301-13.58997-10.06333-22.52429-10.06333-16.70264,0-30.29126,13.58844-30.29126,30.29126v48.54369c8.57916,0,15.53397-6.95479,15.53397-15.53397V30.29126c0-8.13714,6.62015-14.75728,14.75729-14.75728s14.75729,6.62015,14.75729,14.75728v33.00973c0,8.57917,6.9548,15.53397,15.53397,15.53397V30.29126c0-8.13714,6.62015-14.75728,14.75729-14.75728s14.75729,6.62015,14.75729,14.75728v33.00973c0,8.57917,6.9548,15.53397,15.53397,15.53397l.00003-48.54369h-.00003ZM238.44662,40c0,22.09141-17.90858,40-40,40s-40-17.90859-40-40S176.35527,0,198.44662,0s40,17.90859,40,40ZM222.91264,40c0-13.51221-10.95381-24.46602-24.46602-24.46602s-24.46602,10.95381-24.46602,24.46602,10.95381,24.46602,24.46602,24.46602,24.46602-10.95381,24.46602-24.46602ZM152.23303,40c0,22.09141-17.90858,40-40,40s-40-17.90859-40-40S90.14166,0,112.23303,0s40,17.90859,40,40ZM136.69905,40c0-13.51221-10.95381-24.46602-24.46602-24.46602s-24.46602,10.95381-24.46602,24.46602,10.95381,24.46602,24.46602,24.46602,24.46602-10.95381,24.46602-24.46602Z"/>
</svg>