<svg width="82" height="40" viewBox="0 0 82 40" fill="none" xmlns="http://www.w3.org/2000/svg">
<g clip-path="url(#clip0_230_4513)">
<path d="M67.4763 18.9833L67.4763 18.9836L67.5205 19.9008L67.5211 19.9114V19.922V26.3252L67.5655 27.2277C67.5655 27.2285 67.5656 27.2294 67.5657 27.2302C67.6437 28.5048 68.5704 29.436 69.8585 29.5176C69.8594 29.5176 69.8603 29.5177 69.8612 29.5177L70.3072 29.5398V19.922V19.9112L70.3077 19.9004L70.3529 18.9831L70.3531 18.9806C70.3917 18.2793 70.4975 17.5708 70.8673 16.9376M67.4763 18.9833L77.9714 16.9502C77.6123 16.3266 77.0954 15.8084 76.4727 15.4476C75.8499 15.0867 75.143 14.8961 74.4231 14.8947C73.7033 14.8934 72.9957 15.0815 72.3716 15.4401C71.7475 15.7987 71.2287 16.3151 70.8673 16.9376M67.4763 18.9833C67.4414 18.2706 67.3344 17.5747 66.9701 16.9461M67.4763 18.9833L66.9701 16.9461M70.8673 16.9376C70.8672 16.9377 70.8672 16.9378 70.8671 16.9378L71.2476 17.1588L70.8677 16.9368C70.8676 16.937 70.8674 16.9373 70.8673 16.9376ZM66.9701 16.9461C66.6094 16.3228 66.0912 15.8052 65.4674 15.4453C64.8436 15.0855 64.1362 14.896 63.416 14.8958L63.4157 14.8958C62.6962 14.8962 61.9894 15.0853 61.3659 15.4442C60.7423 15.8032 60.2239 16.3195 59.8623 16.9415L59.8616 16.9426C59.4961 17.5758 59.3954 18.2687 59.3558 18.9804L59.3556 18.9831L59.3104 19.9004L59.3098 19.9112V19.922V26.3242L59.2614 27.2307L59.2613 27.2307L59.2611 27.237C59.2108 28.52 58.294 29.429 56.9727 29.5176L56.5209 29.5399V12.1425C56.8544 12.1875 57.2416 12.2788 57.6237 12.4152C58.1963 12.6196 58.6956 12.9033 58.9823 13.2233L59.2395 13.5102L59.5578 13.2932C60.6568 12.544 61.9837 12.1097 63.4159 12.1097L63.4161 12.1097C64.3943 12.1094 65.3615 12.3175 66.253 12.7203C67.1445 13.1231 67.9399 13.7112 68.5862 14.4456L68.9166 14.821L69.2469 14.4454C69.8929 13.7109 70.6882 13.1226 71.5797 12.72C72.4713 12.3174 73.4384 12.1097 74.4166 12.1107L74.4169 12.1107C76.2449 12.1114 77.9977 12.8381 79.29 14.1309C80.5823 15.4237 81.3083 17.1768 81.3083 19.0048V29.5398L80.86 29.5176C80.8595 29.5176 80.859 29.5175 80.8585 29.5175C79.5693 29.4431 78.6483 28.5152 78.5667 27.2291C78.5667 27.2283 78.5666 27.2275 78.5666 27.2267L78.5222 26.3251V19.9192V19.9083L78.5217 19.8974L78.4764 18.9831L78.4763 18.9803C78.4377 18.2893 78.3364 17.5806 77.9717 16.9508L66.9701 16.9461ZM52.2485 14.7427L52.171 14.6652C51.3599 13.854 50.3967 13.2107 49.3367 12.772C48.2767 12.3333 47.1406 12.108 45.9934 12.1088L45.9932 12.1088C44.8479 12.1089 43.7139 12.3347 42.6558 12.7732C41.5978 13.2116 40.6365 13.8542 39.8268 14.6642L39.8267 14.6643C36.4192 18.0718 36.4191 23.5979 39.8266 27.0055C39.8267 27.0056 39.8267 27.0056 39.8267 27.0057M52.2485 14.7427L45.9989 30.0007C43.5675 30.0007 41.2356 29.0353 39.5156 27.3168L39.8267 27.0057M52.2485 14.7427C53.0225 15.5363 53.6385 16.4705 54.063 17.4953C54.5017 18.5541 54.7274 19.6889 54.7274 20.835C54.7274 21.981 54.5017 23.1158 54.063 24.1746C53.6244 25.2333 52.9816 26.1953 52.1712 27.0055M52.2485 14.7427L52.1712 27.0055M39.8267 27.0057C41.4642 28.6417 43.6842 29.5607 45.9989 29.5607C48.3137 29.5607 50.5337 28.6416 52.1712 27.0055M39.8267 27.0057L52.1712 27.0055M32.9215 14.6653L32.9213 14.6651C32.1117 13.855 31.1504 13.2122 30.0924 12.7736C29.0344 12.335 27.9004 12.1091 26.7551 12.1088L32.9215 14.6653ZM32.9215 14.6653C36.33 18.0719 36.33 23.5989 32.9215 27.0055L32.9215 14.6653ZM20.5772 14.6642L20.5771 14.6643C17.1695 18.0718 17.1695 23.5979 20.577 27.0055C20.5771 27.0056 20.5771 27.0056 20.5771 27.0057M20.5772 14.6642L33.2325 27.3168C31.5126 29.0353 29.1807 30.0007 26.7493 30.0007C24.3179 30.0007 21.986 29.0353 20.266 27.3168L20.5771 27.0057M20.5772 14.6642C21.3869 13.8542 22.3482 13.2116 23.4062 12.7732M20.5772 14.6642L23.4062 12.7732M20.5771 27.0057C22.2146 28.6417 24.4346 29.5607 26.7493 29.5607C29.064 29.5607 31.2841 28.6417 32.9215 27.0056L20.5771 27.0057ZM23.4062 12.7732C24.4642 12.3347 25.5982 12.109 26.7435 12.1088M23.4062 12.7732L26.7435 12.1088M26.7435 12.1088C26.7435 12.1088 26.7435 12.1088 26.7436 12.1088M26.7435 12.1088H26.7436M26.7436 12.1088H26.7549H26.7436ZM0.628775 12.1099L13.9056 12.1136L14.8107 12.1544C16.1083 12.2269 17.0365 13.1498 17.0969 14.442L17.097 14.4432L17.1325 15.1618L6.27317 26.0249L5.52236 26.776H6.58435H14.822L15.7249 26.8205C17.0049 26.9051 17.9049 27.8213 18.0146 29.1169L18.0366 29.5621H4.76049L3.91891 29.5215L3.86066 29.5178C2.5591 29.4347 1.64641 28.5172 1.56836 27.2301L1.53285 26.5101L12.3923 15.6469L13.1431 14.8958H12.0811H3.84346L2.938 14.8512C1.67379 14.7773 0.757175 13.8414 0.650888 12.5582L0.628775 12.1099ZM50.1993 25.039L50.1995 25.0387C51.313 23.9244 51.9384 22.4136 51.9384 20.8383C51.9384 19.263 51.313 17.7522 50.1995 16.6379L49.8884 16.9488L50.1993 16.6377C49.085 15.5242 47.5742 14.8988 45.9989 14.8988C44.4236 14.8988 42.9128 15.5242 41.7985 16.6377L41.7983 16.6379C40.6848 17.7522 40.0593 19.263 40.0593 20.8383C40.0593 22.4136 40.6848 23.9244 41.7983 25.0387L41.7985 25.039C42.9128 26.1524 44.4236 26.7779 45.9989 26.7779C47.5742 26.7779 49.085 26.1524 50.1993 25.039ZM30.9499 16.636L30.1987 15.8844V16.0014C29.1983 15.2883 27.9939 14.8978 26.7493 14.8978C25.174 14.8978 23.6632 15.5233 22.5489 16.6367L22.5487 16.637C21.4352 17.7513 20.8097 19.2621 20.8097 20.8374C20.8097 22.4126 21.4352 23.9234 22.5487 25.0378L22.5489 25.038C23.6632 26.1515 25.174 26.7769 26.7493 26.7769C28.3246 26.7769 29.8354 26.1515 30.9497 25.038L30.9499 25.0378C32.0637 23.9234 32.6893 22.4124 32.6893 20.8369C32.6893 19.2614 32.0637 17.7503 30.9499 16.636Z" fill="#98989A" stroke="#98989A" stroke-width="0.88"/>
</g>
<defs>
<clipPath id="clip0_230_4513">
<rect width="81.6666" height="40" fill="white" transform="translate(0.166687)"/>
</clipPath>
</defs>
</svg>
