<svg width="160" height="41" viewBox="0 0 160 41" fill="none" xmlns="http://www.w3.org/2000/svg">
<g clip-path="url(#clip0_230_4512)">
<g clip-path="url(#clip1_230_4512)">
<path d="M95.5209 13.0092C95.8544 13.0542 96.2416 13.1455 96.6237 13.2819C97.1963 13.4863 97.6956 13.77 97.9823 14.09L98.2395 14.3769L98.5578 14.1599C99.6568 13.4106 100.984 12.9764 102.416 12.9764L102.416 12.9764C103.394 12.9761 104.361 13.1842 105.253 13.587C106.144 13.9898 106.94 14.5779 107.586 15.3123L107.917 15.6877L108.247 15.3121C108.893 14.5776 109.688 13.9893 110.58 13.5867C111.471 13.1841 112.438 12.9764 113.417 12.9774L113.417 12.9774C115.245 12.9781 116.998 13.7048 118.29 14.9976C119.582 16.2904 120.308 18.0435 120.308 19.8715V30.4065L119.86 30.3843C119.859 30.3843 119.859 30.3842 119.858 30.3842C118.569 30.3098 117.649 29.3821 117.567 28.0964C117.567 28.0954 117.567 28.0944 117.567 28.0934L117.522 27.1919V20.7859V20.775L117.522 20.7641L117.476 19.8497L117.476 19.847C117.438 19.1556 117.336 18.4464 116.971 17.8164M116.971 17.8164C116.971 17.8167 116.971 17.8171 116.972 17.8175L116.59 18.037L116.971 17.8164Z" fill="#98989A" stroke="#98989A" stroke-width="0.88"/>
</g>
</g>
<defs>
<clipPath id="clip0_230_4512">
<rect width="160" height="40" fill="white" transform="translate(0 0.866699)"/>
</clipPath>
<clipPath id="clip1_230_4512">
<rect width="81.6666" height="40" fill="white" transform="translate(39.1667 0.866699)"/>
</clipPath>
</defs>
</svg>
