<svg width="22" height="19" viewBox="0 0 22 19" fill="none" xmlns="http://www.w3.org/2000/svg">
<path d="M21.25 9C21.2508 8.13869 21.0397 7.29042 20.6352 6.52997C20.2308 5.76952 19.6455 5.12025 18.9309 4.63942C18.2163 4.15858 17.3944 3.86094 16.5376 3.77274C15.6808 3.68454 14.8155 3.80849 14.0179 4.13367C13.2204 4.45884 12.5151 4.97525 11.9642 5.63736C11.4133 6.29947 11.0338 7.08694 10.8591 7.93035C10.6844 8.77375 10.7199 9.64719 10.9625 10.4736C11.205 11.3001 11.6472 12.0542 12.25 12.6694V18C12.2499 18.1279 12.2825 18.2537 12.3448 18.3655C12.407 18.4772 12.4968 18.5712 12.6056 18.6384C12.7144 18.7057 12.8386 18.744 12.9663 18.7498C13.0941 18.7555 13.2212 18.7285 13.3356 18.6712L16 17.3381L18.6644 18.6712C18.7788 18.7285 18.9059 18.7555 19.0337 18.7498C19.1614 18.744 19.2856 18.7057 19.3944 18.6384C19.5032 18.5712 19.593 18.4772 19.6552 18.3655C19.7175 18.2537 19.7501 18.1279 19.75 18V12.6694C20.7119 11.6903 21.2506 10.3725 21.25 9ZM16 5.25C16.7417 5.25 17.4667 5.46993 18.0834 5.88199C18.7001 6.29404 19.1807 6.87971 19.4645 7.56494C19.7484 8.25016 19.8226 9.00416 19.6779 9.73159C19.5332 10.459 19.1761 11.1272 18.6516 11.6517C18.1272 12.1761 17.459 12.5333 16.7316 12.6779C16.0042 12.8226 15.2502 12.7484 14.5649 12.4645C13.8797 12.1807 13.294 11.7001 12.882 11.0834C12.4699 10.4667 12.25 9.74168 12.25 9C12.25 8.00544 12.6451 7.05161 13.3483 6.34835C14.0516 5.64509 15.0054 5.25 16 5.25ZM16.3356 15.8287C16.2314 15.7766 16.1165 15.7495 16 15.7495C15.8835 15.7495 15.7686 15.7766 15.6644 15.8287L13.75 16.7869V13.7428C14.4531 14.0767 15.2217 14.25 16 14.25C16.7783 14.25 17.5469 14.0767 18.25 13.7428V16.7869L16.3356 15.8287ZM10.75 15C10.75 15.1989 10.671 15.3897 10.5303 15.5303C10.3897 15.671 10.1989 15.75 10 15.75H1.75C1.35218 15.75 0.970644 15.592 0.68934 15.3107C0.408035 15.0294 0.25 14.6478 0.25 14.25V2.25C0.25 1.85218 0.408035 1.47064 0.68934 1.18934C0.970644 0.908035 1.35218 0.75 1.75 0.75H18.25C18.6478 0.75 19.0294 0.908035 19.3107 1.18934C19.592 1.47064 19.75 1.85218 19.75 2.25C19.75 2.44891 19.671 2.63968 19.5303 2.78033C19.3897 2.92098 19.1989 3 19 3C18.8011 3 18.6103 2.92098 18.4697 2.78033C18.329 2.63968 18.25 2.44891 18.25 2.25H1.75V14.25H10C10.1989 14.25 10.3897 14.329 10.5303 14.4697C10.671 14.6103 10.75 14.8011 10.75 15ZM9.25 9.75C9.25 9.94891 9.17098 10.1397 9.03033 10.2803C8.88968 10.421 8.69891 10.5 8.5 10.5H4.75C4.55109 10.5 4.36032 10.421 4.21967 10.2803C4.07902 10.1397 4 9.94891 4 9.75C4 9.55109 4.07902 9.36032 4.21967 9.21967C4.36032 9.07902 4.55109 9 4.75 9H8.5C8.69891 9 8.88968 9.07902 9.03033 9.21967C9.17098 9.36032 9.25 9.55109 9.25 9.75ZM9.25 6.75C9.25 6.94891 9.17098 7.13968 9.03033 7.28033C8.88968 7.42098 8.69891 7.5 8.5 7.5H4.75C4.55109 7.5 4.36032 7.42098 4.21967 7.28033C4.07902 7.13968 4 6.94891 4 6.75C4 6.55109 4.07902 6.36032 4.21967 6.21967C4.36032 6.07902 4.55109 6 4.75 6H8.5C8.69891 6 8.88968 6.07902 9.03033 6.21967C9.17098 6.36032 9.25 6.55109 9.25 6.75Z" fill="#FF832A"/>
</svg>
