<svg width="238" height="45" viewBox="0 0 238 45" fill="none" xmlns="http://www.w3.org/2000/svg">
<rect y="0.5" width="44" height="44" rx="6.51852" fill="#FF832A"/>
<path d="M9.09904 36.0801L17.9262 27.253H26.7534V18.4258L35.5805 27.253L26.7534 36.0801H9.09904Z" fill="white"/>
<path d="M9.09904 18.4258L17.9262 27.253V18.4258H26.7534L35.5805 9.59863H17.9262L9.09904 18.4258Z" fill="white"/>
<path d="M63.7495 35.4718C62.1753 35.4718 60.8292 35.2778 59.7113 34.89C58.5933 34.5021 57.6579 34.0002 56.9051 33.3842C56.175 32.7682 55.5932 32.118 55.1597 31.4336C54.7262 30.7263 54.3954 30.0647 54.1673 29.4487C53.9619 28.8327 53.8251 28.3307 53.7566 27.9429C53.6882 27.555 53.6539 27.3611 53.6539 27.3611H58.3766C58.3766 27.3611 58.3994 27.498 58.4451 27.7718C58.5135 28.0456 58.6504 28.3992 58.8557 28.8327C59.0611 29.2433 59.3576 29.654 59.7455 30.0647C60.1562 30.4753 60.6923 30.829 61.3539 31.1256C62.0384 31.3993 62.8825 31.5362 63.8864 31.5362C65.4378 31.5362 66.6128 31.194 67.4113 30.5096C68.2326 29.8023 68.6433 28.9353 68.6433 27.9087C68.6433 27.0417 68.3353 26.3573 67.7193 25.8553C67.1033 25.3306 66.1907 24.9427 64.9815 24.6918L61.6277 23.9731C60.3273 23.6993 59.1067 23.2887 57.9659 22.7411C56.848 22.1936 55.9468 21.4521 55.2624 20.5167C54.5779 19.5813 54.2357 18.3835 54.2357 16.9233C54.2357 15.3947 54.6122 14.0715 55.3651 12.9536C56.1408 11.8356 57.2016 10.9801 58.5477 10.3869C59.8938 9.77088 61.468 9.46288 63.2704 9.46288C64.9815 9.46288 66.396 9.71385 67.5139 10.2158C68.6319 10.7177 69.5216 11.3337 70.1833 12.0638C70.8677 12.7938 71.3696 13.5239 71.6891 14.254C72.0085 14.9841 72.2138 15.6001 72.3051 16.102C72.4191 16.6039 72.4762 16.8549 72.4762 16.8549H67.9246C67.9246 16.8549 67.879 16.6838 67.7877 16.3416C67.6965 15.9765 67.4911 15.5658 67.1717 15.1096C66.8523 14.6533 66.3732 14.254 65.7344 13.9118C65.0956 13.5467 64.24 13.3642 63.1677 13.3642C61.6391 13.3642 60.5212 13.7064 59.8139 14.3909C59.1295 15.0753 58.7873 15.8168 58.7873 16.6153C58.7873 17.4367 59.1067 18.0755 59.7455 18.5318C60.3843 18.9881 61.2399 19.3417 62.3122 19.5927L65.9055 20.3456C67.2516 20.6421 68.4836 21.087 69.6015 21.6802C70.7194 22.2734 71.6092 23.0605 72.2708 24.0416C72.9325 24.9998 73.2633 26.1976 73.2633 27.6349C73.2633 29.095 72.8982 30.4183 72.1682 31.6047C71.4381 32.791 70.3658 33.7378 68.9513 34.4451C67.5368 35.1296 65.8028 35.4718 63.7495 35.4718Z" fill="#262626"/>
<path d="M77.0705 35.1296V9.12066H81.6221V24.1784L88.0216 16.9918H93.3945L85.8656 25.2736L93.6341 35.1296H88.1927L81.6221 26.7793V35.1296H77.0705Z" fill="#262626"/>
<path d="M99.4513 14.1856C98.6528 14.1856 97.9911 13.9232 97.4664 13.3984C96.9645 12.8737 96.7135 12.2463 96.7135 11.5162C96.7135 10.7861 96.9645 10.1587 97.4664 9.63399C97.9911 9.10926 98.6528 8.84689 99.4513 8.84689C100.25 8.84689 100.911 9.10926 101.436 9.63399C101.961 10.1587 102.223 10.7861 102.223 11.5162C102.223 12.2463 101.961 12.8737 101.436 13.3984C100.911 13.9232 100.25 14.1856 99.4513 14.1856ZM97.1926 35.1296V16.9918H101.744V35.1296H97.1926Z" fill="#262626"/>
<path d="M106.814 35.1296L106.849 9.12066H111.366V35.1296H106.814Z" fill="#262626"/>
<path d="M116.306 35.1296L116.34 9.12066H120.857V35.1296H116.306Z" fill="#262626"/>
<path d="M125.797 35.1296V9.80511H136.851C138.471 9.80511 139.851 10.0903 140.992 10.6607C142.132 11.231 142.999 11.9953 143.593 12.9536C144.209 13.9118 144.517 14.9613 144.517 16.102C144.517 17.2656 144.3 18.2238 143.866 18.9767C143.456 19.7296 142.954 20.3227 142.361 20.7562C141.79 21.1669 141.266 21.4521 140.786 21.6118V21.8513C141.38 22.011 142.041 22.319 142.771 22.7753C143.524 23.2316 144.174 23.8818 144.722 24.726C145.27 25.5473 145.543 26.6196 145.543 27.9429C145.543 29.1293 145.258 30.2814 144.688 31.3993C144.117 32.4944 143.216 33.3956 141.984 34.1029C140.752 34.7873 139.121 35.1296 137.09 35.1296H125.797ZM136.235 13.7407H130.451V20.3456H136.235C137.558 20.3456 138.516 20.0147 139.11 19.3531C139.703 18.6915 139.999 17.9158 139.999 17.026C139.999 16.159 139.703 15.3947 139.11 14.7331C138.516 14.0715 137.558 13.7407 136.235 13.7407ZM136.577 23.9047H130.451V31.194H136.577C138.083 31.194 139.178 30.829 139.862 30.0989C140.547 29.3688 140.889 28.5133 140.889 27.5322C140.889 26.574 140.547 25.7298 139.862 24.9998C139.178 24.2697 138.083 23.9047 136.577 23.9047Z" fill="#262626"/>
<path d="M149.35 35.1296V16.9918H153.868V19.49H154.039C154.358 18.7827 154.883 18.1325 155.613 17.5393C156.343 16.9461 157.438 16.6496 158.898 16.6496C159.355 16.6496 159.731 16.6838 160.028 16.7522C160.324 16.7978 160.472 16.8207 160.472 16.8207V21.2353C160.472 21.2353 160.301 21.2125 159.959 21.1669C159.64 21.1213 159.24 21.0984 158.761 21.0984C157.164 21.0984 155.955 21.5433 155.134 22.4331C154.312 23.3229 153.902 24.7602 153.902 26.7451V35.1296H149.35Z" fill="#262626"/>
<path d="M166.86 14.1856C166.061 14.1856 165.4 13.9232 164.875 13.3984C164.373 12.8737 164.122 12.2463 164.122 11.5162C164.122 10.7861 164.373 10.1587 164.875 9.63399C165.4 9.10926 166.061 8.84689 166.86 8.84689C167.658 8.84689 168.32 9.10926 168.845 9.63399C169.369 10.1587 169.632 10.7861 169.632 11.5162C169.632 12.2463 169.369 12.8737 168.845 13.3984C168.32 13.9232 167.658 14.1856 166.86 14.1856ZM164.601 35.1296V16.9918H169.153V35.1296H164.601Z" fill="#262626"/>
<path d="M181.649 35.4718C180.303 35.4718 179.128 35.2094 178.124 34.6847C177.12 34.1371 176.276 33.4184 175.592 32.5287C174.93 31.6161 174.428 30.6008 174.086 29.4829C173.767 28.365 173.607 27.2242 173.607 26.0607C173.607 24.8971 173.767 23.7564 174.086 22.6384C174.428 21.5205 174.93 20.5167 175.592 19.6269C176.276 18.7143 177.12 17.9956 178.124 17.4709C179.128 16.9233 180.303 16.6496 181.649 16.6496C182.813 16.6496 183.771 16.8435 184.524 17.2313C185.277 17.5964 185.87 18.007 186.303 18.4633C186.737 18.8968 187.033 19.2504 187.193 19.5242H187.398V9.12066H191.95V35.1296H187.398V32.5971H187.193C187.033 32.8709 186.737 33.2359 186.303 33.6922C185.87 34.1485 185.277 34.5592 184.524 34.9242C183.771 35.2893 182.813 35.4718 181.649 35.4718ZM182.847 31.7416C183.874 31.7416 184.729 31.4678 185.414 30.9202C186.098 30.3498 186.611 29.6312 186.954 28.7642C187.296 27.8973 187.467 26.9961 187.467 26.0607C187.467 25.1253 187.296 24.2241 186.954 23.3571C186.611 22.4901 186.098 21.7829 185.414 21.2353C184.729 20.665 183.874 20.3798 182.847 20.3798C181.82 20.3798 180.953 20.665 180.246 21.2353C179.562 21.7829 179.048 22.4901 178.706 23.3571C178.364 24.2241 178.193 25.1253 178.193 26.0607C178.193 26.9961 178.364 27.8973 178.706 28.7642C179.048 29.6312 179.562 30.3498 180.246 30.9202C180.953 31.4678 181.82 31.7416 182.847 31.7416Z" fill="#262626"/>
<path d="M205.509 42.3847C203.889 42.3847 202.543 42.1679 201.471 41.7344C200.421 41.3238 199.588 40.8104 198.972 40.1944C198.356 39.6013 197.9 38.9967 197.604 38.3807C197.307 37.7647 197.113 37.2513 197.022 36.8407C196.931 36.43 196.885 36.2247 196.885 36.2247H201.334C201.334 36.2247 201.379 36.3501 201.471 36.6011C201.562 36.8521 201.744 37.1373 202.018 37.4567C202.315 37.7989 202.737 38.0955 203.284 38.3464C203.832 38.5974 204.562 38.7229 205.475 38.7229C207.072 38.7229 208.224 38.2666 208.931 37.354C209.638 36.4414 209.992 35.3349 209.992 34.0344V32.0153H209.787C209.536 32.4032 209.171 32.8253 208.692 33.2816C208.235 33.7378 207.631 34.1257 206.878 34.4451C206.148 34.7645 205.258 34.9242 204.208 34.9242C202.862 34.9242 201.687 34.6618 200.684 34.1371C199.68 33.6124 198.836 32.9165 198.151 32.0496C197.467 31.1826 196.953 30.213 196.611 29.1407C196.292 28.0456 196.132 26.9276 196.132 25.7869C196.132 24.6461 196.292 23.5396 196.611 22.4673C196.953 21.3722 197.467 20.3912 198.151 19.5242C198.836 18.6344 199.68 17.9386 200.684 17.4367C201.687 16.9119 202.862 16.6496 204.208 16.6496C205.258 16.6496 206.148 16.8093 206.878 17.1287C207.631 17.4481 208.235 17.8359 208.692 18.2922C209.171 18.7257 209.536 19.1364 209.787 19.5242H209.992V16.9918H214.544V34.0002C214.544 35.5744 214.213 36.989 213.551 38.2438C212.89 39.5214 211.886 40.5253 210.54 41.2553C209.216 42.0082 207.539 42.3847 205.509 42.3847ZM205.406 31.2624C206.433 31.2624 207.288 31.0001 207.973 30.4753C208.657 29.9278 209.171 29.2433 209.513 28.422C209.855 27.5778 210.026 26.6995 210.026 25.7869C210.026 24.8515 209.855 23.9731 209.513 23.1518C209.171 22.3076 208.657 21.6232 207.973 21.0984C207.288 20.5737 206.433 20.3113 205.406 20.3113C204.357 20.3113 203.478 20.5737 202.771 21.0984C202.087 21.6232 201.573 22.3076 201.231 23.1518C200.889 23.9731 200.718 24.8515 200.718 25.7869C200.718 26.6995 200.889 27.5778 201.231 28.422C201.573 29.2433 202.087 29.9278 202.771 30.4753C203.478 31.0001 204.357 31.2624 205.406 31.2624Z" fill="#262626"/>
<path d="M227.157 35.4718C225.606 35.4718 224.26 35.2094 223.119 34.6847C222.001 34.1371 221.066 33.4184 220.313 32.5287C219.583 31.6161 219.035 30.6008 218.67 29.4829C218.305 28.365 218.122 27.2242 218.122 26.0607C218.122 24.8971 218.294 23.7678 218.636 22.6727C219.001 21.5547 219.537 20.5395 220.244 19.6269C220.974 18.7143 221.898 17.9956 223.016 17.4709C224.134 16.9233 225.457 16.6496 226.986 16.6496C228.629 16.6496 230.077 17.0146 231.332 17.7447C232.587 18.4747 233.568 19.547 234.275 20.9616C234.983 22.3533 235.336 24.0872 235.336 26.1633V27.3269H222.708C222.777 28.5589 223.199 29.6312 223.974 30.5438C224.75 31.4336 225.811 31.8784 227.157 31.8784C227.933 31.8784 228.572 31.753 229.074 31.502C229.576 31.251 229.963 30.9658 230.237 30.6464C230.511 30.3042 230.705 30.019 230.819 29.7909C230.933 29.5399 230.99 29.4144 230.99 29.4144H235.199C235.199 29.4144 235.142 29.6198 235.028 30.0304C234.914 30.4183 234.697 30.9202 234.378 31.5362C234.081 32.1294 233.637 32.734 233.043 33.35C232.45 33.9432 231.674 34.4451 230.716 34.8558C229.758 35.2664 228.572 35.4718 227.157 35.4718ZM222.708 24.3496H230.956C230.887 22.935 230.465 21.8856 229.69 21.2011C228.914 20.5167 228.001 20.1744 226.952 20.1744C225.788 20.1744 224.819 20.5509 224.043 21.3038C223.267 22.0338 222.822 23.0491 222.708 24.3496Z" fill="#262626"/>
</svg>
