<svg width="21" height="21" viewBox="0 0 21 21" fill="none" xmlns="http://www.w3.org/2000/svg">
<g clip-path="url(#clip0_1506_415)">
<path d="M20.5 10.8667C20.5 5.34385 16.0229 0.866699 10.5 0.866699C4.97715 0.866699 0.5 5.34385 0.5 10.8667C0.5 15.8579 4.15684 19.995 8.9375 20.7452V13.7573H6.39844V10.8667H8.9375V8.66357C8.9375 6.15732 10.4305 4.77295 12.7146 4.77295C13.8084 4.77295 14.9531 4.96826 14.9531 4.96826V7.4292H13.6922C12.45 7.4292 12.0625 8.2001 12.0625 8.9917V10.8667H14.8359L14.3926 13.7573H12.0625V20.7452C16.8432 19.995 20.5 15.8579 20.5 10.8667Z" fill="#656567"/>
</g>
<defs>
<clipPath id="clip0_1506_415">
<rect width="20" height="20" fill="white" transform="translate(0.5 0.866699)"/>
</clipPath>
</defs>
</svg>
