<svg width="21" height="21" viewBox="0 0 21 21" fill="none" xmlns="http://www.w3.org/2000/svg">
<g clip-path="url(#clip0_1506_421)">
<path d="M19.0195 0.866699H1.97656C1.16016 0.866699 0.5 1.51123 0.5 2.30811V19.4214C0.5 20.2183 1.16016 20.8667 1.97656 20.8667H19.0195C19.8359 20.8667 20.5 20.2183 20.5 19.4253V2.30811C20.5 1.51123 19.8359 0.866699 19.0195 0.866699ZM6.43359 17.9097H3.46484V8.36279H6.43359V17.9097ZM4.94922 7.06201C3.99609 7.06201 3.22656 6.29248 3.22656 5.34326C3.22656 4.39404 3.99609 3.62451 4.94922 3.62451C5.89844 3.62451 6.66797 4.39404 6.66797 5.34326C6.66797 6.28857 5.89844 7.06201 4.94922 7.06201ZM17.543 17.9097H14.5781V13.269C14.5781 12.1636 14.5586 10.7378 13.0352 10.7378C11.4922 10.7378 11.2578 11.9448 11.2578 13.1909V17.9097H8.29688V8.36279H11.1406V9.66748H11.1797C11.5742 8.91748 12.543 8.12451 13.9844 8.12451C16.9883 8.12451 17.543 10.1011 17.543 12.6714V17.9097Z" fill="#656567"/>
</g>
<defs>
<clipPath id="clip0_1506_421">
<rect width="20" height="20" fill="white" transform="translate(0.5 0.866699)"/>
</clipPath>
</defs>
</svg>
