<svg width="14" height="18" viewBox="0 0 14 18" fill="none" xmlns="http://www.w3.org/2000/svg">
<path fill-rule="evenodd" clip-rule="evenodd" d="M6.61646 17.4926C6.64163 17.5072 6.66141 17.5184 6.67542 17.5263L6.69869 17.5393C6.88441 17.6412 7.1148 17.6405 7.3007 17.5396L7.32458 17.5263C7.33859 17.5184 7.35837 17.5072 7.38354 17.4926C7.43388 17.4634 7.50581 17.4209 7.59625 17.3652C7.77705 17.2539 8.03229 17.0897 8.33718 16.8743C8.94591 16.4443 9.75812 15.8062 10.5721 14.9728C12.1922 13.3141 13.875 10.8218 13.875 7.6167C13.875 3.81974 10.797 0.741699 7 0.741699C3.20304 0.741699 0.125 3.81974 0.125 7.6167C0.125 10.8218 1.80777 13.3141 3.42788 14.9728C4.24188 15.8062 5.05409 16.4443 5.66282 16.8743C5.96771 17.0897 6.22295 17.2539 6.40375 17.3652C6.49419 17.4209 6.56612 17.4634 6.61646 17.4926ZM7 10.1167C8.38071 10.1167 9.5 8.99741 9.5 7.6167C9.5 6.23599 8.38071 5.1167 7 5.1167C5.61929 5.1167 4.5 6.23599 4.5 7.6167C4.5 8.99741 5.61929 10.1167 7 10.1167Z" fill="#656567"/>
</svg>
