<svg width="20" height="21" viewBox="0 0 20 21" fill="none" xmlns="http://www.w3.org/2000/svg">
<path fill-rule="evenodd" clip-rule="evenodd" d="M1.25 4.1167C1.25 2.73599 2.36929 1.6167 3.75 1.6167H4.89302C5.61 1.6167 6.23498 2.10466 6.40887 2.80024L7.33037 6.48622C7.48284 7.09612 7.25495 7.73799 6.75202 8.11519L5.674 8.9237C5.56206 9.00766 5.53772 9.1306 5.56917 9.21644C6.51542 11.7996 8.5671 13.8513 11.1503 14.7975C11.2361 14.829 11.359 14.8046 11.443 14.6927L12.2515 13.6147C12.6287 13.1118 13.2706 12.8839 13.8805 13.0363L17.5665 13.9578C18.262 14.1317 18.75 14.7567 18.75 15.4737V16.6167C18.75 17.9974 17.6307 19.1167 16.25 19.1167H14.375C7.12626 19.1167 1.25 13.2404 1.25 5.9917V4.1167Z" fill="#656567"/>
</svg>
