<svg width="144" height="144" viewBox="0 0 144 144" fill="none" xmlns="http://www.w3.org/2000/svg">
<path d="M26.9372 100.867L56.9372 70.8667H86.9372V40.8667L116.937 70.8667L86.9372 100.867H26.9372Z" fill="#FF832A"/>
<path d="M26.9372 40.8667L56.9372 70.8667V40.8667H86.9372L116.937 10.8667H56.9372L26.9372 40.8667Z" fill="#FF832A"/>
<path d="M16.8833 129.02C15.81 129.02 14.8922 128.888 14.13 128.623C13.3678 128.359 12.73 128.017 12.2167 127.597C11.7189 127.177 11.3222 126.733 11.0267 126.267C10.7311 125.784 10.5056 125.333 10.35 124.913C10.21 124.493 10.1167 124.151 10.07 123.887C10.0233 123.622 10 123.49 10 123.49H13.22C13.22 123.49 13.2356 123.583 13.2667 123.77C13.3133 123.957 13.4067 124.198 13.5467 124.493C13.6867 124.773 13.8889 125.053 14.1533 125.333C14.4333 125.613 14.7989 125.854 15.25 126.057C15.7167 126.243 16.2922 126.337 16.9767 126.337C18.0345 126.337 18.8356 126.103 19.38 125.637C19.94 125.154 20.22 124.563 20.22 123.863C20.22 123.272 20.01 122.806 19.59 122.463C19.17 122.106 18.5478 121.841 17.7233 121.67L15.4367 121.18C14.55 120.993 13.7178 120.713 12.94 120.34C12.1778 119.967 11.5633 119.461 11.0967 118.823C10.63 118.186 10.3967 117.369 10.3967 116.373C10.3967 115.331 10.6533 114.429 11.1667 113.667C11.6956 112.904 12.4189 112.321 13.3367 111.917C14.2545 111.497 15.3278 111.287 16.5567 111.287C17.7233 111.287 18.6878 111.458 19.45 111.8C20.2122 112.142 20.8189 112.562 21.27 113.06C21.7367 113.558 22.0789 114.056 22.2967 114.553C22.5145 115.051 22.6545 115.471 22.7167 115.813C22.7945 116.156 22.8334 116.327 22.8334 116.327H19.73C19.73 116.327 19.6989 116.21 19.6367 115.977C19.5745 115.728 19.4345 115.448 19.2167 115.137C18.9989 114.826 18.6722 114.553 18.2367 114.32C17.8011 114.071 17.2178 113.947 16.4867 113.947C15.4445 113.947 14.6822 114.18 14.2 114.647C13.7333 115.113 13.5 115.619 13.5 116.163C13.5 116.723 13.7178 117.159 14.1533 117.47C14.5889 117.781 15.1722 118.022 15.9033 118.193L18.3533 118.707C19.2711 118.909 20.1111 119.212 20.8733 119.617C21.6356 120.021 22.2422 120.558 22.6933 121.227C23.1445 121.88 23.37 122.697 23.37 123.677C23.37 124.672 23.1211 125.574 22.6234 126.383C22.1256 127.192 21.3945 127.838 20.43 128.32C19.4656 128.787 18.2833 129.02 16.8833 129.02Z" fill="#262626"/>
<path d="M25.9659 128.787V111.053H29.0692V121.32L33.4325 116.42H37.0959L31.9625 122.067L37.2592 128.787H33.5492L29.0692 123.093V128.787H25.9659Z" fill="#262626"/>
<path d="M41.2255 114.507C40.6811 114.507 40.23 114.328 39.8722 113.97C39.53 113.612 39.3588 113.184 39.3588 112.687C39.3588 112.189 39.53 111.761 39.8722 111.403C40.23 111.046 40.6811 110.867 41.2255 110.867C41.77 110.867 42.2211 111.046 42.5788 111.403C42.9366 111.761 43.1155 112.189 43.1155 112.687C43.1155 113.184 42.9366 113.612 42.5788 113.97C42.2211 114.328 41.77 114.507 41.2255 114.507ZM39.6855 128.787V116.42H42.7888V128.787H39.6855Z" fill="#262626"/>
<path d="M46.2458 128.787L46.2692 111.053H49.3492V128.787H46.2458Z" fill="#262626"/>
<path d="M52.7172 128.787L52.7405 111.053H55.8205V128.787H52.7172Z" fill="#262626"/>
<path d="M59.1886 128.787V111.52H66.7252C67.8297 111.52 68.7708 111.714 69.5486 112.103C70.3263 112.492 70.9175 113.013 71.3219 113.667C71.7419 114.32 71.9519 115.036 71.9519 115.813C71.9519 116.607 71.8041 117.26 71.5086 117.773C71.2286 118.287 70.8864 118.691 70.4819 118.987C70.093 119.267 69.7352 119.461 69.4086 119.57V119.733C69.813 119.842 70.2641 120.052 70.7619 120.363C71.2752 120.674 71.7186 121.118 72.0919 121.693C72.4652 122.253 72.6519 122.984 72.6519 123.887C72.6519 124.696 72.4575 125.481 72.0686 126.243C71.6797 126.99 71.0652 127.604 70.2252 128.087C69.3852 128.553 68.273 128.787 66.8886 128.787H59.1886ZM66.3052 114.203H62.3619V118.707H66.3052C67.2075 118.707 67.8608 118.481 68.2652 118.03C68.6697 117.579 68.8719 117.05 68.8719 116.443C68.8719 115.852 68.6697 115.331 68.2652 114.88C67.8608 114.429 67.2075 114.203 66.3052 114.203ZM66.5386 121.133H62.3619V126.103H66.5386C67.5652 126.103 68.3119 125.854 68.7786 125.357C69.2452 124.859 69.4786 124.276 69.4786 123.607C69.4786 122.953 69.2452 122.378 68.7786 121.88C68.3119 121.382 67.5652 121.133 66.5386 121.133Z" fill="#262626"/>
<path d="M75.2476 128.787V116.42H78.3276V118.123H78.4442C78.662 117.641 79.0198 117.198 79.5176 116.793C80.0153 116.389 80.762 116.187 81.7576 116.187C82.0687 116.187 82.3253 116.21 82.5276 116.257C82.7298 116.288 82.8309 116.303 82.8309 116.303V119.313C82.8309 119.313 82.7142 119.298 82.4809 119.267C82.2631 119.236 81.9909 119.22 81.6642 119.22C80.5753 119.22 79.7509 119.523 79.1909 120.13C78.6309 120.737 78.3509 121.717 78.3509 123.07V128.787H75.2476Z" fill="#262626"/>
<path d="M87.1859 114.507C86.6414 114.507 86.1903 114.328 85.8325 113.97C85.4903 113.612 85.3192 113.184 85.3192 112.687C85.3192 112.189 85.4903 111.761 85.8325 111.403C86.1903 111.046 86.6414 110.867 87.1859 110.867C87.7303 110.867 88.1814 111.046 88.5392 111.403C88.897 111.761 89.0759 112.189 89.0759 112.687C89.0759 113.184 88.897 113.612 88.5392 113.97C88.1814 114.328 87.7303 114.507 87.1859 114.507ZM85.6459 128.787V116.42H88.7492V128.787H85.6459Z" fill="#262626"/>
<path d="M97.2695 129.02C96.3517 129.02 95.5506 128.841 94.8662 128.483C94.1817 128.11 93.6062 127.62 93.1395 127.013C92.6884 126.391 92.3462 125.699 92.1128 124.937C91.8951 124.174 91.7862 123.397 91.7862 122.603C91.7862 121.81 91.8951 121.032 92.1128 120.27C92.3462 119.508 92.6884 118.823 93.1395 118.217C93.6062 117.594 94.1817 117.104 94.8662 116.747C95.5506 116.373 96.3517 116.187 97.2695 116.187C98.0629 116.187 98.7162 116.319 99.2295 116.583C99.7429 116.832 100.147 117.112 100.443 117.423C100.738 117.719 100.941 117.96 101.05 118.147H101.19V111.053H104.293V128.787H101.19V127.06H101.05C100.941 127.247 100.738 127.496 100.443 127.807C100.147 128.118 99.7429 128.398 99.2295 128.647C98.7162 128.896 98.0629 129.02 97.2695 129.02ZM98.0862 126.477C98.7862 126.477 99.3695 126.29 99.8362 125.917C100.303 125.528 100.653 125.038 100.886 124.447C101.12 123.856 101.236 123.241 101.236 122.603C101.236 121.966 101.12 121.351 100.886 120.76C100.653 120.169 100.303 119.687 99.8362 119.313C99.3695 118.924 98.7862 118.73 98.0862 118.73C97.3862 118.73 96.7951 118.924 96.3128 119.313C95.8462 119.687 95.4962 120.169 95.2628 120.76C95.0295 121.351 94.9128 121.966 94.9128 122.603C94.9128 123.241 95.0295 123.856 95.2628 124.447C95.4962 125.038 95.8462 125.528 96.3128 125.917C96.7951 126.29 97.3862 126.477 98.0862 126.477Z" fill="#262626"/>
<path d="M113.538 133.733C112.433 133.733 111.515 133.586 110.784 133.29C110.069 133.01 109.501 132.66 109.081 132.24C108.661 131.836 108.35 131.423 108.148 131.003C107.945 130.583 107.813 130.233 107.751 129.953C107.689 129.673 107.658 129.533 107.658 129.533H110.691C110.691 129.533 110.722 129.619 110.784 129.79C110.846 129.961 110.971 130.156 111.158 130.373C111.36 130.607 111.648 130.809 112.021 130.98C112.394 131.151 112.892 131.237 113.514 131.237C114.603 131.237 115.389 130.926 115.871 130.303C116.353 129.681 116.594 128.927 116.594 128.04V126.663H116.454C116.283 126.928 116.034 127.216 115.708 127.527C115.396 127.838 114.984 128.102 114.471 128.32C113.973 128.538 113.367 128.647 112.651 128.647C111.733 128.647 110.932 128.468 110.248 128.11C109.563 127.752 108.988 127.278 108.521 126.687C108.054 126.096 107.704 125.434 107.471 124.703C107.253 123.957 107.144 123.194 107.144 122.417C107.144 121.639 107.253 120.884 107.471 120.153C107.704 119.407 108.054 118.738 108.521 118.147C108.988 117.54 109.563 117.066 110.248 116.723C110.932 116.366 111.733 116.187 112.651 116.187C113.367 116.187 113.973 116.296 114.471 116.513C114.984 116.731 115.396 116.996 115.708 117.307C116.034 117.602 116.283 117.882 116.454 118.147H116.594V116.42H119.698V128.017C119.698 129.09 119.472 130.054 119.021 130.91C118.57 131.781 117.885 132.466 116.968 132.963C116.065 133.477 114.922 133.733 113.538 133.733ZM113.468 126.15C114.168 126.15 114.751 125.971 115.218 125.613C115.684 125.24 116.034 124.773 116.268 124.213C116.501 123.638 116.618 123.039 116.618 122.417C116.618 121.779 116.501 121.18 116.268 120.62C116.034 120.044 115.684 119.578 115.218 119.22C114.751 118.862 114.168 118.683 113.468 118.683C112.752 118.683 112.153 118.862 111.671 119.22C111.204 119.578 110.854 120.044 110.621 120.62C110.388 121.18 110.271 121.779 110.271 122.417C110.271 123.039 110.388 123.638 110.621 124.213C110.854 124.773 111.204 125.24 111.671 125.613C112.153 125.971 112.752 126.15 113.468 126.15Z" fill="#262626"/>
<path d="M128.298 129.02C127.24 129.02 126.322 128.841 125.544 128.483C124.782 128.11 124.144 127.62 123.631 127.013C123.133 126.391 122.76 125.699 122.511 124.937C122.262 124.174 122.138 123.397 122.138 122.603C122.138 121.81 122.254 121.04 122.488 120.293C122.737 119.531 123.102 118.839 123.584 118.217C124.082 117.594 124.712 117.104 125.474 116.747C126.237 116.373 127.139 116.187 128.181 116.187C129.301 116.187 130.289 116.436 131.144 116.933C132 117.431 132.669 118.162 133.151 119.127C133.633 120.076 133.874 121.258 133.874 122.673V123.467H125.264C125.311 124.307 125.599 125.038 126.128 125.66C126.657 126.267 127.38 126.57 128.298 126.57C128.827 126.57 129.262 126.484 129.604 126.313C129.947 126.142 130.211 125.948 130.398 125.73C130.584 125.497 130.717 125.302 130.794 125.147C130.872 124.976 130.911 124.89 130.911 124.89H133.781C133.781 124.89 133.742 125.03 133.664 125.31C133.587 125.574 133.439 125.917 133.221 126.337C133.019 126.741 132.716 127.153 132.311 127.573C131.907 127.978 131.378 128.32 130.724 128.6C130.071 128.88 129.262 129.02 128.298 129.02ZM125.264 121.437H130.888C130.841 120.472 130.553 119.757 130.024 119.29C129.496 118.823 128.873 118.59 128.158 118.59C127.364 118.59 126.703 118.847 126.174 119.36C125.646 119.858 125.342 120.55 125.264 121.437Z" fill="#262626"/>
</svg>
