<svg width="21" height="21" viewBox="0 0 21 21" fill="none" xmlns="http://www.w3.org/2000/svg">
<g clip-path="url(#clip0_1506_418)">
<path d="M6.7918 18.9918C14.3371 18.9918 18.4652 12.7391 18.4652 7.31837C18.4652 7.14259 18.4613 6.9629 18.4535 6.78712C19.2566 6.20637 19.9496 5.48703 20.5 4.6629C19.7521 4.99565 18.958 5.21297 18.1449 5.30743C19.0011 4.79424 19.6421 3.98805 19.9492 3.03829C19.1438 3.51562 18.263 3.85233 17.3445 4.034C16.7257 3.37646 15.9075 2.94108 15.0164 2.7952C14.1253 2.64931 13.211 2.80103 12.4148 3.2269C11.6186 3.65277 10.9848 4.32908 10.6115 5.15125C10.2382 5.97342 10.1462 6.89567 10.3496 7.7754C8.71874 7.69356 7.12328 7.26991 5.66665 6.5319C4.21002 5.7939 2.92474 4.75802 1.89414 3.49142C1.37033 4.39452 1.21005 5.46319 1.44586 6.48023C1.68167 7.49727 2.29589 8.38636 3.16367 8.96681C2.51219 8.94613 1.87498 8.77072 1.30469 8.45509V8.50587C1.3041 9.45361 1.63175 10.3723 2.23192 11.1058C2.8321 11.8393 3.66777 12.3423 4.59687 12.5293C3.99338 12.6944 3.35999 12.7185 2.7457 12.5996C3.00788 13.4147 3.51798 14.1276 4.20481 14.6388C4.89164 15.15 5.72093 15.434 6.57695 15.4512C5.12369 16.5927 3.32848 17.2119 1.48047 17.209C1.15274 17.2085 0.825333 17.1884 0.5 17.1488C2.37738 18.3533 4.56128 18.993 6.7918 18.9918Z" fill="#656567"/>
</g>
<defs>
<clipPath id="clip0_1506_418">
<rect width="20" height="20" fill="white" transform="translate(0.5 0.866699)"/>
</clipPath>
</defs>
</svg>
